<?xml version="1.0" encoding="utf-8"?>
<!-- Generator: Adobe Illustrator 21.0.2, SVG Export Plug-In . SVG Version: 6.00 Build 0)  -->
<svg version="1.1" id="Layer_1" xmlns="http://www.w3.org/2000/svg" xmlns:xlink="http://www.w3.org/1999/xlink" x="0px" y="0px"
	 viewBox="0 0 400 400" style="enable-background:new 0 0 400 400;" xml:space="preserve">
<style type="text/css">
	.st0{fill:#333333;}
</style>
<g>
	<path class="st0" d="M209,94.2c-0.7,0-1.4-0.4-1.7-1l-22.6-38.4c-0.6-1-0.2-2.2,0.7-2.8c1-0.6,2.2-0.2,2.8,0.7l22.6,38.4
		c0.6,1,0.2,2.2-0.7,2.8C209.7,94.1,209.3,94.2,209,94.2z"/>
</g>
<g>
	<path class="st0" d="M186.4,132.6c-0.3,0-0.7-0.1-1-0.3c-1-0.6-1.3-1.8-0.7-2.8l22.6-38.4c0.6-1,1.8-1.3,2.8-0.7
		c1,0.6,1.3,1.8,0.7,2.8l-22.6,38.4C187.8,132.2,187.1,132.6,186.4,132.6z"/>
</g>
<g>
	<g>
		<path class="st0" d="M260.1,105.3c-0.7,0-1.4-0.4-1.7-1c-0.6-1-0.2-2.2,0.7-2.8l38.4-22.6c1-0.6,2.2-0.2,2.8,0.7
			c0.6,1,0.2,2.2-0.7,2.8L261.1,105C260.8,105.2,260.4,105.3,260.1,105.3z"/>
	</g>
	<g>
		<path class="st0" d="M336.8,105.3c-0.3,0-0.7-0.1-1-0.3l-38.4-22.6c-1-0.6-1.3-1.8-0.7-2.8s1.8-1.3,2.8-0.7l38.4,22.6
			c1,0.6,1.3,1.8,0.7,2.8C338.2,104.9,337.5,105.3,336.8,105.3z"/>
	</g>
</g>
<g>
	<g>
		<path class="st0" d="M197.5,221.8c-0.7,0-1.4-0.4-1.7-1c-0.6-1-0.2-2.2,0.7-2.8l38.4-22.6c1-0.6,2.2-0.2,2.8,0.7
			c0.6,1,0.2,2.2-0.7,2.8l-38.4,22.6C198.2,221.7,197.8,221.8,197.5,221.8z"/>
	</g>
	<g>
		<path class="st0" d="M197.5,221.8c-0.3,0-0.7-0.1-1-0.3l-38.4-22.6c-1-0.6-1.3-1.8-0.7-2.8c0.6-1,1.8-1.3,2.8-0.7l38.4,22.6
			c1,0.6,1.3,1.8,0.7,2.8C198.8,221.4,198.1,221.8,197.5,221.8z"/>
	</g>
</g>
<g>
	<g>
		<path class="st0" d="M132.4,59.1H62.6c-1.1,0-2-0.9-2-2s0.9-2,2-2h69.8c1.1,0,2,0.9,2,2S133.5,59.1,132.4,59.1z"/>
	</g>
	<g>
		<path class="st0" d="M132.4,94H62.6c-1.1,0-2-0.9-2-2s0.9-2,2-2h69.8c1.1,0,2,0.9,2,2S133.5,94,132.4,94z"/>
	</g>
	<g>
		<path class="st0" d="M132.4,128.9H62.6c-1.1,0-2-0.9-2-2s0.9-2,2-2h69.8c1.1,0,2,0.9,2,2S133.5,128.9,132.4,128.9z"/>
	</g>
</g>
<g>
	<path class="st0" d="M335.1,198.8l-32.1-28.2c-2.3-2-5.8-2-8.1,0l-32.3,28.4c-3.1,2.8-2.6,7.8,1,9.9l12,6.8l2.5,19.9
		c0.5,4,4.2,7,8.5,7h23.2c4.3,0,7.9-2.9,8.5-6.8l3.1-19.9l12.7-7.3C337.8,206.6,338.3,201.6,335.1,198.8z M307.6,220.2
		c0,3.1-2.5,5.7-5.7,5.7h-6c-3.1,0-5.7-2.5-5.7-5.7v-6c0-3.1,2.5-5.7,5.7-5.7h6c3.1,0,5.7,2.5,5.7,5.7V220.2z"/>
</g>
<g>
	<path class="st0" d="M107.5,248.9c-0.7,0-1.4-0.4-1.7-1l-22.6-38.4c-0.6-1-0.2-2.2,0.7-2.8c1-0.6,2.2-0.2,2.8,0.7l22.6,38.4
		c0.6,1,0.2,2.2-0.7,2.8C108.2,248.8,107.9,248.9,107.5,248.9z"/>
</g>
<g>
	<path class="st0" d="M85,210.5c-0.3,0-0.7-0.1-1-0.3c-1-0.6-1.3-1.8-0.7-2.8l22.6-38.4c0.6-1,1.8-1.3,2.8-0.7
		c1,0.6,1.3,1.8,0.7,2.8l-22.6,38.4C86.3,210.2,85.7,210.5,85,210.5z"/>
</g>
<g>
	<path class="st0" d="M247.6,349c-20.3,0-36.7-16.5-36.7-36.7c0-20.3,16.5-36.7,36.7-36.7s36.7,16.5,36.7,36.7
		C284.3,332.5,267.9,349,247.6,349z M247.6,281.8c-16.8,0-30.5,13.7-30.5,30.5c0,16.8,13.7,30.5,30.5,30.5s30.5-13.7,30.5-30.5
		C278.1,295.5,264.4,281.8,247.6,281.8z"/>
</g>
<g>
	<path class="st0" d="M260,309.3c1.9,1.5,1.9,4.3,0,5.8l-8.1,6.5l-5.6,4.5c-2.4,1.9-6,0.2-6-2.9v-11v-11c0-3.1,3.6-4.8,6-2.9
		l5.6,4.5L260,309.3z"/>
</g>
<g>
	<path class="st0" d="M151.9,348.1c-20.3,0-36.7-16.5-36.7-36.7c0-20.3,16.5-36.7,36.7-36.7s36.7,16.5,36.7,36.7
		C188.7,331.7,172.2,348.1,151.9,348.1z M151.9,280.9c-16.8,0-30.5,13.7-30.5,30.5c0,16.8,13.7,30.5,30.5,30.5s30.5-13.7,30.5-30.5
		C182.4,294.6,168.7,280.9,151.9,280.9z"/>
</g>
<g>
	<g>
		<path class="st0" d="M142.5,323.9c-2.6,0-4.7-2.1-4.7-4.7v-15.5c0-2.6,2.1-4.7,4.7-4.7s4.7,2.1,4.7,4.7v15.5
			C147.2,321.8,145,323.9,142.5,323.9z"/>
	</g>
	<g>
		<path class="st0" d="M161.4,323.9c-2.6,0-4.7-2.1-4.7-4.7v-15.5c0-2.6,2.1-4.7,4.7-4.7s4.7,2.1,4.7,4.7v15.5
			C166.1,321.8,164,323.9,161.4,323.9z"/>
	</g>
</g>
</svg>
