<?xml version="1.0" encoding="utf-8"?>
<!-- Generator: Adobe Illustrator 21.0.2, SVG Export Plug-In . SVG Version: 6.00 Build 0)  -->
<svg version="1.1" id="Layer_1" xmlns="http://www.w3.org/2000/svg" xmlns:xlink="http://www.w3.org/1999/xlink" x="0px" y="0px"
	 viewBox="0 0 574 583.4" style="enable-background:new 0 0 574 583.4;" xml:space="preserve">
<style type="text/css">
	.st0{fill:none;stroke:#FFFFFF;stroke-width:8;stroke-miterlimit:10;}
	.st1{fill-rule:evenodd;clip-rule:evenodd;fill:none;stroke:#FFFFFF;stroke-width:3;stroke-miterlimit:10;}
	.st2{fill:none;stroke:#FFFFFF;stroke-width:3;stroke-miterlimit:10;}
	.st3{clip-path:url(#SVGID_2_);}
	.st4{fill:url(#SVGID_3_);}
	.st5{fill:#FFFFFF;}
	.st6{fill:none;stroke:#FFFFFF;stroke-width:7;stroke-linecap:round;stroke-linejoin:round;stroke-miterlimit:10;}
	.st7{fill:none;stroke:url(#SVGID_4_);stroke-width:3;stroke-miterlimit:10;}
	.st8{fill:#1A68E5;}
</style>
<g>
	<g>
		<line class="st0" x1="994.2" y1="-12.8" x2="667.8" y2="313.5"/>
	</g>
	<g>
		<line class="st0" x1="1011.6" y1="4.7" x2="685.3" y2="331"/>
	</g>
	<g>
		<line class="st0" x1="1029.1" y1="22.1" x2="702.8" y2="348.5"/>
	</g>
	<g>
		<line class="st0" x1="1046.6" y1="39.6" x2="720.2" y2="366"/>
	</g>
	<g>
		<line class="st0" x1="1064" y1="57.1" x2="737.7" y2="383.4"/>
	</g>
	<g>
		<line class="st0" x1="1081.5" y1="74.6" x2="755.2" y2="400.9"/>
	</g>
	<g>
		<line class="st0" x1="1099" y1="92" x2="772.7" y2="418.4"/>
	</g>
	<g>
		<line class="st0" x1="1116.5" y1="109.5" x2="790.1" y2="435.8"/>
	</g>
	<g>
		<line class="st0" x1="1133.9" y1="127" x2="807.6" y2="453.3"/>
	</g>
	<g>
		<line class="st0" x1="1151.4" y1="144.5" x2="825.1" y2="470.8"/>
	</g>
	<g>
		<line class="st0" x1="1168.9" y1="161.9" x2="842.5" y2="488.3"/>
	</g>
	<g>
		<line class="st0" x1="1186.4" y1="179.4" x2="860" y2="505.7"/>
	</g>
	<g>
		<line class="st0" x1="1203.8" y1="196.9" x2="877.5" y2="523.2"/>
	</g>
	<g>
		<line class="st0" x1="1221.3" y1="214.3" x2="895" y2="540.7"/>
	</g>
	<g>
		<line class="st0" x1="1238.8" y1="231.8" x2="912.4" y2="558.2"/>
	</g>
	<g>
		<line class="st0" x1="1256.2" y1="249.3" x2="929.9" y2="575.6"/>
	</g>
	<g>
		<line class="st0" x1="1273.7" y1="266.8" x2="947.4" y2="593.1"/>
	</g>
	<g>
		<line class="st0" x1="1291.2" y1="284.2" x2="964.8" y2="610.6"/>
	</g>
	<g>
		<line class="st0" x1="1308.7" y1="301.7" x2="982.3" y2="628"/>
	</g>
</g>
<rect x="19.2" y="23.4" class="st1" width="535.5" height="535.5"/>
<g>
	<g>
		<line class="st2" x1="-1146.5" y1="841.5" x2="-1725.5" y2="1420.5"/>
	</g>
	<g>
		<line class="st2" x1="-1115.5" y1="872.5" x2="-1694.5" y2="1451.5"/>
	</g>
	<g>
		<line class="st2" x1="-1084.5" y1="903.5" x2="-1663.5" y2="1482.5"/>
	</g>
	<g>
		<line class="st2" x1="-1053.5" y1="934.5" x2="-1632.5" y2="1513.5"/>
	</g>
	<g>
		<line class="st2" x1="-1022.5" y1="965.5" x2="-1601.5" y2="1544.5"/>
	</g>
	<g>
		<line class="st2" x1="-991.5" y1="996.5" x2="-1570.5" y2="1575.5"/>
	</g>
	<g>
		<line class="st2" x1="-960.5" y1="1027.5" x2="-1539.5" y2="1606.5"/>
	</g>
	<g>
		<line class="st2" x1="-929.5" y1="1058.5" x2="-1508.5" y2="1637.5"/>
	</g>
	<g>
		<line class="st2" x1="-898.5" y1="1089.5" x2="-1477.5" y2="1668.5"/>
	</g>
	<g>
		<line class="st2" x1="-867.5" y1="1120.5" x2="-1446.5" y2="1699.5"/>
	</g>
	<g>
		<line class="st2" x1="-836.5" y1="1151.5" x2="-1415.5" y2="1730.5"/>
	</g>
	<g>
		<line class="st2" x1="-805.5" y1="1182.5" x2="-1384.5" y2="1761.5"/>
	</g>
	<g>
		<line class="st2" x1="-774.5" y1="1213.5" x2="-1353.5" y2="1792.5"/>
	</g>
	<g>
		<line class="st2" x1="-743.5" y1="1244.5" x2="-1322.5" y2="1823.5"/>
	</g>
	<g>
		<line class="st2" x1="-712.5" y1="1275.5" x2="-1291.5" y2="1854.5"/>
	</g>
	<g>
		<line class="st2" x1="-681.5" y1="1306.5" x2="-1260.5" y2="1885.5"/>
	</g>
	<g>
		<line class="st2" x1="-650.5" y1="1337.5" x2="-1229.5" y2="1916.5"/>
	</g>
	<g>
		<line class="st2" x1="-619.5" y1="1368.5" x2="-1198.5" y2="1947.5"/>
	</g>
	<g>
		<line class="st2" x1="-588.5" y1="1399.5" x2="-1167.5" y2="1978.5"/>
	</g>
</g>
<g>
	<defs>
		<circle id="SVGID_1_" cx="-447" cy="387" r="387"/>
	</defs>
	<clipPath id="SVGID_2_">
		<use xlink:href="#SVGID_1_"  style="overflow:visible;"/>
	</clipPath>
	<g class="st3">
		<g>
			<line class="st2" x1="-436.5" y1="-181.5" x2="-1015.5" y2="397.5"/>
		</g>
		<g>
			<line class="st2" x1="-405.5" y1="-150.5" x2="-984.5" y2="428.5"/>
		</g>
		<g>
			<line class="st2" x1="-374.5" y1="-119.5" x2="-953.5" y2="459.5"/>
		</g>
		<g>
			<line class="st2" x1="-343.5" y1="-88.5" x2="-922.5" y2="490.5"/>
		</g>
		<g>
			<line class="st2" x1="-312.5" y1="-57.5" x2="-891.5" y2="521.5"/>
		</g>
		<g>
			<line class="st2" x1="-281.5" y1="-26.5" x2="-860.5" y2="552.5"/>
		</g>
		<g>
			<line class="st2" x1="-250.5" y1="4.5" x2="-829.5" y2="583.5"/>
		</g>
		<g>
			<line class="st2" x1="-219.5" y1="35.5" x2="-798.5" y2="614.5"/>
		</g>
		<g>
			<line class="st2" x1="-188.5" y1="66.5" x2="-767.5" y2="645.5"/>
		</g>
		<g>
			<line class="st2" x1="-157.5" y1="97.5" x2="-736.5" y2="676.5"/>
		</g>
		<g>
			<line class="st2" x1="-126.5" y1="128.5" x2="-705.5" y2="707.5"/>
		</g>
		<g>
			<line class="st2" x1="-95.5" y1="159.5" x2="-674.5" y2="738.5"/>
		</g>
		<g>
			<line class="st2" x1="-64.5" y1="190.5" x2="-643.5" y2="769.5"/>
		</g>
		<g>
			<line class="st2" x1="-33.5" y1="221.5" x2="-612.5" y2="800.5"/>
		</g>
		<g>
			<line class="st2" x1="-2.5" y1="252.5" x2="-581.5" y2="831.5"/>
		</g>
		<g>
			<line class="st2" x1="28.5" y1="283.5" x2="-550.5" y2="862.5"/>
		</g>
		<g>
			<line class="st2" x1="59.5" y1="314.5" x2="-519.5" y2="893.5"/>
		</g>
		<g>
			<line class="st2" x1="90.5" y1="345.5" x2="-488.5" y2="924.5"/>
		</g>
		<g>
			<line class="st2" x1="121.5" y1="376.5" x2="-457.5" y2="955.5"/>
		</g>
	</g>
</g>
<g>
	
		<image style="overflow:visible;opacity:0.4;" width="561" height="327" xlink:href="FEFC4DD5.png"  transform="matrix(1 0 0 1 -442 1506)">
	</image>
	<g>
		<linearGradient id="SVGID_3_" gradientUnits="userSpaceOnUse" x1="-374.2645" y1="1762.9572" x2="49.1531" y2="1625.3804">
			<stop  offset="0" style="stop-color:#FFFFFF;stop-opacity:0"/>
			<stop  offset="1" style="stop-color:#FFFFFF"/>
		</linearGradient>
		<path class="st4" d="M99.8,1815.5c0-3.5-0.3-7.2-0.6-10.8c-0.3-3.6-0.8-7.2-1.3-10.8c-1.1-7.2-2.5-14.3-4.2-21.4
			c-3.4-14.1-7.9-28-13.2-41.5c-5.3-13.5-11.5-26.7-18.6-39.4c-7.1-12.7-15-24.9-23.7-36.6l-6.6-8.6l-7-8.3
			c-2.3-2.8-4.8-5.4-7.3-8.1c-2.5-2.7-4.9-5.4-7.5-7.9l-7.8-7.6c-2.7-2.5-5.4-4.8-8.1-7.3l-4.1-3.6l-4.3-3.4l-8.5-6.8
			c-23.3-17.5-48.7-32-75.5-43.4c-1.6-0.8-3.3-1.4-5-2.1l-5.1-2c-3.4-1.3-6.8-2.7-10.2-3.9l-10.4-3.4c-3.5-1.1-6.9-2.3-10.4-3.2
			l-10.5-2.9l-2.6-0.7c-0.9-0.2-1.8-0.4-2.7-0.6l-5.3-1.2l-5.3-1.2c-1.8-0.4-3.5-0.8-5.3-1.1l-10.8-1.8c-3.6-0.7-7.2-1-10.8-1.4
			l-5.4-0.6c-1.8-0.2-3.6-0.4-5.4-0.5l-10.9-0.7l-2.7-0.2l-2.7,0l-5.5-0.1c-7.3-0.2-14.6,0.3-21.8,0.5l-10.9,0.9l-2.7,0.2
			c-0.9,0.1-1.8,0.2-2.7,0.3l-5.4,0.7c-14.4,2-28.7,4.9-42.7,9c-14,4-27.7,9-41,14.9c-13.3,5.9-26.2,12.7-38.6,20.4
			c-6.2,3.8-12.2,7.9-18.1,12.2c-5.9,4.3-11.6,8.8-17,13.7c5.4-4.9,11.1-9.4,17-13.7c5.9-4.3,11.9-8.4,18.1-12.2
			c12.3-7.7,25.3-14.5,38.6-20.5c13.3-5.9,27-11,41-15c14-4.1,28.3-7,42.7-9l5.4-0.7c0.9-0.1,1.8-0.3,2.7-0.4l2.7-0.2l10.9-1
			c7.3-0.3,14.6-0.8,21.8-0.5l5.5,0l2.7,0l2.7,0.2l10.9,0.6c1.8,0.1,3.6,0.3,5.4,0.5l5.4,0.6c3.6,0.4,7.3,0.7,10.8,1.4l10.8,1.8
			c1.8,0.3,3.6,0.7,5.4,1.1l5.3,1.2l5.3,1.2c0.9,0.2,1.8,0.4,2.7,0.6l2.6,0.7l10.5,2.9c3.5,0.9,7,2.1,10.4,3.2l10.4,3.4
			c3.4,1.3,6.8,2.6,10.2,3.9l5.1,2c1.7,0.7,3.4,1.3,5.1,2.1c26.8,11.4,52.4,25.9,75.7,43.4l8.5,6.8l4.3,3.4l4.1,3.6
			c2.7,2.4,5.5,4.8,8.2,7.3l7.8,7.6c2.7,2.5,5.1,5.2,7.6,7.9c2.5,2.7,5,5.3,7.3,8.1l7.1,8.4l6.7,8.7c8.7,11.7,16.7,23.9,23.9,36.6
			c7.1,12.7,13.3,26,18.7,39.5c5.4,13.6,9.9,27.5,13.5,41.6l1.4,5.3l1.2,5.3c0.4,1.8,0.8,3.6,1.2,5.3c0.4,1.8,0.8,3.6,1.1,5.4
			c1.4,7.2,2.7,14.3,3.6,21.7c0.1,1-0.6,1.9-1.6,2s-1.9-0.6-2-1.6C99.8,1815.7,99.8,1815.7,99.8,1815.5L99.8,1815.5z"/>
	</g>
</g>
<g>
	<path class="st5" d="M-58.5,2030.5c12.1,0,22,9.9,22,22v25c0,12.1-9.9,22-22,22h-4c-12.1,0-22-9.9-22-22v-25c0-12.1,9.9-22,22-22
		H-58.5 M-58.5,2027.5h-4c-13.8,0-25,11.2-25,25v25c0,13.8,11.2,25,25,25h4c13.8,0,25-11.2,25-25v-25
		C-33.5,2038.7-44.7,2027.5-58.5,2027.5L-58.5,2027.5z"/>
</g>
<g>
	<line class="st6" x1="-60.5" y1="2050.5" x2="-60.5" y2="2057.5"/>
</g>
<g>
	<linearGradient id="SVGID_4_" gradientUnits="userSpaceOnUse" x1="-60.5" y1="2188.5" x2="-60.5" y2="2101">
		<stop  offset="0" style="stop-color:#FFFFFF;stop-opacity:0"/>
		<stop  offset="1" style="stop-color:#FFFFFF"/>
	</linearGradient>
	<line class="st7" x1="-60.5" y1="2101" x2="-60.5" y2="2188.5"/>
</g>
<g>
	<path class="st5" d="M270,2007h-9.1v13.2h-13.5V2007h-9.9v35h9.9v-13.7h13.5v13.7h9.9v-27.3h18.4v15c0,1.7-0.4,2.9-1.1,3.8
		c-0.8,0.9-1.8,1.3-3.3,1.3c-2.2,0-4.2-1.2-6.1-3.6l-5.4,6.4c1.3,1.7,3,2.9,5.1,3.8s4.4,1.3,7,1.3c4.4,0,7.8-1.1,10.1-3.4
		c2.3-2.3,3.4-5.7,3.4-10.2V2007h-28.1H270z"/>
	<rect x="305.2" y="2014.9" class="st5" width="9.5" height="27.1"/>
	<path class="st5" d="M309.9,2001.8c-1.7,0-3.1,0.5-4.2,1.5c-1.1,1-1.6,2.2-1.6,3.6c0,1.4,0.5,2.6,1.6,3.6c1.1,1,2.5,1.5,4.2,1.5
		c1.7,0,3.1-0.5,4.2-1.5c1.1-1,1.6-2.2,1.6-3.7c0-1.4-0.5-2.6-1.6-3.5C313.1,2002.3,311.7,2001.8,309.9,2001.8z"/>
	<path class="st5" d="M338.5,2014.5c-1.7,0-3.3,0.3-4.8,0.9c-1.5,0.6-2.7,1.4-3.8,2.5v-2.9h-9.1v27.1h9.5v-13.1
		c0-2.1,0.5-3.7,1.5-4.8c1-1.1,2.3-1.6,3.9-1.6c3,0,4.4,1.8,4.4,5.5v14h9.5v-15.5c0-4-1-7-3.1-9
		C344.6,2015.5,341.9,2014.5,338.5,2014.5z"/>
	<path class="st5" d="M359.6,2004.5c-1.7,0-3,0.5-4.1,1.5c-1.1,1-1.6,2.4-1.6,4c0,1.1,0.3,2.1,0.8,3c0.5,0.8,1.2,1.5,2.2,1.9
		l-2.4,8.1h6l3.2-7.3c0.7-1.5,1.1-2.7,1.3-3.5c0.2-0.8,0.3-1.5,0.3-2.3c0-1.7-0.5-3-1.6-4C362.6,2005,361.2,2004.5,359.6,2004.5z"/>
	<path class="st5" d="M390.4,2028.7c-1.1-1.1-2.4-1.9-3.8-2.4c-1.5-0.4-3.3-0.8-5.6-1.1c-1.8-0.3-3-0.5-3.8-0.8
		c-0.8-0.3-1.1-0.7-1.1-1.3c0-0.6,0.4-1,1-1.4c0.7-0.3,1.8-0.5,3.3-0.5c2.8,0,5.4,0.7,7.8,2l2.9-6.5c-1.3-0.7-2.9-1.3-4.9-1.7
		c-1.9-0.4-3.9-0.6-5.9-0.6c-2.8,0-5.1,0.4-7.1,1.2c-2,0.8-3.5,1.8-4.5,3.2c-1,1.3-1.5,2.9-1.5,4.6c0,2.1,0.5,3.7,1.6,4.9
		c1.1,1.2,2.4,2,3.9,2.4c1.5,0.4,3.4,0.8,5.5,1c1.7,0.2,2.9,0.5,3.7,0.7c0.8,0.3,1.2,0.7,1.2,1.3c0,0.6-0.3,1.1-1,1.4
		c-0.6,0.3-1.7,0.5-3.3,0.5c-1.7,0-3.4-0.2-5.1-0.7c-1.7-0.4-3.2-1.1-4.4-1.8l-2.9,6.5c1.3,0.8,3.1,1.5,5.3,2
		c2.2,0.5,4.4,0.8,6.7,0.8c2.8,0,5.3-0.4,7.3-1.2c2-0.8,3.5-1.8,4.6-3.2c1-1.3,1.5-2.9,1.5-4.6
		C392,2031.5,391.5,2029.9,390.4,2028.7z"/>
</g>
<path class="st5" d="M322.5,2050c-9.7,19.8-30,33.5-53.5,33.5c-32.8,0-59.5-26.7-59.5-59.5s26.7-59.5,59.5-59.5
	c26.9,0,49.7,18,57,42.5h3.1c-7.4-26.2-31.6-45.5-60.1-45.5c-34.5,0-62.5,28-62.5,62.5s28,62.5,62.5,62.5c25.2,0,46.9-15,56.8-36.5
	H322.5z"/>
<g>
	<path class="st8" d="M270,2145h-9.1v13.2h-13.5V2145h-9.9v35h9.9v-13.7h13.5v13.7h9.9v-27.3h18.4v15c0,1.7-0.4,2.9-1.1,3.8
		c-0.8,0.9-1.8,1.3-3.3,1.3c-2.2,0-4.2-1.2-6.1-3.6l-5.4,6.4c1.3,1.7,3,2.9,5.1,3.8s4.4,1.3,7,1.3c4.4,0,7.8-1.1,10.1-3.4
		c2.3-2.3,3.4-5.7,3.4-10.2V2145h-28.1H270z"/>
	<rect x="305.2" y="2152.9" class="st8" width="9.5" height="27.1"/>
	<path class="st8" d="M309.9,2139.8c-1.7,0-3.1,0.5-4.2,1.5c-1.1,1-1.6,2.2-1.6,3.6c0,1.4,0.5,2.6,1.6,3.6c1.1,1,2.5,1.5,4.2,1.5
		c1.7,0,3.1-0.5,4.2-1.5c1.1-1,1.6-2.2,1.6-3.7c0-1.4-0.5-2.6-1.6-3.5C313.1,2140.3,311.7,2139.8,309.9,2139.8z"/>
	<path class="st8" d="M338.5,2152.5c-1.7,0-3.3,0.3-4.8,0.9c-1.5,0.6-2.7,1.4-3.8,2.5v-2.9h-9.1v27.1h9.5v-13.1
		c0-2.1,0.5-3.7,1.5-4.8c1-1.1,2.3-1.6,3.9-1.6c3,0,4.4,1.8,4.4,5.5v14h9.5v-15.5c0-4-1-7-3.1-9
		C344.6,2153.5,341.9,2152.5,338.5,2152.5z"/>
	<path class="st8" d="M359.6,2142.5c-1.7,0-3,0.5-4.1,1.5c-1.1,1-1.6,2.4-1.6,4c0,1.1,0.3,2.1,0.8,3c0.5,0.8,1.2,1.5,2.2,1.9
		l-2.4,8.1h6l3.2-7.3c0.7-1.5,1.1-2.7,1.3-3.5c0.2-0.8,0.3-1.5,0.3-2.3c0-1.7-0.5-3-1.6-4C362.6,2143,361.2,2142.5,359.6,2142.5z"/>
	<path class="st8" d="M390.4,2166.7c-1.1-1.1-2.4-1.9-3.8-2.4c-1.5-0.4-3.3-0.8-5.6-1.1c-1.8-0.3-3-0.5-3.8-0.8
		c-0.8-0.3-1.1-0.7-1.1-1.3c0-0.6,0.4-1,1-1.4c0.7-0.3,1.8-0.5,3.3-0.5c2.8,0,5.4,0.7,7.8,2l2.9-6.5c-1.3-0.7-2.9-1.3-4.9-1.7
		c-1.9-0.4-3.9-0.6-5.9-0.6c-2.8,0-5.1,0.4-7.1,1.2c-2,0.8-3.5,1.8-4.5,3.2c-1,1.3-1.5,2.9-1.5,4.6c0,2.1,0.5,3.7,1.6,4.9
		c1.1,1.2,2.4,2,3.9,2.4c1.5,0.4,3.4,0.8,5.5,1c1.7,0.2,2.9,0.5,3.7,0.7c0.8,0.3,1.2,0.7,1.2,1.3c0,0.6-0.3,1.1-1,1.4
		c-0.6,0.3-1.7,0.5-3.3,0.5c-1.7,0-3.4-0.2-5.1-0.7c-1.7-0.4-3.2-1.1-4.4-1.8l-2.9,6.5c1.3,0.8,3.1,1.5,5.3,2
		c2.2,0.5,4.4,0.8,6.7,0.8c2.8,0,5.3-0.4,7.3-1.2c2-0.8,3.5-1.8,4.6-3.2c1-1.3,1.5-2.9,1.5-4.6
		C392,2169.5,391.5,2167.9,390.4,2166.7z"/>
</g>
<path class="st8" d="M322.5,2188c-9.7,19.8-30,33.5-53.5,33.5c-32.8,0-59.5-26.7-59.5-59.5s26.7-59.5,59.5-59.5
	c26.9,0,49.7,18,57,42.5h3.1c-7.4-26.2-31.6-45.5-60.1-45.5c-34.5,0-62.5,28-62.5,62.5s28,62.5,62.5,62.5c25.2,0,46.9-15,56.8-36.5
	H322.5z"/>
<image style="overflow:visible;opacity:9.000000e-02;" width="1083" height="683" xlink:href="FEFC4DD7.jpg"  transform="matrix(0.9999 0 0 0.9999 935 1660)">
</image>
</svg>
