<?xml version="1.0" encoding="utf-8"?>
<!-- Generator: Adobe Illustrator 21.0.2, SVG Export Plug-In . SVG Version: 6.00 Build 0)  -->
<svg version="1.1" id="Layer_1" xmlns="http://www.w3.org/2000/svg" xmlns:xlink="http://www.w3.org/1999/xlink" x="0px" y="0px"
	 viewBox="0 0 669 679" style="enable-background:new 0 0 669 679;" xml:space="preserve">
<style type="text/css">
	.st0{fill:none;stroke:#FFFFFF;stroke-width:8;stroke-miterlimit:10;}
	.st1{fill-rule:evenodd;clip-rule:evenodd;fill:none;stroke:#FFFFFF;stroke-width:3;stroke-miterlimit:10;}
	.st2{fill:none;stroke:#FFFFFF;stroke-width:3;stroke-miterlimit:10;}
	.st3{clip-path:url(#SVGID_2_);}
	.st4{fill:url(#SVGID_3_);}
	.st5{fill:#FFFFFF;}
	.st6{fill:none;stroke:#FFFFFF;stroke-width:7;stroke-linecap:round;stroke-linejoin:round;stroke-miterlimit:10;}
	.st7{fill:none;stroke:url(#SVGID_4_);stroke-width:3;stroke-miterlimit:10;}
	.st8{fill:#1A68E5;}
</style>
<g>
	<g>
		<line class="st0" x1="340.2" y1="19.2" x2="13.8" y2="345.5"/>
	</g>
	<g>
		<line class="st0" x1="357.6" y1="36.7" x2="31.3" y2="363"/>
	</g>
	<g>
		<line class="st0" x1="375.1" y1="54.1" x2="48.8" y2="380.5"/>
	</g>
	<g>
		<line class="st0" x1="392.6" y1="71.6" x2="66.2" y2="398"/>
	</g>
	<g>
		<line class="st0" x1="410" y1="89.1" x2="83.7" y2="415.4"/>
	</g>
	<g>
		<line class="st0" x1="427.5" y1="106.6" x2="101.2" y2="432.9"/>
	</g>
	<g>
		<line class="st0" x1="445" y1="124" x2="118.7" y2="450.4"/>
	</g>
	<g>
		<line class="st0" x1="462.5" y1="141.5" x2="136.1" y2="467.8"/>
	</g>
	<g>
		<line class="st0" x1="479.9" y1="159" x2="153.6" y2="485.3"/>
	</g>
	<g>
		<line class="st0" x1="497.4" y1="176.5" x2="171.1" y2="502.8"/>
	</g>
	<g>
		<line class="st0" x1="514.9" y1="193.9" x2="188.5" y2="520.3"/>
	</g>
	<g>
		<line class="st0" x1="532.4" y1="211.4" x2="206" y2="537.7"/>
	</g>
	<g>
		<line class="st0" x1="549.8" y1="228.9" x2="223.5" y2="555.2"/>
	</g>
	<g>
		<line class="st0" x1="567.3" y1="246.3" x2="241" y2="572.7"/>
	</g>
	<g>
		<line class="st0" x1="584.8" y1="263.8" x2="258.4" y2="590.2"/>
	</g>
	<g>
		<line class="st0" x1="602.2" y1="281.3" x2="275.9" y2="607.6"/>
	</g>
	<g>
		<line class="st0" x1="619.7" y1="298.8" x2="293.4" y2="625.1"/>
	</g>
	<g>
		<line class="st0" x1="637.2" y1="316.2" x2="310.8" y2="642.6"/>
	</g>
	<g>
		<line class="st0" x1="654.7" y1="333.7" x2="328.3" y2="660"/>
	</g>
</g>
<rect x="-634.8" y="55.4" class="st1" width="535.5" height="535.5"/>
<g>
	<g>
		<line class="st2" x1="-1800.5" y1="873.5" x2="-2379.5" y2="1452.5"/>
	</g>
	<g>
		<line class="st2" x1="-1769.5" y1="904.5" x2="-2348.5" y2="1483.5"/>
	</g>
	<g>
		<line class="st2" x1="-1738.5" y1="935.5" x2="-2317.5" y2="1514.5"/>
	</g>
	<g>
		<line class="st2" x1="-1707.5" y1="966.5" x2="-2286.5" y2="1545.5"/>
	</g>
	<g>
		<line class="st2" x1="-1676.5" y1="997.5" x2="-2255.5" y2="1576.5"/>
	</g>
	<g>
		<line class="st2" x1="-1645.5" y1="1028.5" x2="-2224.5" y2="1607.5"/>
	</g>
	<g>
		<line class="st2" x1="-1614.5" y1="1059.5" x2="-2193.5" y2="1638.5"/>
	</g>
	<g>
		<line class="st2" x1="-1583.5" y1="1090.5" x2="-2162.5" y2="1669.5"/>
	</g>
	<g>
		<line class="st2" x1="-1552.5" y1="1121.5" x2="-2131.5" y2="1700.5"/>
	</g>
	<g>
		<line class="st2" x1="-1521.5" y1="1152.5" x2="-2100.5" y2="1731.5"/>
	</g>
	<g>
		<line class="st2" x1="-1490.5" y1="1183.5" x2="-2069.5" y2="1762.5"/>
	</g>
	<g>
		<line class="st2" x1="-1459.5" y1="1214.5" x2="-2038.5" y2="1793.5"/>
	</g>
	<g>
		<line class="st2" x1="-1428.5" y1="1245.5" x2="-2007.5" y2="1824.5"/>
	</g>
	<g>
		<line class="st2" x1="-1397.5" y1="1276.5" x2="-1976.5" y2="1855.5"/>
	</g>
	<g>
		<line class="st2" x1="-1366.5" y1="1307.5" x2="-1945.5" y2="1886.5"/>
	</g>
	<g>
		<line class="st2" x1="-1335.5" y1="1338.5" x2="-1914.5" y2="1917.5"/>
	</g>
	<g>
		<line class="st2" x1="-1304.5" y1="1369.5" x2="-1883.5" y2="1948.5"/>
	</g>
	<g>
		<line class="st2" x1="-1273.5" y1="1400.5" x2="-1852.5" y2="1979.5"/>
	</g>
	<g>
		<line class="st2" x1="-1242.5" y1="1431.5" x2="-1821.5" y2="2010.5"/>
	</g>
</g>
<g>
	<defs>
		<circle id="SVGID_1_" cx="-1101" cy="419" r="387"/>
	</defs>
	<clipPath id="SVGID_2_">
		<use xlink:href="#SVGID_1_"  style="overflow:visible;"/>
	</clipPath>
	<g class="st3">
		<g>
			<line class="st2" x1="-1090.5" y1="-149.5" x2="-1669.5" y2="429.5"/>
		</g>
		<g>
			<line class="st2" x1="-1059.5" y1="-118.5" x2="-1638.5" y2="460.5"/>
		</g>
		<g>
			<line class="st2" x1="-1028.5" y1="-87.5" x2="-1607.5" y2="491.5"/>
		</g>
		<g>
			<line class="st2" x1="-997.5" y1="-56.5" x2="-1576.5" y2="522.5"/>
		</g>
		<g>
			<line class="st2" x1="-966.5" y1="-25.5" x2="-1545.5" y2="553.5"/>
		</g>
		<g>
			<line class="st2" x1="-935.5" y1="5.5" x2="-1514.5" y2="584.5"/>
		</g>
		<g>
			<line class="st2" x1="-904.5" y1="36.5" x2="-1483.5" y2="615.5"/>
		</g>
		<g>
			<line class="st2" x1="-873.5" y1="67.5" x2="-1452.5" y2="646.5"/>
		</g>
		<g>
			<line class="st2" x1="-842.5" y1="98.5" x2="-1421.5" y2="677.5"/>
		</g>
		<g>
			<line class="st2" x1="-811.5" y1="129.5" x2="-1390.5" y2="708.5"/>
		</g>
		<g>
			<line class="st2" x1="-780.5" y1="160.5" x2="-1359.5" y2="739.5"/>
		</g>
		<g>
			<line class="st2" x1="-749.5" y1="191.5" x2="-1328.5" y2="770.5"/>
		</g>
		<g>
			<line class="st2" x1="-718.5" y1="222.5" x2="-1297.5" y2="801.5"/>
		</g>
		<g>
			<line class="st2" x1="-687.5" y1="253.5" x2="-1266.5" y2="832.5"/>
		</g>
		<g>
			<line class="st2" x1="-656.5" y1="284.5" x2="-1235.5" y2="863.5"/>
		</g>
		<g>
			<line class="st2" x1="-625.5" y1="315.5" x2="-1204.5" y2="894.5"/>
		</g>
		<g>
			<line class="st2" x1="-594.5" y1="346.5" x2="-1173.5" y2="925.5"/>
		</g>
		<g>
			<line class="st2" x1="-563.5" y1="377.5" x2="-1142.5" y2="956.5"/>
		</g>
		<g>
			<line class="st2" x1="-532.5" y1="408.5" x2="-1111.5" y2="987.5"/>
		</g>
	</g>
</g>
<g>
	
		<image style="overflow:visible;opacity:0.4;" width="561" height="327" xlink:href="1C7B61DC.png"  transform="matrix(1 0 0 1 -1096 1538)">
	</image>
	<g>
		<linearGradient id="SVGID_3_" gradientUnits="userSpaceOnUse" x1="-1028.2645" y1="1794.9572" x2="-604.8469" y2="1657.3804">
			<stop  offset="0" style="stop-color:#FFFFFF;stop-opacity:0"/>
			<stop  offset="1" style="stop-color:#FFFFFF"/>
		</linearGradient>
		<path class="st4" d="M-554.2,1847.5c0-3.5-0.3-7.2-0.6-10.8c-0.3-3.6-0.8-7.2-1.3-10.8c-1.1-7.2-2.5-14.3-4.2-21.4
			c-3.4-14.1-7.9-28-13.2-41.5c-5.3-13.5-11.5-26.7-18.6-39.4c-7.1-12.7-15-24.9-23.7-36.6l-6.6-8.6l-7-8.3
			c-2.3-2.8-4.8-5.4-7.3-8.1c-2.5-2.7-4.9-5.4-7.5-7.9l-7.8-7.6c-2.7-2.5-5.4-4.8-8.1-7.3l-4.1-3.6l-4.3-3.4l-8.5-6.8
			c-23.3-17.5-48.7-32-75.5-43.4c-1.6-0.8-3.3-1.4-5-2.1l-5.1-2c-3.4-1.3-6.8-2.7-10.2-3.9l-10.4-3.4c-3.5-1.1-6.9-2.3-10.4-3.2
			l-10.5-2.9l-2.6-0.7c-0.9-0.2-1.8-0.4-2.7-0.6l-5.3-1.2l-5.3-1.2c-1.8-0.4-3.5-0.8-5.3-1.1l-10.8-1.8c-3.6-0.7-7.2-1-10.8-1.4
			l-5.4-0.6c-1.8-0.2-3.6-0.4-5.4-0.5l-10.9-0.7l-2.7-0.2l-2.7,0l-5.5-0.1c-7.3-0.2-14.6,0.3-21.8,0.5l-10.9,0.9l-2.7,0.2
			c-0.9,0.1-1.8,0.2-2.7,0.3l-5.4,0.7c-14.4,2-28.7,4.9-42.7,9c-14,4-27.7,9-41,14.9c-13.3,5.9-26.2,12.7-38.6,20.4
			c-6.2,3.8-12.2,7.9-18.1,12.2c-5.9,4.3-11.6,8.8-17,13.7c5.4-4.9,11.1-9.4,17-13.7c5.9-4.3,11.9-8.4,18.1-12.2
			c12.3-7.7,25.3-14.5,38.6-20.5c13.3-5.9,27-11,41-15c14-4.1,28.3-7,42.7-9l5.4-0.7c0.9-0.1,1.8-0.3,2.7-0.4l2.7-0.2l10.9-1
			c7.3-0.3,14.6-0.8,21.8-0.5l5.5,0l2.7,0l2.7,0.2l10.9,0.6c1.8,0.1,3.6,0.3,5.4,0.5l5.4,0.6c3.6,0.4,7.3,0.7,10.8,1.4l10.8,1.8
			c1.8,0.3,3.6,0.7,5.4,1.1l5.3,1.2l5.3,1.2c0.9,0.2,1.8,0.4,2.7,0.6l2.6,0.7l10.5,2.9c3.5,0.9,7,2.1,10.4,3.2l10.4,3.4
			c3.4,1.3,6.8,2.6,10.2,3.9l5.1,2c1.7,0.7,3.4,1.3,5.1,2.1c26.8,11.4,52.4,25.9,75.7,43.4l8.5,6.8l4.3,3.4l4.1,3.6
			c2.7,2.4,5.5,4.8,8.2,7.3l7.8,7.6c2.7,2.5,5.1,5.2,7.6,7.9c2.5,2.7,5,5.3,7.3,8.1l7.1,8.4l6.7,8.7c8.7,11.7,16.7,23.9,23.9,36.6
			c7.1,12.7,13.3,26,18.7,39.5c5.4,13.6,9.9,27.5,13.5,41.6l1.4,5.3l1.2,5.3c0.4,1.8,0.8,3.6,1.2,5.3c0.4,1.8,0.8,3.6,1.1,5.4
			c1.4,7.2,2.7,14.3,3.6,21.7c0.1,1-0.6,1.9-1.6,2s-1.9-0.6-2-1.6C-554.2,1847.7-554.2,1847.7-554.2,1847.5L-554.2,1847.5z"/>
	</g>
</g>
<g>
	<path class="st5" d="M-712.5,2062.5c12.1,0,22,9.9,22,22v25c0,12.1-9.9,22-22,22h-4c-12.1,0-22-9.9-22-22v-25c0-12.1,9.9-22,22-22
		H-712.5 M-712.5,2059.5h-4c-13.8,0-25,11.2-25,25v25c0,13.8,11.2,25,25,25h4c13.8,0,25-11.2,25-25v-25
		C-687.5,2070.7-698.7,2059.5-712.5,2059.5L-712.5,2059.5z"/>
</g>
<g>
	<line class="st6" x1="-714.5" y1="2082.5" x2="-714.5" y2="2089.5"/>
</g>
<g>
	<linearGradient id="SVGID_4_" gradientUnits="userSpaceOnUse" x1="-714.5" y1="2220.5" x2="-714.5" y2="2133">
		<stop  offset="0" style="stop-color:#FFFFFF;stop-opacity:0"/>
		<stop  offset="1" style="stop-color:#FFFFFF"/>
	</linearGradient>
	<line class="st7" x1="-714.5" y1="2133" x2="-714.5" y2="2220.5"/>
</g>
<g>
	<path class="st5" d="M-384,2039h-9.1v13.2h-13.5V2039h-9.9v35h9.9v-13.7h13.5v13.7h9.9v-27.3h18.4v15c0,1.7-0.4,2.9-1.1,3.8
		c-0.8,0.9-1.8,1.3-3.3,1.3c-2.2,0-4.2-1.2-6.1-3.6l-5.4,6.4c1.3,1.7,3,2.9,5.1,3.8s4.4,1.3,7,1.3c4.4,0,7.8-1.1,10.1-3.4
		c2.3-2.3,3.4-5.7,3.4-10.2V2039h-28.1H-384z"/>
	<rect x="-348.8" y="2046.9" class="st5" width="9.5" height="27.1"/>
	<path class="st5" d="M-344.1,2033.8c-1.7,0-3.1,0.5-4.2,1.5c-1.1,1-1.6,2.2-1.6,3.6c0,1.4,0.5,2.6,1.6,3.6c1.1,1,2.5,1.5,4.2,1.5
		c1.7,0,3.1-0.5,4.2-1.5c1.1-1,1.6-2.2,1.6-3.7c0-1.4-0.5-2.6-1.6-3.5C-340.9,2034.3-342.3,2033.8-344.1,2033.8z"/>
	<path class="st5" d="M-315.5,2046.5c-1.7,0-3.3,0.3-4.8,0.9c-1.5,0.6-2.7,1.4-3.8,2.5v-2.9h-9.1v27.1h9.5v-13.1
		c0-2.1,0.5-3.7,1.5-4.8c1-1.1,2.3-1.6,3.9-1.6c3,0,4.4,1.8,4.4,5.5v14h9.5v-15.5c0-4-1-7-3.1-9
		C-309.4,2047.5-312.1,2046.5-315.5,2046.5z"/>
	<path class="st5" d="M-294.4,2036.5c-1.7,0-3,0.5-4.1,1.5c-1.1,1-1.6,2.4-1.6,4c0,1.1,0.3,2.1,0.8,3c0.5,0.8,1.2,1.5,2.2,1.9
		l-2.4,8.1h6l3.2-7.3c0.7-1.5,1.1-2.7,1.3-3.5c0.2-0.8,0.3-1.5,0.3-2.3c0-1.7-0.5-3-1.6-4C-291.4,2037-292.8,2036.5-294.4,2036.5z"
		/>
	<path class="st5" d="M-263.6,2060.7c-1.1-1.1-2.4-1.9-3.8-2.4c-1.5-0.4-3.3-0.8-5.6-1.1c-1.8-0.3-3-0.5-3.8-0.8
		c-0.8-0.3-1.1-0.7-1.1-1.3c0-0.6,0.4-1,1-1.4c0.7-0.3,1.8-0.5,3.3-0.5c2.8,0,5.4,0.7,7.8,2l2.9-6.5c-1.3-0.7-2.9-1.3-4.9-1.7
		c-1.9-0.4-3.9-0.6-5.9-0.6c-2.8,0-5.1,0.4-7.1,1.2c-2,0.8-3.5,1.8-4.5,3.2c-1,1.3-1.5,2.9-1.5,4.6c0,2.1,0.5,3.7,1.6,4.9
		c1.1,1.2,2.4,2,3.9,2.4c1.5,0.4,3.4,0.8,5.5,1c1.7,0.2,2.9,0.5,3.7,0.7c0.8,0.3,1.2,0.7,1.2,1.3c0,0.6-0.3,1.1-1,1.4
		c-0.6,0.3-1.7,0.5-3.3,0.5c-1.7,0-3.4-0.2-5.1-0.7c-1.7-0.4-3.2-1.1-4.4-1.8l-2.9,6.5c1.3,0.8,3.1,1.5,5.3,2
		c2.2,0.5,4.4,0.8,6.7,0.8c2.8,0,5.3-0.4,7.3-1.2c2-0.8,3.5-1.8,4.6-3.2c1-1.3,1.5-2.9,1.5-4.6
		C-262,2063.5-262.5,2061.9-263.6,2060.7z"/>
</g>
<path class="st5" d="M-331.5,2082c-9.7,19.8-30,33.5-53.5,33.5c-32.8,0-59.5-26.7-59.5-59.5s26.7-59.5,59.5-59.5
	c26.9,0,49.7,18,57,42.5h3.1c-7.4-26.2-31.6-45.5-60.1-45.5c-34.5,0-62.5,28-62.5,62.5s28,62.5,62.5,62.5c25.2,0,46.9-15,56.8-36.5
	H-331.5z"/>
<g>
	<path class="st8" d="M-384,2177h-9.1v13.2h-13.5V2177h-9.9v35h9.9v-13.7h13.5v13.7h9.9v-27.3h18.4v15c0,1.7-0.4,2.9-1.1,3.8
		c-0.8,0.9-1.8,1.3-3.3,1.3c-2.2,0-4.2-1.2-6.1-3.6l-5.4,6.4c1.3,1.7,3,2.9,5.1,3.8s4.4,1.3,7,1.3c4.4,0,7.8-1.1,10.1-3.4
		c2.3-2.3,3.4-5.7,3.4-10.2V2177h-28.1H-384z"/>
	<rect x="-348.8" y="2184.9" class="st8" width="9.5" height="27.1"/>
	<path class="st8" d="M-344.1,2171.8c-1.7,0-3.1,0.5-4.2,1.5c-1.1,1-1.6,2.2-1.6,3.6c0,1.4,0.5,2.6,1.6,3.6c1.1,1,2.5,1.5,4.2,1.5
		c1.7,0,3.1-0.5,4.2-1.5c1.1-1,1.6-2.2,1.6-3.7c0-1.4-0.5-2.6-1.6-3.5C-340.9,2172.3-342.3,2171.8-344.1,2171.8z"/>
	<path class="st8" d="M-315.5,2184.5c-1.7,0-3.3,0.3-4.8,0.9c-1.5,0.6-2.7,1.4-3.8,2.5v-2.9h-9.1v27.1h9.5v-13.1
		c0-2.1,0.5-3.7,1.5-4.8c1-1.1,2.3-1.6,3.9-1.6c3,0,4.4,1.8,4.4,5.5v14h9.5v-15.5c0-4-1-7-3.1-9
		C-309.4,2185.5-312.1,2184.5-315.5,2184.5z"/>
	<path class="st8" d="M-294.4,2174.5c-1.7,0-3,0.5-4.1,1.5c-1.1,1-1.6,2.4-1.6,4c0,1.1,0.3,2.1,0.8,3c0.5,0.8,1.2,1.5,2.2,1.9
		l-2.4,8.1h6l3.2-7.3c0.7-1.5,1.1-2.7,1.3-3.5c0.2-0.8,0.3-1.5,0.3-2.3c0-1.7-0.5-3-1.6-4C-291.4,2175-292.8,2174.5-294.4,2174.5z"
		/>
	<path class="st8" d="M-263.6,2198.7c-1.1-1.1-2.4-1.9-3.8-2.4c-1.5-0.4-3.3-0.8-5.6-1.1c-1.8-0.3-3-0.5-3.8-0.8
		c-0.8-0.3-1.1-0.7-1.1-1.3c0-0.6,0.4-1,1-1.4c0.7-0.3,1.8-0.5,3.3-0.5c2.8,0,5.4,0.7,7.8,2l2.9-6.5c-1.3-0.7-2.9-1.3-4.9-1.7
		c-1.9-0.4-3.9-0.6-5.9-0.6c-2.8,0-5.1,0.4-7.1,1.2c-2,0.8-3.5,1.8-4.5,3.2c-1,1.3-1.5,2.9-1.5,4.6c0,2.1,0.5,3.7,1.6,4.9
		c1.1,1.2,2.4,2,3.9,2.4c1.5,0.4,3.4,0.8,5.5,1c1.7,0.2,2.9,0.5,3.7,0.7c0.8,0.3,1.2,0.7,1.2,1.3c0,0.6-0.3,1.1-1,1.4
		c-0.6,0.3-1.7,0.5-3.3,0.5c-1.7,0-3.4-0.2-5.1-0.7c-1.7-0.4-3.2-1.1-4.4-1.8l-2.9,6.5c1.3,0.8,3.1,1.5,5.3,2
		c2.2,0.5,4.4,0.8,6.7,0.8c2.8,0,5.3-0.4,7.3-1.2c2-0.8,3.5-1.8,4.6-3.2c1-1.3,1.5-2.9,1.5-4.6
		C-262,2201.5-262.5,2199.9-263.6,2198.7z"/>
</g>
<path class="st8" d="M-331.5,2220c-9.7,19.8-30,33.5-53.5,33.5c-32.8,0-59.5-26.7-59.5-59.5s26.7-59.5,59.5-59.5
	c26.9,0,49.7,18,57,42.5h3.1c-7.4-26.2-31.6-45.5-60.1-45.5c-34.5,0-62.5,28-62.5,62.5s28,62.5,62.5,62.5c25.2,0,46.9-15,56.8-36.5
	H-331.5z"/>
<image style="overflow:visible;opacity:9.000000e-02;" width="1083" height="683" xlink:href="1C7B61DC.jpg"  transform="matrix(0.9999 0 0 0.9999 281 1692)">
</image>
</svg>
