<?xml version="1.0" encoding="utf-8"?>
<!-- Generator: Adobe Illustrator 21.0.2, SVG Export Plug-In . SVG Version: 6.00 Build 0)  -->
<svg version="1.1" id="Layer_1" xmlns="http://www.w3.org/2000/svg" xmlns:xlink="http://www.w3.org/1999/xlink" x="0px" y="0px"
	 viewBox="0 0 1168 1168" style="enable-background:new 0 0 1168 1168;" xml:space="preserve">
<style type="text/css">
	.st0{fill:none;stroke:#FFFFFF;stroke-width:8;stroke-miterlimit:10;}
	.st1{fill-rule:evenodd;clip-rule:evenodd;fill:none;stroke:#FFFFFF;stroke-width:3;stroke-miterlimit:10;}
	.st2{fill:none;stroke:#FFFFFF;stroke-width:3;stroke-miterlimit:10;}
	.st3{clip-path:url(#SVGID_2_);}
	.st4{fill:url(#SVGID_3_);}
	.st5{fill:#FFFFFF;}
	.st6{fill:none;stroke:#FFFFFF;stroke-width:7;stroke-linecap:round;stroke-linejoin:round;stroke-miterlimit:10;}
	.st7{fill:none;stroke:url(#SVGID_4_);stroke-width:3;stroke-miterlimit:10;}
	.st8{fill:#1A68E5;}
</style>
<g>
	<g>
		<line class="st0" x1="2734.7" y1="-838.3" x2="2408.3" y2="-512"/>
	</g>
	<g>
		<line class="st0" x1="2752.1" y1="-820.8" x2="2425.8" y2="-494.5"/>
	</g>
	<g>
		<line class="st0" x1="2769.6" y1="-803.4" x2="2443.3" y2="-477"/>
	</g>
	<g>
		<line class="st0" x1="2787.1" y1="-785.9" x2="2460.7" y2="-459.5"/>
	</g>
	<g>
		<line class="st0" x1="2804.5" y1="-768.4" x2="2478.2" y2="-442.1"/>
	</g>
	<g>
		<line class="st0" x1="2822" y1="-750.9" x2="2495.7" y2="-424.6"/>
	</g>
	<g>
		<line class="st0" x1="2839.5" y1="-733.5" x2="2513.2" y2="-407.1"/>
	</g>
	<g>
		<line class="st0" x1="2857" y1="-716" x2="2530.6" y2="-389.7"/>
	</g>
	<g>
		<line class="st0" x1="2874.4" y1="-698.5" x2="2548.1" y2="-372.2"/>
	</g>
	<g>
		<line class="st0" x1="2891.9" y1="-681" x2="2565.6" y2="-354.7"/>
	</g>
	<g>
		<line class="st0" x1="2909.4" y1="-663.6" x2="2583" y2="-337.2"/>
	</g>
	<g>
		<line class="st0" x1="2926.8" y1="-646.1" x2="2600.5" y2="-319.8"/>
	</g>
	<g>
		<line class="st0" x1="2944.3" y1="-628.6" x2="2618" y2="-302.3"/>
	</g>
	<g>
		<line class="st0" x1="2961.8" y1="-611.2" x2="2635.5" y2="-284.8"/>
	</g>
	<g>
		<line class="st0" x1="2979.3" y1="-593.7" x2="2652.9" y2="-267.3"/>
	</g>
	<g>
		<line class="st0" x1="2996.7" y1="-576.2" x2="2670.4" y2="-249.9"/>
	</g>
	<g>
		<line class="st0" x1="3014.2" y1="-558.7" x2="2687.9" y2="-232.4"/>
	</g>
	<g>
		<line class="st0" x1="3031.7" y1="-541.3" x2="2705.3" y2="-214.9"/>
	</g>
	<g>
		<line class="st0" x1="3049.2" y1="-523.8" x2="2722.8" y2="-197.5"/>
	</g>
</g>
<rect x="1759.7" y="-802.1" class="st1" width="535.5" height="535.5"/>
<g>
	<g>
		<line class="st2" x1="594" y1="16" x2="15" y2="595"/>
	</g>
	<g>
		<line class="st2" x1="625" y1="47" x2="46" y2="626"/>
	</g>
	<g>
		<line class="st2" x1="656" y1="78" x2="77" y2="657"/>
	</g>
	<g>
		<line class="st2" x1="687" y1="109" x2="108" y2="688"/>
	</g>
	<g>
		<line class="st2" x1="718" y1="140" x2="139" y2="719"/>
	</g>
	<g>
		<line class="st2" x1="749" y1="171" x2="170" y2="750"/>
	</g>
	<g>
		<line class="st2" x1="780" y1="202" x2="201" y2="781"/>
	</g>
	<g>
		<line class="st2" x1="811" y1="233" x2="232" y2="812"/>
	</g>
	<g>
		<line class="st2" x1="842" y1="264" x2="263" y2="843"/>
	</g>
	<g>
		<line class="st2" x1="873" y1="295" x2="294" y2="874"/>
	</g>
	<g>
		<line class="st2" x1="904" y1="326" x2="325" y2="905"/>
	</g>
	<g>
		<line class="st2" x1="935" y1="357" x2="356" y2="936"/>
	</g>
	<g>
		<line class="st2" x1="966" y1="388" x2="387" y2="967"/>
	</g>
	<g>
		<line class="st2" x1="997" y1="419" x2="418" y2="998"/>
	</g>
	<g>
		<line class="st2" x1="1028" y1="450" x2="449" y2="1029"/>
	</g>
	<g>
		<line class="st2" x1="1059" y1="481" x2="480" y2="1060"/>
	</g>
	<g>
		<line class="st2" x1="1090" y1="512" x2="511" y2="1091"/>
	</g>
	<g>
		<line class="st2" x1="1121" y1="543" x2="542" y2="1122"/>
	</g>
	<g>
		<line class="st2" x1="1152" y1="574" x2="573" y2="1153"/>
	</g>
</g>
<g>
	<defs>
		<circle id="SVGID_1_" cx="1293.5" cy="-438.5" r="387"/>
	</defs>
	<clipPath id="SVGID_2_">
		<use xlink:href="#SVGID_1_"  style="overflow:visible;"/>
	</clipPath>
	<g class="st3">
		<g>
			<line class="st2" x1="1304" y1="-1007" x2="725" y2="-428"/>
		</g>
		<g>
			<line class="st2" x1="1335" y1="-976" x2="756" y2="-397"/>
		</g>
		<g>
			<line class="st2" x1="1366" y1="-945" x2="787" y2="-366"/>
		</g>
		<g>
			<line class="st2" x1="1397" y1="-914" x2="818" y2="-335"/>
		</g>
		<g>
			<line class="st2" x1="1428" y1="-883" x2="849" y2="-304"/>
		</g>
		<g>
			<line class="st2" x1="1459" y1="-852" x2="880" y2="-273"/>
		</g>
		<g>
			<line class="st2" x1="1490" y1="-821" x2="911" y2="-242"/>
		</g>
		<g>
			<line class="st2" x1="1521" y1="-790" x2="942" y2="-211"/>
		</g>
		<g>
			<line class="st2" x1="1552" y1="-759" x2="973" y2="-180"/>
		</g>
		<g>
			<line class="st2" x1="1583" y1="-728" x2="1004" y2="-149"/>
		</g>
		<g>
			<line class="st2" x1="1614" y1="-697" x2="1035" y2="-118"/>
		</g>
		<g>
			<line class="st2" x1="1645" y1="-666" x2="1066" y2="-87"/>
		</g>
		<g>
			<line class="st2" x1="1676" y1="-635" x2="1097" y2="-56"/>
		</g>
		<g>
			<line class="st2" x1="1707" y1="-604" x2="1128" y2="-25"/>
		</g>
		<g>
			<line class="st2" x1="1738" y1="-573" x2="1159" y2="6"/>
		</g>
		<g>
			<line class="st2" x1="1769" y1="-542" x2="1190" y2="37"/>
		</g>
		<g>
			<line class="st2" x1="1800" y1="-511" x2="1221" y2="68"/>
		</g>
		<g>
			<line class="st2" x1="1831" y1="-480" x2="1252" y2="99"/>
		</g>
		<g>
			<line class="st2" x1="1862" y1="-449" x2="1283" y2="130"/>
		</g>
	</g>
</g>
<g>
	
		<image style="overflow:visible;opacity:0.4;" width="561" height="327" xlink:href="188E7252.png"  transform="matrix(1 0 0 1 1298.4978 680.4977)">
	</image>
	<g>
		<linearGradient id="SVGID_3_" gradientUnits="userSpaceOnUse" x1="1366.2333" y1="937.4549" x2="1789.6509" y2="799.8782">
			<stop  offset="0" style="stop-color:#FFFFFF;stop-opacity:0"/>
			<stop  offset="1" style="stop-color:#FFFFFF"/>
		</linearGradient>
		<path class="st4" d="M1840.3,990c0-3.5-0.3-7.2-0.6-10.8c-0.3-3.6-0.8-7.2-1.3-10.8c-1.1-7.2-2.5-14.3-4.2-21.4
			c-3.4-14.1-7.9-28-13.2-41.5c-5.3-13.5-11.5-26.7-18.6-39.4c-7.1-12.7-15-24.9-23.7-36.6l-6.6-8.6l-7-8.3
			c-2.3-2.8-4.8-5.4-7.3-8.1c-2.5-2.7-4.9-5.4-7.5-7.9l-7.8-7.6c-2.7-2.5-5.4-4.8-8.1-7.3l-4.1-3.6l-4.3-3.4l-8.5-6.8
			c-23.3-17.5-48.7-32-75.5-43.4c-1.6-0.8-3.3-1.4-5-2.1l-5.1-2c-3.4-1.3-6.8-2.7-10.2-3.9l-10.4-3.4c-3.5-1.1-6.9-2.3-10.4-3.2
			l-10.5-2.9l-2.6-0.7c-0.9-0.2-1.8-0.4-2.7-0.6l-5.3-1.2l-5.3-1.2c-1.8-0.4-3.5-0.8-5.3-1.1l-10.8-1.8c-3.6-0.7-7.2-1-10.8-1.4
			l-5.4-0.6c-1.8-0.2-3.6-0.4-5.4-0.5l-10.9-0.7l-2.7-0.2l-2.7,0l-5.5-0.1c-7.3-0.2-14.6,0.3-21.8,0.5l-10.9,0.9l-2.7,0.2
			c-0.9,0.1-1.8,0.2-2.7,0.3l-5.4,0.7c-14.4,2-28.7,4.9-42.7,9c-14,4-27.7,9-41,14.9c-13.3,5.9-26.2,12.7-38.6,20.4
			c-6.2,3.8-12.2,7.9-18.1,12.2c-5.9,4.3-11.6,8.8-17,13.7c5.4-4.9,11.1-9.4,17-13.7c5.9-4.3,11.9-8.4,18.1-12.2
			c12.3-7.7,25.3-14.5,38.6-20.5c13.3-5.9,27-11,41-15c14-4.1,28.3-7,42.7-9l5.4-0.7c0.9-0.1,1.8-0.3,2.7-0.4l2.7-0.2l10.9-1
			c7.3-0.3,14.6-0.8,21.8-0.5l5.5,0l2.7,0l2.7,0.2l10.9,0.6c1.8,0.1,3.6,0.3,5.4,0.5l5.4,0.6c3.6,0.4,7.3,0.7,10.8,1.4l10.8,1.8
			c1.8,0.3,3.6,0.7,5.4,1.1l5.3,1.2l5.3,1.2c0.9,0.2,1.8,0.4,2.7,0.6l2.6,0.7l10.5,2.9c3.5,0.9,7,2.1,10.4,3.2l10.4,3.4
			c3.4,1.3,6.8,2.6,10.2,3.9l5.1,2c1.7,0.7,3.4,1.3,5.1,2.1c26.8,11.4,52.4,25.9,75.7,43.4l8.5,6.8l4.3,3.4l4.1,3.6
			c2.7,2.4,5.5,4.8,8.2,7.3l7.8,7.6c2.7,2.5,5.1,5.2,7.6,7.9c2.5,2.7,5,5.3,7.3,8.1l7.1,8.4l6.7,8.7c8.7,11.7,16.7,23.9,23.9,36.6
			c7.1,12.7,13.3,26,18.7,39.5c5.4,13.6,9.9,27.5,13.5,41.6l1.4,5.3l1.2,5.3c0.4,1.8,0.8,3.6,1.2,5.3c0.4,1.8,0.8,3.6,1.1,5.4
			c1.4,7.2,2.7,14.3,3.6,21.7c0.1,1-0.6,1.9-1.6,2s-1.9-0.6-2-1.6C1840.3,990.2,1840.3,990.2,1840.3,990L1840.3,990z"/>
	</g>
</g>
<g>
	<path class="st5" d="M1682,1205c12.1,0,22,9.9,22,22v25c0,12.1-9.9,22-22,22h-4c-12.1,0-22-9.9-22-22v-25c0-12.1,9.9-22,22-22H1682
		 M1682,1202h-4c-13.8,0-25,11.2-25,25v25c0,13.8,11.2,25,25,25h4c13.8,0,25-11.2,25-25v-25C1707,1213.2,1695.8,1202,1682,1202
		L1682,1202z"/>
</g>
<g>
	<line class="st6" x1="1680" y1="1225" x2="1680" y2="1232"/>
</g>
<g>
	<linearGradient id="SVGID_4_" gradientUnits="userSpaceOnUse" x1="1679.9978" y1="1362.9978" x2="1679.9978" y2="1275.4978">
		<stop  offset="0" style="stop-color:#FFFFFF;stop-opacity:0"/>
		<stop  offset="1" style="stop-color:#FFFFFF"/>
	</linearGradient>
	<line class="st7" x1="1680" y1="1275.5" x2="1680" y2="1363"/>
</g>
<g>
	<path class="st5" d="M2010.5,1181.5h-9.1v13.2h-13.5v-13.2h-9.9v35h9.9v-13.7h13.5v13.7h9.9v-27.3h18.4v15c0,1.7-0.4,2.9-1.1,3.8
		c-0.8,0.9-1.8,1.3-3.3,1.3c-2.2,0-4.2-1.2-6.1-3.6l-5.4,6.4c1.3,1.7,3,2.9,5.1,3.8s4.4,1.3,7,1.3c4.4,0,7.8-1.1,10.1-3.4
		c2.3-2.3,3.4-5.7,3.4-10.2v-22.1h-28.1H2010.5z"/>
	<rect x="2045.7" y="1189.4" class="st5" width="9.5" height="27.1"/>
	<path class="st5" d="M2050.4,1176.3c-1.7,0-3.1,0.5-4.2,1.5c-1.1,1-1.6,2.2-1.6,3.6c0,1.4,0.5,2.6,1.6,3.6c1.1,1,2.5,1.5,4.2,1.5
		c1.7,0,3.1-0.5,4.2-1.5c1.1-1,1.6-2.2,1.6-3.7c0-1.4-0.5-2.6-1.6-3.5C2053.6,1176.8,2052.2,1176.3,2050.4,1176.3z"/>
	<path class="st5" d="M2079,1188.9c-1.7,0-3.3,0.3-4.8,0.9c-1.5,0.6-2.7,1.4-3.8,2.5v-2.9h-9.1v27.1h9.5v-13.1
		c0-2.1,0.5-3.7,1.5-4.8c1-1.1,2.3-1.6,3.9-1.6c3,0,4.4,1.8,4.4,5.5v14h9.5V1201c0-4-1-7-3.1-9
		C2085.1,1189.9,2082.4,1188.9,2079,1188.9z"/>
	<path class="st5" d="M2100.1,1178.9c-1.7,0-3,0.5-4.1,1.5c-1.1,1-1.6,2.4-1.6,4c0,1.1,0.3,2.1,0.8,3c0.5,0.8,1.2,1.5,2.2,1.9
		l-2.4,8.1h6l3.2-7.3c0.7-1.5,1.1-2.7,1.3-3.5c0.2-0.8,0.3-1.5,0.3-2.3c0-1.7-0.5-3-1.6-4
		C2103.1,1179.5,2101.7,1178.9,2100.1,1178.9z"/>
	<path class="st5" d="M2130.9,1203.2c-1.1-1.1-2.4-1.9-3.8-2.4c-1.5-0.4-3.3-0.8-5.6-1.1c-1.8-0.3-3-0.5-3.8-0.8
		c-0.8-0.3-1.1-0.7-1.1-1.3c0-0.6,0.4-1,1-1.4c0.7-0.3,1.8-0.5,3.3-0.5c2.8,0,5.4,0.7,7.8,2l2.9-6.5c-1.3-0.7-2.9-1.3-4.9-1.7
		c-1.9-0.4-3.9-0.6-5.9-0.6c-2.8,0-5.1,0.4-7.1,1.2c-2,0.8-3.5,1.8-4.5,3.2c-1,1.3-1.5,2.9-1.5,4.6c0,2.1,0.5,3.7,1.6,4.9
		c1.1,1.2,2.4,2,3.9,2.4c1.5,0.4,3.4,0.8,5.5,1c1.7,0.2,2.9,0.5,3.7,0.7c0.8,0.3,1.2,0.7,1.2,1.3c0,0.6-0.3,1.1-1,1.4
		c-0.6,0.3-1.7,0.5-3.3,0.5c-1.7,0-3.4-0.2-5.1-0.7c-1.7-0.4-3.2-1.1-4.4-1.8l-2.9,6.5c1.3,0.8,3.1,1.5,5.3,2
		c2.2,0.5,4.4,0.8,6.7,0.8c2.8,0,5.3-0.4,7.3-1.2c2-0.8,3.5-1.8,4.6-3.2c1-1.3,1.5-2.9,1.5-4.6
		C2132.5,1206,2132,1204.4,2130.9,1203.2z"/>
</g>
<path class="st5" d="M2063,1224.5c-9.7,19.8-30,33.5-53.5,33.5c-32.8,0-59.5-26.7-59.5-59.5s26.7-59.5,59.5-59.5
	c26.9,0,49.7,18,57,42.5h3.1c-7.4-26.2-31.6-45.5-60.1-45.5c-34.5,0-62.5,28-62.5,62.5s28,62.5,62.5,62.5c25.2,0,46.9-15,56.8-36.5
	H2063z"/>
<g>
	<path class="st8" d="M2010.5,1319.5h-9.1v13.2h-13.5v-13.2h-9.9v35h9.9v-13.7h13.5v13.7h9.9v-27.3h18.4v15c0,1.7-0.4,2.9-1.1,3.8
		c-0.8,0.9-1.8,1.3-3.3,1.3c-2.2,0-4.2-1.2-6.1-3.6l-5.4,6.4c1.3,1.7,3,2.9,5.1,3.8s4.4,1.3,7,1.3c4.4,0,7.8-1.1,10.1-3.4
		c2.3-2.3,3.4-5.7,3.4-10.2v-22.1h-28.1H2010.5z"/>
	<rect x="2045.7" y="1327.4" class="st8" width="9.5" height="27.1"/>
	<path class="st8" d="M2050.4,1314.3c-1.7,0-3.1,0.5-4.2,1.5c-1.1,1-1.6,2.2-1.6,3.6c0,1.4,0.5,2.6,1.6,3.6c1.1,1,2.5,1.5,4.2,1.5
		c1.7,0,3.1-0.5,4.2-1.5c1.1-1,1.6-2.2,1.6-3.7c0-1.4-0.5-2.6-1.6-3.5C2053.6,1314.8,2052.2,1314.3,2050.4,1314.3z"/>
	<path class="st8" d="M2079,1326.9c-1.7,0-3.3,0.3-4.8,0.9c-1.5,0.6-2.7,1.4-3.8,2.5v-2.9h-9.1v27.1h9.5v-13.1
		c0-2.1,0.5-3.7,1.5-4.8c1-1.1,2.3-1.6,3.9-1.6c3,0,4.4,1.8,4.4,5.5v14h9.5V1339c0-4-1-7-3.1-9
		C2085.1,1327.9,2082.4,1326.9,2079,1326.9z"/>
	<path class="st8" d="M2100.1,1316.9c-1.7,0-3,0.5-4.1,1.5c-1.1,1-1.6,2.4-1.6,4c0,1.1,0.3,2.1,0.8,3c0.5,0.8,1.2,1.5,2.2,1.9
		l-2.4,8.1h6l3.2-7.3c0.7-1.5,1.1-2.7,1.3-3.5c0.2-0.8,0.3-1.5,0.3-2.3c0-1.7-0.5-3-1.6-4
		C2103.1,1317.5,2101.7,1316.9,2100.1,1316.9z"/>
	<path class="st8" d="M2130.9,1341.2c-1.1-1.1-2.4-1.9-3.8-2.4c-1.5-0.4-3.3-0.8-5.6-1.1c-1.8-0.3-3-0.5-3.8-0.8
		c-0.8-0.3-1.1-0.7-1.1-1.3c0-0.6,0.4-1,1-1.4c0.7-0.3,1.8-0.5,3.3-0.5c2.8,0,5.4,0.7,7.8,2l2.9-6.5c-1.3-0.7-2.9-1.3-4.9-1.7
		c-1.9-0.4-3.9-0.6-5.9-0.6c-2.8,0-5.1,0.4-7.1,1.2c-2,0.8-3.5,1.8-4.5,3.2c-1,1.3-1.5,2.9-1.5,4.6c0,2.1,0.5,3.7,1.6,4.9
		c1.1,1.2,2.4,2,3.9,2.4c1.5,0.4,3.4,0.8,5.5,1c1.7,0.2,2.9,0.5,3.7,0.7c0.8,0.3,1.2,0.7,1.2,1.3c0,0.6-0.3,1.1-1,1.4
		c-0.6,0.3-1.7,0.5-3.3,0.5c-1.7,0-3.4-0.2-5.1-0.7c-1.7-0.4-3.2-1.1-4.4-1.8l-2.9,6.5c1.3,0.8,3.1,1.5,5.3,2
		c2.2,0.5,4.4,0.8,6.7,0.8c2.8,0,5.3-0.4,7.3-1.2c2-0.8,3.5-1.8,4.6-3.2c1-1.3,1.5-2.9,1.5-4.6
		C2132.5,1344,2132,1342.4,2130.9,1341.2z"/>
</g>
<path class="st8" d="M2063,1362.5c-9.7,19.8-30,33.5-53.5,33.5c-32.8,0-59.5-26.7-59.5-59.5s26.7-59.5,59.5-59.5
	c26.9,0,49.7,18,57,42.5h3.1c-7.4-26.2-31.6-45.5-60.1-45.5c-34.5,0-62.5,28-62.5,62.5s28,62.5,62.5,62.5c25.2,0,46.9-15,56.8-36.5
	H2063z"/>
<image style="overflow:visible;opacity:9.000000e-02;" width="1083" height="683" xlink:href="188E7256.jpg"  transform="matrix(0.9999 0 0 0.9999 2675.4978 834.4977)">
</image>
</svg>
