<?xml version="1.0" encoding="utf-8"?>
<!-- Generator: Adobe Illustrator 21.0.2, SVG Export Plug-In . SVG Version: 6.00 Build 0)  -->
<svg version="1.1" id="Layer_1" xmlns="http://www.w3.org/2000/svg" xmlns:xlink="http://www.w3.org/1999/xlink" x="0px" y="0px"
	 viewBox="0 0 795.1 795.1" style="enable-background:new 0 0 795.1 795.1;" xml:space="preserve">
<style type="text/css">
	.st0{fill:none;stroke:#FFFFFF;stroke-width:8;stroke-miterlimit:10;}
	.st1{fill-rule:evenodd;clip-rule:evenodd;fill:none;stroke:#FFFFFF;stroke-width:3;stroke-miterlimit:10;}
	.st2{fill:none;stroke:#FFFFFF;stroke-width:3;stroke-miterlimit:10;}
	.st3{clip-path:url(#SVGID_2_);}
	.st4{fill:url(#SVGID_3_);}
	.st5{fill:#FFFFFF;}
	.st6{fill:none;stroke:#FFFFFF;stroke-width:7;stroke-linecap:round;stroke-linejoin:round;stroke-miterlimit:10;}
	.st7{fill:none;stroke:url(#SVGID_4_);stroke-width:3;stroke-miterlimit:10;}
	.st8{fill:#1A68E5;}
</style>
<g>
	<g>
		<line class="st0" x1="1840.6" y1="-0.4" x2="1514.2" y2="325.9"/>
	</g>
	<g>
		<line class="st0" x1="1858" y1="17.1" x2="1531.7" y2="343.4"/>
	</g>
	<g>
		<line class="st0" x1="1875.5" y1="34.6" x2="1549.2" y2="360.9"/>
	</g>
	<g>
		<line class="st0" x1="1893" y1="52" x2="1566.6" y2="378.4"/>
	</g>
	<g>
		<line class="st0" x1="1910.5" y1="69.5" x2="1584.1" y2="395.8"/>
	</g>
	<g>
		<line class="st0" x1="1927.9" y1="87" x2="1601.6" y2="413.3"/>
	</g>
	<g>
		<line class="st0" x1="1945.4" y1="104.4" x2="1619.1" y2="430.8"/>
	</g>
	<g>
		<line class="st0" x1="1962.9" y1="121.9" x2="1636.5" y2="448.3"/>
	</g>
	<g>
		<line class="st0" x1="1980.3" y1="139.4" x2="1654" y2="465.7"/>
	</g>
	<g>
		<line class="st0" x1="1997.8" y1="156.9" x2="1671.5" y2="483.2"/>
	</g>
	<g>
		<line class="st0" x1="2015.3" y1="174.3" x2="1689" y2="500.7"/>
	</g>
	<g>
		<line class="st0" x1="2032.8" y1="191.8" x2="1706.4" y2="518.1"/>
	</g>
	<g>
		<line class="st0" x1="2050.2" y1="209.3" x2="1723.9" y2="535.6"/>
	</g>
	<g>
		<line class="st0" x1="2067.7" y1="226.8" x2="1741.4" y2="553.1"/>
	</g>
	<g>
		<line class="st0" x1="2085.2" y1="244.2" x2="1758.8" y2="570.6"/>
	</g>
	<g>
		<line class="st0" x1="2102.6" y1="261.7" x2="1776.3" y2="588"/>
	</g>
	<g>
		<line class="st0" x1="2120.1" y1="279.2" x2="1793.8" y2="605.5"/>
	</g>
	<g>
		<line class="st0" x1="2137.6" y1="296.6" x2="1811.3" y2="623"/>
	</g>
	<g>
		<line class="st0" x1="2155.1" y1="314.1" x2="1828.7" y2="640.4"/>
	</g>
</g>
<rect x="865.6" y="35.8" class="st1" width="535.5" height="535.5"/>
<g>
	<g>
		<line class="st2" x1="-300.1" y1="853.9" x2="-879.1" y2="1432.9"/>
	</g>
	<g>
		<line class="st2" x1="-269.1" y1="884.9" x2="-848.1" y2="1463.9"/>
	</g>
	<g>
		<line class="st2" x1="-238.1" y1="915.9" x2="-817.1" y2="1494.9"/>
	</g>
	<g>
		<line class="st2" x1="-207.1" y1="946.9" x2="-786.1" y2="1525.9"/>
	</g>
	<g>
		<line class="st2" x1="-176.1" y1="977.9" x2="-755.1" y2="1556.9"/>
	</g>
	<g>
		<line class="st2" x1="-145.1" y1="1008.9" x2="-724.1" y2="1587.9"/>
	</g>
	<g>
		<line class="st2" x1="-114.1" y1="1039.9" x2="-693.1" y2="1618.9"/>
	</g>
	<g>
		<line class="st2" x1="-83.1" y1="1070.9" x2="-662.1" y2="1649.9"/>
	</g>
	<g>
		<line class="st2" x1="-52.1" y1="1101.9" x2="-631.1" y2="1680.9"/>
	</g>
	<g>
		<line class="st2" x1="-21.1" y1="1132.9" x2="-600.1" y2="1711.9"/>
	</g>
	<g>
		<line class="st2" x1="9.9" y1="1163.9" x2="-569.1" y2="1742.9"/>
	</g>
	<g>
		<line class="st2" x1="40.9" y1="1194.9" x2="-538.1" y2="1773.9"/>
	</g>
	<g>
		<line class="st2" x1="71.9" y1="1225.9" x2="-507.1" y2="1804.9"/>
	</g>
	<g>
		<line class="st2" x1="102.9" y1="1256.9" x2="-476.1" y2="1835.9"/>
	</g>
	<g>
		<line class="st2" x1="133.9" y1="1287.9" x2="-445.1" y2="1866.9"/>
	</g>
	<g>
		<line class="st2" x1="164.9" y1="1318.9" x2="-414.1" y2="1897.9"/>
	</g>
	<g>
		<line class="st2" x1="195.9" y1="1349.9" x2="-383.1" y2="1928.9"/>
	</g>
	<g>
		<line class="st2" x1="226.9" y1="1380.9" x2="-352.1" y2="1959.9"/>
	</g>
	<g>
		<line class="st2" x1="257.9" y1="1411.9" x2="-321.1" y2="1990.9"/>
	</g>
</g>
<g>
	<defs>
		<circle id="SVGID_1_" cx="399.4" cy="399.4" r="387"/>
	</defs>
	<clipPath id="SVGID_2_">
		<use xlink:href="#SVGID_1_"  style="overflow:visible;"/>
	</clipPath>
	<g class="st3">
		<g>
			<line class="st2" x1="409.9" y1="-169.1" x2="-169.1" y2="409.9"/>
		</g>
		<g>
			<line class="st2" x1="440.9" y1="-138.1" x2="-138.1" y2="440.9"/>
		</g>
		<g>
			<line class="st2" x1="471.9" y1="-107.1" x2="-107.1" y2="471.9"/>
		</g>
		<g>
			<line class="st2" x1="502.9" y1="-76.1" x2="-76.1" y2="502.9"/>
		</g>
		<g>
			<line class="st2" x1="533.9" y1="-45.1" x2="-45.1" y2="533.9"/>
		</g>
		<g>
			<line class="st2" x1="564.9" y1="-14.1" x2="-14.1" y2="564.9"/>
		</g>
		<g>
			<line class="st2" x1="595.9" y1="16.9" x2="16.9" y2="595.9"/>
		</g>
		<g>
			<line class="st2" x1="626.9" y1="47.9" x2="47.9" y2="626.9"/>
		</g>
		<g>
			<line class="st2" x1="657.9" y1="78.9" x2="78.9" y2="657.9"/>
		</g>
		<g>
			<line class="st2" x1="688.9" y1="109.9" x2="109.9" y2="688.9"/>
		</g>
		<g>
			<line class="st2" x1="719.9" y1="140.9" x2="140.9" y2="719.9"/>
		</g>
		<g>
			<line class="st2" x1="750.9" y1="171.9" x2="171.9" y2="750.9"/>
		</g>
		<g>
			<line class="st2" x1="781.9" y1="202.9" x2="202.9" y2="781.9"/>
		</g>
		<g>
			<line class="st2" x1="812.9" y1="233.9" x2="233.9" y2="812.9"/>
		</g>
		<g>
			<line class="st2" x1="843.9" y1="264.9" x2="264.9" y2="843.9"/>
		</g>
		<g>
			<line class="st2" x1="874.9" y1="295.9" x2="295.9" y2="874.9"/>
		</g>
		<g>
			<line class="st2" x1="905.9" y1="326.9" x2="326.9" y2="905.9"/>
		</g>
		<g>
			<line class="st2" x1="936.9" y1="357.9" x2="357.9" y2="936.9"/>
		</g>
		<g>
			<line class="st2" x1="967.9" y1="388.9" x2="388.9" y2="967.9"/>
		</g>
	</g>
</g>
<g>
	
		<image style="overflow:visible;opacity:0.4;" width="561" height="327" xlink:href="31286AA5.png"  transform="matrix(1 0 0 1 404.4084 1518.4083)">
	</image>
	<g>
		<linearGradient id="SVGID_3_" gradientUnits="userSpaceOnUse" x1="472.1439" y1="1775.3655" x2="895.5615" y2="1637.7887">
			<stop  offset="0" style="stop-color:#FFFFFF;stop-opacity:0"/>
			<stop  offset="1" style="stop-color:#FFFFFF"/>
		</linearGradient>
		<path class="st4" d="M946.2,1828c0-3.5-0.3-7.2-0.6-10.8c-0.3-3.6-0.8-7.2-1.3-10.8c-1.1-7.2-2.5-14.3-4.2-21.4
			c-3.4-14.1-7.9-28-13.2-41.5c-5.3-13.5-11.5-26.7-18.6-39.4c-7.1-12.7-15-24.9-23.7-36.6l-6.6-8.6l-7-8.3
			c-2.3-2.8-4.8-5.4-7.3-8.1c-2.5-2.7-4.9-5.4-7.5-7.9l-7.8-7.6c-2.7-2.5-5.4-4.8-8.1-7.3l-4.1-3.6l-4.3-3.4l-8.5-6.8
			c-23.3-17.5-48.7-32-75.5-43.4c-1.6-0.8-3.3-1.4-5-2.1l-5.1-2c-3.4-1.3-6.8-2.7-10.2-3.9l-10.4-3.4c-3.5-1.1-6.9-2.3-10.4-3.2
			l-10.5-2.9l-2.6-0.7c-0.9-0.2-1.8-0.4-2.7-0.6l-5.3-1.2l-5.3-1.2c-1.8-0.4-3.5-0.8-5.3-1.1l-10.8-1.8c-3.6-0.7-7.2-1-10.8-1.4
			l-5.4-0.6c-1.8-0.2-3.6-0.4-5.4-0.5l-10.9-0.7l-2.7-0.2l-2.7,0l-5.5-0.1c-7.3-0.2-14.6,0.3-21.8,0.5l-10.9,0.9l-2.7,0.2
			c-0.9,0.1-1.8,0.2-2.7,0.3l-5.4,0.7c-14.4,2-28.7,4.9-42.7,9c-14,4-27.7,9-41,14.9c-13.3,5.9-26.2,12.7-38.6,20.4
			c-6.2,3.8-12.2,7.9-18.1,12.2c-5.9,4.3-11.6,8.8-17,13.7c5.4-4.9,11.1-9.4,17-13.7c5.9-4.3,11.9-8.4,18.1-12.2
			c12.3-7.7,25.3-14.5,38.6-20.5c13.3-5.9,27-11,41-15c14-4.1,28.3-7,42.7-9l5.4-0.7c0.9-0.1,1.8-0.3,2.7-0.4l2.7-0.2l10.9-1
			c7.3-0.3,14.6-0.8,21.8-0.5l5.5,0l2.7,0l2.7,0.2l10.9,0.6c1.8,0.1,3.6,0.3,5.4,0.5l5.4,0.6c3.6,0.4,7.3,0.7,10.8,1.4l10.8,1.8
			c1.8,0.3,3.6,0.7,5.4,1.1l5.3,1.2l5.3,1.2c0.9,0.2,1.8,0.4,2.7,0.6l2.6,0.7l10.5,2.9c3.5,0.9,7,2.1,10.4,3.2l10.4,3.4
			c3.4,1.3,6.8,2.6,10.2,3.9l5.1,2c1.7,0.7,3.4,1.3,5.1,2.1c26.8,11.4,52.4,25.9,75.7,43.4l8.5,6.8l4.3,3.4l4.1,3.6
			c2.7,2.4,5.5,4.8,8.2,7.3l7.8,7.6c2.7,2.5,5.1,5.2,7.6,7.9c2.5,2.7,5,5.3,7.3,8.1l7.1,8.4l6.7,8.7c8.7,11.7,16.7,23.9,23.9,36.6
			c7.1,12.7,13.3,26,18.7,39.5c5.4,13.6,9.9,27.5,13.5,41.6l1.4,5.3l1.2,5.3c0.4,1.8,0.8,3.6,1.2,5.3c0.4,1.8,0.8,3.6,1.1,5.4
			c1.4,7.2,2.7,14.3,3.6,21.7c0.1,1-0.6,1.9-1.6,2s-1.9-0.6-2-1.6C946.2,1828.1,946.2,1828.1,946.2,1828L946.2,1828z"/>
	</g>
</g>
<g>
	<path class="st5" d="M787.9,2042.9c12.1,0,22,9.9,22,22v25c0,12.1-9.9,22-22,22h-4c-12.1,0-22-9.9-22-22v-25c0-12.1,9.9-22,22-22
		H787.9 M787.9,2039.9h-4c-13.8,0-25,11.2-25,25v25c0,13.8,11.2,25,25,25h4c13.8,0,25-11.2,25-25v-25
		C812.9,2051.1,801.7,2039.9,787.9,2039.9L787.9,2039.9z"/>
</g>
<g>
	<line class="st6" x1="785.9" y1="2062.9" x2="785.9" y2="2069.9"/>
</g>
<g>
	<linearGradient id="SVGID_4_" gradientUnits="userSpaceOnUse" x1="785.9083" y1="2200.9084" x2="785.9083" y2="2113.4084">
		<stop  offset="0" style="stop-color:#FFFFFF;stop-opacity:0"/>
		<stop  offset="1" style="stop-color:#FFFFFF"/>
	</linearGradient>
	<line class="st7" x1="785.9" y1="2113.4" x2="785.9" y2="2200.9"/>
</g>
<g>
	<path class="st5" d="M1116.4,2019.4h-9.1v13.2h-13.5v-13.2h-9.9v35h9.9v-13.7h13.5v13.7h9.9v-27.3h18.4v15c0,1.7-0.4,2.9-1.1,3.8
		c-0.8,0.9-1.8,1.3-3.3,1.3c-2.2,0-4.2-1.2-6.1-3.6l-5.4,6.4c1.3,1.7,3,2.9,5.1,3.8s4.4,1.3,7,1.3c4.4,0,7.8-1.1,10.1-3.4
		c2.3-2.3,3.4-5.7,3.4-10.2v-22.1h-28.1H1116.4z"/>
	<rect x="1151.6" y="2027.3" class="st5" width="9.5" height="27.1"/>
	<path class="st5" d="M1156.4,2014.2c-1.7,0-3.1,0.5-4.2,1.5c-1.1,1-1.6,2.2-1.6,3.6c0,1.4,0.5,2.6,1.6,3.6c1.1,1,2.5,1.5,4.2,1.5
		c1.7,0,3.1-0.5,4.2-1.5c1.1-1,1.6-2.2,1.6-3.7c0-1.4-0.5-2.6-1.6-3.5C1159.5,2014.7,1158.1,2014.2,1156.4,2014.2z"/>
	<path class="st5" d="M1184.9,2026.9c-1.7,0-3.3,0.3-4.8,0.9c-1.5,0.6-2.7,1.4-3.8,2.5v-2.9h-9.1v27.1h9.5v-13.1
		c0-2.1,0.5-3.7,1.5-4.8c1-1.1,2.3-1.6,3.9-1.6c3,0,4.4,1.8,4.4,5.5v14h9.5v-15.5c0-4-1-7-3.1-9
		C1191,2027.9,1188.3,2026.9,1184.9,2026.9z"/>
	<path class="st5" d="M1206,2016.9c-1.7,0-3,0.5-4.1,1.5c-1.1,1-1.6,2.4-1.6,4c0,1.1,0.3,2.1,0.8,3c0.5,0.8,1.2,1.5,2.2,1.9
		l-2.4,8.1h6l3.2-7.3c0.7-1.5,1.1-2.7,1.3-3.5c0.2-0.8,0.3-1.5,0.3-2.3c0-1.7-0.5-3-1.6-4C1209,2017.4,1207.6,2016.9,1206,2016.9z"
		/>
	<path class="st5" d="M1236.8,2041.1c-1.1-1.1-2.4-1.9-3.8-2.4c-1.5-0.4-3.3-0.8-5.6-1.1c-1.8-0.3-3-0.5-3.8-0.8
		c-0.8-0.3-1.1-0.7-1.1-1.3c0-0.6,0.4-1,1-1.4c0.7-0.3,1.8-0.5,3.3-0.5c2.8,0,5.4,0.7,7.8,2l2.9-6.5c-1.3-0.7-2.9-1.3-4.9-1.7
		c-1.9-0.4-3.9-0.6-5.9-0.6c-2.8,0-5.1,0.4-7.1,1.2c-2,0.8-3.5,1.8-4.5,3.2c-1,1.3-1.5,2.9-1.5,4.6c0,2.1,0.5,3.7,1.6,4.9
		c1.1,1.2,2.4,2,3.9,2.4c1.5,0.4,3.4,0.8,5.5,1c1.7,0.2,2.9,0.5,3.7,0.7c0.8,0.3,1.2,0.7,1.2,1.3c0,0.6-0.3,1.1-1,1.4
		c-0.6,0.3-1.7,0.5-3.3,0.5c-1.7,0-3.4-0.2-5.1-0.7c-1.7-0.4-3.2-1.1-4.4-1.8l-2.9,6.5c1.3,0.8,3.1,1.5,5.3,2
		c2.2,0.5,4.4,0.8,6.7,0.8c2.8,0,5.3-0.4,7.3-1.2c2-0.8,3.5-1.8,4.6-3.2c1-1.3,1.5-2.9,1.5-4.6
		C1238.4,2043.9,1237.9,2042.3,1236.8,2041.1z"/>
</g>
<path class="st5" d="M1168.9,2062.4c-9.7,19.8-30,33.5-53.5,33.5c-32.8,0-59.5-26.7-59.5-59.5c0-32.8,26.7-59.5,59.5-59.5
	c26.9,0,49.7,18,57,42.5h3.1c-7.4-26.2-31.6-45.5-60.1-45.5c-34.5,0-62.5,28-62.5,62.5c0,34.5,28,62.5,62.5,62.5
	c25.2,0,46.9-15,56.8-36.5H1168.9z"/>
<g>
	<path class="st8" d="M1116.4,2157.4h-9.1v13.2h-13.5v-13.2h-9.9v35h9.9v-13.7h13.5v13.7h9.9v-27.3h18.4v15c0,1.7-0.4,2.9-1.1,3.8
		c-0.8,0.9-1.8,1.3-3.3,1.3c-2.2,0-4.2-1.2-6.1-3.6l-5.4,6.4c1.3,1.7,3,2.9,5.1,3.8s4.4,1.3,7,1.3c4.4,0,7.8-1.1,10.1-3.4
		c2.3-2.3,3.4-5.7,3.4-10.2v-22.1h-28.1H1116.4z"/>
	<rect x="1151.6" y="2165.3" class="st8" width="9.5" height="27.1"/>
	<path class="st8" d="M1156.4,2152.2c-1.7,0-3.1,0.5-4.2,1.5c-1.1,1-1.6,2.2-1.6,3.6c0,1.4,0.5,2.6,1.6,3.6c1.1,1,2.5,1.5,4.2,1.5
		c1.7,0,3.1-0.5,4.2-1.5c1.1-1,1.6-2.2,1.6-3.7c0-1.4-0.5-2.6-1.6-3.5C1159.5,2152.7,1158.1,2152.2,1156.4,2152.2z"/>
	<path class="st8" d="M1184.9,2164.9c-1.7,0-3.3,0.3-4.8,0.9c-1.5,0.6-2.7,1.4-3.8,2.5v-2.9h-9.1v27.1h9.5v-13.1
		c0-2.1,0.5-3.7,1.5-4.8c1-1.1,2.3-1.6,3.9-1.6c3,0,4.4,1.8,4.4,5.5v14h9.5v-15.5c0-4-1-7-3.1-9
		C1191,2165.9,1188.3,2164.9,1184.9,2164.9z"/>
	<path class="st8" d="M1206,2154.9c-1.7,0-3,0.5-4.1,1.5c-1.1,1-1.6,2.4-1.6,4c0,1.1,0.3,2.1,0.8,3c0.5,0.8,1.2,1.5,2.2,1.9
		l-2.4,8.1h6l3.2-7.3c0.7-1.5,1.1-2.7,1.3-3.5c0.2-0.8,0.3-1.5,0.3-2.3c0-1.7-0.5-3-1.6-4C1209,2155.4,1207.6,2154.9,1206,2154.9z"
		/>
	<path class="st8" d="M1236.8,2179.1c-1.1-1.1-2.4-1.9-3.8-2.4c-1.5-0.4-3.3-0.8-5.6-1.1c-1.8-0.3-3-0.5-3.8-0.8
		c-0.8-0.3-1.1-0.7-1.1-1.3c0-0.6,0.4-1,1-1.4c0.7-0.3,1.8-0.5,3.3-0.5c2.8,0,5.4,0.7,7.8,2l2.9-6.5c-1.3-0.7-2.9-1.3-4.9-1.7
		c-1.9-0.4-3.9-0.6-5.9-0.6c-2.8,0-5.1,0.4-7.1,1.2c-2,0.8-3.5,1.8-4.5,3.2c-1,1.3-1.5,2.9-1.5,4.6c0,2.1,0.5,3.7,1.6,4.9
		c1.1,1.2,2.4,2,3.9,2.4c1.5,0.4,3.4,0.8,5.5,1c1.7,0.2,2.9,0.5,3.7,0.7c0.8,0.3,1.2,0.7,1.2,1.3c0,0.6-0.3,1.1-1,1.4
		c-0.6,0.3-1.7,0.5-3.3,0.5c-1.7,0-3.4-0.2-5.1-0.7c-1.7-0.4-3.2-1.1-4.4-1.8l-2.9,6.5c1.3,0.8,3.1,1.5,5.3,2
		c2.2,0.5,4.4,0.8,6.7,0.8c2.8,0,5.3-0.4,7.3-1.2c2-0.8,3.5-1.8,4.6-3.2c1-1.3,1.5-2.9,1.5-4.6
		C1238.4,2181.9,1237.9,2180.3,1236.8,2179.1z"/>
</g>
<path class="st8" d="M1168.9,2200.4c-9.7,19.8-30,33.5-53.5,33.5c-32.8,0-59.5-26.7-59.5-59.5s26.7-59.5,59.5-59.5
	c26.9,0,49.7,18,57,42.5h3.1c-7.4-26.2-31.6-45.5-60.1-45.5c-34.5,0-62.5,28-62.5,62.5s28,62.5,62.5,62.5c25.2,0,46.9-15,56.8-36.5
	H1168.9z"/>
<image style="overflow:visible;opacity:9.000000e-02;" width="1083" height="683" xlink:href="31286AA7.jpg"  transform="matrix(0.9999 0 0 0.9999 1781.4083 1672.4083)">
</image>
</svg>
