<?xml version="1.0" encoding="utf-8"?>
<!-- Generator: Adobe Illustrator 21.0.2, SVG Export Plug-In . SVG Version: 6.00 Build 0)  -->
<svg version="1.1" id="Layer_2" xmlns="http://www.w3.org/2000/svg" xmlns:xlink="http://www.w3.org/1999/xlink" x="0px" y="0px"
	 viewBox="0 0 1920 1080" style="enable-background:new 0 0 1920 1080;" xml:space="preserve">
<style type="text/css">
	.st0{fill:#FFFFFF;}
</style>
<path class="st0" d="M259.7,15c-0.3,0.2-0.5,0.3-0.8,0.5c-1.1,0.9-1.1,2.3-0.2,3.2c0.8,0.8,2.2,0.8,3-0.1c0.9-0.9,0.7-2.4-0.3-3.2
	c-0.3-0.2-0.6-0.3-0.8-0.5C260.3,15,260,15,259.7,15z"/>
<path class="st0" d="M301.4,191.2c0-2.3-1.8-4.1-4-4.1c-2.3,0-4.1,1.8-4.1,4c0,2.3,1.8,4.1,4,4.1
	C299.5,195.3,301.4,193.5,301.4,191.2z"/>
<path class="st0" d="M191.6,233.9c2.3,0,4.1-1.8,4-4.1c0-2.2-1.8-4-4-4c-2.3,0-4.1,1.8-4.1,4C187.5,232.1,189.3,233.9,191.6,233.9z"
	/>
<path class="st0" d="M150.7,232.1c0-2.3-1.8-4.1-4-4.1c-2.2,0-4.1,1.8-4,4.1c0,2.2,1.8,4,4,4C148.8,236.1,150.7,234.3,150.7,232.1z"
	/>
<path class="st0" d="M122.5,130.4c0-2.2-1.8-4-3.9-4c-2.2,0-4,1.7-4,3.9c0,2.2,1.7,4,3.9,4C120.7,134.3,122.5,132.6,122.5,130.4z"/>
<path class="st0" d="M243.6,73.1c2,0,3.7-1.6,3.8-3.7c0-2.1-1.6-3.7-3.7-3.7c-2,0-3.6,1.6-3.7,3.6C239.9,71.4,241.6,73.1,243.6,73.1
	z"/>
<path class="st0" d="M72.9,153.6c-2.1,0-3.7,1.7-3.6,3.8c0,2.1,1.7,3.7,3.8,3.7c2,0,3.7-1.7,3.6-3.8C76.7,155.2,75,153.5,72.9,153.6
	z"/>
<path class="st0" d="M159,172.4c-2,0-3.7,1.7-3.7,3.8c0,2,1.7,3.6,3.7,3.6c2.1,0,3.7-1.7,3.7-3.7C162.6,174,161,172.4,159,172.4z"/>
<path class="st0" d="M140.8,210.9c2-0.1,3.6-1.7,3.5-3.7c0-2.1-1.7-3.7-3.8-3.6c-2,0.1-3.6,1.7-3.5,3.7
	C137,209.3,138.7,211,140.8,210.9z"/>
<path class="st0" d="M233.6,205.8c0-2-1.6-3.6-3.7-3.6c-2,0-3.6,1.6-3.6,3.6c0,2,1.7,3.7,3.8,3.6C232,209.4,233.6,207.8,233.6,205.8
	z"/>
<path class="st0" d="M159.6,49.1c-2,0-3.6,1.7-3.6,3.7c0,1.9,1.6,3.5,3.6,3.5c2,0,3.6-1.6,3.6-3.6C163.2,50.7,161.6,49,159.6,49.1z"
	/>
<path class="st0" d="M226.2,159.4c2,0,3.5-1.6,3.5-3.6c0-2-1.6-3.5-3.6-3.5c-2,0-3.6,1.7-3.6,3.7
	C222.6,157.9,224.2,159.4,226.2,159.4z"/>
<path class="st0" d="M83.2,75.3c0-1.9-1.5-3.6-3.5-3.6c-1.9,0-3.6,1.6-3.6,3.5c0,1.9,1.5,3.6,3.5,3.6C81.6,78.8,83.2,77.3,83.2,75.3
	z"/>
<path class="st0" d="M200,96.6c0-1.9-1.6-3.5-3.6-3.5c-1.9,0-3.4,1.6-3.4,3.5c0,1.9,1.5,3.5,3.4,3.5
	C198.3,100.2,199.9,98.6,200,96.6z"/>
<path class="st0" d="M206.2,176.5c0-1.9-1.5-3.4-3.4-3.4c-1.9,0-3.5,1.5-3.5,3.4c0,1.9,1.5,3.4,3.4,3.4
	C204.7,180,206.2,178.4,206.2,176.5z"/>
<path class="st0" d="M224.5,89.7c-1.8,0.1-3.2,1.6-3.2,3.4c0,1.9,1.6,3.3,3.5,3.2c1.8-0.1,3.2-1.6,3.1-3.4
	C227.8,91,226.3,89.6,224.5,89.7z"/>
<path class="st0" d="M63.9,261.3c-1.9,0-3.3,1.5-3.3,3.4c0.1,1.8,1.5,3.2,3.3,3.2c1.9,0,3.3-1.5,3.3-3.4
	C67.2,262.7,65.7,261.3,63.9,261.3z"/>
<path class="st0" d="M123.8,266c0,1.8,1.4,3.2,3.1,3.3c1.8,0.1,3.3-1.4,3.4-3.2c0-1.8-1.5-3.3-3.3-3.3
	C125.2,262.8,123.8,264.3,123.8,266z"/>
<path class="st0" d="M186.4,142.8c0-1.8-1.4-3.2-3.2-3.1c-1.8,0-3.2,1.5-3.1,3.2c0,1.8,1.5,3.2,3.3,3.1
	C185,146,186.4,144.6,186.4,142.8z"/>
<path class="st0" d="M306.8,248.6c-1.7,0-3.2,1.4-3.2,3.1c0,1.7,1.4,3.2,3.2,3.2c1.7,0,3.2-1.4,3.2-3.2
	C310,250,308.6,248.6,306.8,248.6z"/>
<path class="st0" d="M207.1,110.6c1.6,0,2.9-1.3,3-2.8c0-1.6-1.3-3-3-3c-1.6,0-2.9,1.3-2.9,2.9C204.2,109.2,205.5,110.6,207.1,110.6
	z"/>
<path class="st0" d="M141.4,120.4c0-1.6-1.3-2.9-2.9-2.9c-1.6,0-2.9,1.4-2.9,2.9c0,1.5,1.3,2.8,2.8,2.9
	C140,123.3,141.4,122,141.4,120.4z"/>
<path class="st0" d="M136.5,93.3c-1.5,0-2.8,1.3-2.9,2.8c0,1.5,1.3,2.9,2.8,2.9c1.4,0,3.6-2,3.5-3.3
	C139.9,94.9,137.6,93.3,136.5,93.3z"/>
<path class="st0" d="M79.1,178c0-1.5-1.4-2.8-2.9-2.8c-1.6,0-2.9,1.4-2.8,3c0.1,1.6,1.4,2.8,2.9,2.7C77.9,180.9,79.2,179.6,79.1,178
	z"/>
<path class="st0" d="M97.1,96.8c1.5,0,2.9-1.3,2.8-2.8c0-1.6-1.3-2.8-2.9-2.8c-1.5,0-2.7,1.2-2.8,2.7C94.3,95.4,95.6,96.8,97.1,96.8
	z"/>
<path class="st0" d="M270.7,220.5c0-1.5-1.3-2.8-2.8-2.7c-1.4,0-2.6,1.2-2.7,2.7c0,1.5,1.2,2.8,2.7,2.8
	C269.5,223.2,270.7,222,270.7,220.5z"/>
<path class="st0" d="M112.4,54.3c0-1.4-1.1-2.6-2.5-2.6c-1.5,0-2.7,1.2-2.7,2.6c0,1.5,1.2,2.6,2.7,2.6
	C111.3,56.9,112.4,55.7,112.4,54.3z"/>
<path class="st0" d="M305,127.3c-1.3,0-2.5,1.2-2.5,2.5c0,1.4,1.2,2.5,2.6,2.5c1.4-0.1,2.4-1.2,2.4-2.6
	C307.5,128.4,306.4,127.3,305,127.3z"/>
<path class="st0" d="M175.3,205.3c-1.3,0-2.4,1.1-2.4,2.4c0,1.4,1.2,2.5,2.5,2.4c1.3-0.1,2.3-1.2,2.3-2.5
	C177.7,206.3,176.6,205.3,175.3,205.3z"/>
<path class="st0" d="M228.6,287c0-1.3-1.1-2.4-2.4-2.4c-1.4,0-2.5,1.1-2.4,2.5c0,1.3,1.1,2.3,2.5,2.3
	C227.5,289.4,228.6,288.3,228.6,287z"/>
<path class="st0" d="M86.8,177.6c1.3,0,2.4-1.2,2.4-2.4c0-1.3-1.2-2.4-2.4-2.4c-1.3,0-2.4,1.1-2.3,2.4
	C84.4,176.5,85.5,177.6,86.8,177.6z"/>
<path class="st0" d="M290,131.3c0-1.3-1.2-2.4-2.5-2.3c-1.2,0.1-2.2,1.2-2.2,2.4c0,1.3,1.1,2.4,2.5,2.3
	C289.1,133.6,290.1,132.5,290,131.3z"/>
<path class="st0" d="M214.8,104.6c-1.3,0-2.3,1-2.3,2.3c0,1.3,1,2.3,2.3,2.3c1.2,0,2.3-1,2.3-2.3C217,105.6,216,104.6,214.8,104.6z"
	/>
<path class="st0" d="M263.6,168.6c0-1.3-1.1-2.3-2.3-2.3c-1.2,0-2.2,1-2.3,2.2c0,1.2,1,2.3,2.3,2.4
	C262.5,170.9,263.6,169.8,263.6,168.6z"/>
<path class="st0" d="M91.4,37.8c-1.3,0-2.3,1.1-2.2,2.3c0,1.3,1.1,2.3,2.4,2.2c1.2-0.1,2.2-1.1,2.2-2.3
	C93.7,38.8,92.7,37.8,91.4,37.8z"/>
<path class="st0" d="M235.4,60.7c1.2,0,2.2-1,2.2-2.2c0-1.2-1-2.2-2.2-2.2c-1.2,0-2.2,1-2.2,2.2C233.2,59.7,234.2,60.7,235.4,60.7z"
	/>
<path class="st0" d="M121.1,94.2c0-1.1-0.9-2-2-2c-1.2,0-2.1,1-2.1,2.1c0,1.2,1,2.1,2.2,2.1C120.2,96.3,121.1,95.4,121.1,94.2z"/>
<path class="st0" d="M268.1,243.2c0-1-1-1.9-2.1-1.8c-1,0.1-1.8,0.9-1.8,2c0,1,0.9,1.9,1.9,1.9C267.1,245.2,268.1,244.2,268.1,243.2
	z"/>
<path class="st0" d="M290.6,71.3c1,0,1.9-0.9,1.9-1.9c0-1.1-0.9-2-1.9-1.9c-1,0-1.8,0.9-1.8,1.9C288.7,70.4,289.6,71.3,290.6,71.3z"
	/>
<path class="st0" d="M293.1,124.8c0-1-0.9-1.8-1.9-1.8c-1,0-1.8,0.8-1.8,1.9c0,1.1,0.9,1.9,2,1.9
	C292.3,126.7,293.1,125.8,293.1,124.8z"/>
<path class="st0" d="M209.9,138.2c1,0,1.8-0.9,1.8-1.9c0-1-1-1.8-1.9-1.8c-1,0-1.8,0.9-1.8,1.9C208,137.4,208.9,138.2,209.9,138.2z"
	/>
<path class="st0" d="M279.6,230.8c0-1-0.8-1.7-1.8-1.7c-1,0-1.8,0.8-1.7,1.8c0,0.9,0.9,1.8,1.8,1.8
	C278.8,232.6,279.6,231.8,279.6,230.8z"/>
<path class="st0" d="M188.7,159.1c-1,0.2-1.7,0.8-1.7,1.8c0,1,0.9,1.9,1.9,1.7c1.1-0.1,1.7-0.8,1.6-1.8
	C190.4,159.7,189.7,159.2,188.7,159.1z"/>
<path class="st0" d="M246.7,155.1c-1,0.1-1.7,0.6-1.7,1.7c0,1,0.6,1.6,1.6,1.7c1,0.1,1.9-0.8,1.8-1.7
	C248.4,155.8,247.8,155.2,246.7,155.1z"/>
<path class="st0" d="M172,181.2c0.5-0.6,1.2-1.1,1.3-1.8c0.2-0.9-0.5-1.6-1.5-1.6c-1,0-1.7,0.5-1.6,1.5c0.1,0.7,0.7,1.3,1.1,1.9
	C171.6,181.2,171.8,181.2,172,181.2z"/>
<path class="st0" d="M169.6,195.8c-0.4,0.6-1,1.2-1.1,1.8c-0.1,1,0.6,1.5,1.6,1.5c1,0,1.7-0.6,1.5-1.6c-0.1-0.7-0.8-1.2-1.2-1.8
	C170,195.8,169.8,195.8,169.6,195.8z"/>
<path class="st0" d="M175.7,168.7c-0.6-0.4-1.2-1.2-1.8-1.1c-0.5,0-1.3,0.9-1.4,1.4c-0.2,0.9,0.5,1.6,1.5,1.5
	c0.6-0.1,1.1-0.7,1.7-1.1C175.7,169.1,175.7,168.9,175.7,168.7z"/>
<path class="st0" d="M83.4,242.2c0.7-0.9,1.4-1.4,1.4-2c0-0.5-0.7-1.3-1.3-1.4c-0.9-0.2-1.6,0.5-1.5,1.3
	C82.1,240.7,82.8,241.2,83.4,242.2z"/>
<path class="st0" d="M289.1,25.8c-0.4,0.6-1,1.1-1,1.7c0,0.5,0.9,1.3,1.3,1.3c0.5-0.1,1.3-0.8,1.4-1.3c0.1-0.5-0.7-1.1-1-1.6
	C289.5,25.8,289.3,25.8,289.1,25.8z"/>
<path class="st0" d="M97.6,30.8c0.6-0.8,1.3-1.3,1.2-1.7c-0.1-0.5-0.8-0.9-1.2-1.3c-0.4,0.4-1.1,0.8-1.1,1.3
	C96.4,29.5,97,30,97.6,30.8z"/>
<path class="st0" d="M234.2,106.9c-0.8-0.5-1.2-1.1-1.6-1.1c-0.4,0.1-0.9,0.7-1,1.1c0,0.3,0.6,1,1,1
	C233,108,233.4,107.4,234.2,106.9z"/>
<path class="st0" d="M280.7,227.3c-0.8-0.5-1.2-1-1.6-1c-0.3,0-0.9,0.6-0.9,0.9c0,0.3,0.5,0.9,0.8,1
	C279.4,228.2,279.8,227.8,280.7,227.3z"/>
<path class="st0" d="M148.7,281.4c-0.5-0.4-0.8-1-1.1-0.9c-0.4,0.1-0.7,0.5-1.1,0.8c0.3,0.3,0.6,0.8,1,0.9
	C147.7,282.3,148.1,281.8,148.7,281.4z"/>
<path class="st0" d="M201.9,149.9c-0.6-0.4-1-0.8-1.3-0.8c-0.3,0-0.9,0.6-0.8,0.8c0.1,0.4,0.5,0.8,0.9,0.9
	C200.9,150.9,201.3,150.4,201.9,149.9z"/>
<path class="st0" d="M292.2,269.4c0.5-0.6,0.9-0.9,0.9-1.2c0-0.3-0.5-0.7-0.8-0.8c-0.2-0.1-0.8,0.4-0.8,0.7
	C291.5,268.4,291.8,268.8,292.2,269.4z"/>
<path class="st0" d="M175.3,175.8c-0.4,0.5-0.9,0.9-0.9,1.2c0,0.3,0.5,0.7,0.8,0.8c0.2,0.1,0.8-0.4,0.8-0.7
	C176.1,176.8,175.7,176.4,175.3,175.8z"/>
<path class="st0" d="M195.2,161.1c-0.5-0.4-0.8-0.7-1.1-0.7c-0.3,0-0.6,0.4-0.8,0.7c0.3,0.3,0.5,0.7,0.9,0.8
	C194.4,162,194.7,161.5,195.2,161.1z"/>
<path class="st0" d="M253.7,409.2c-0.4-0.1-0.8-0.1-1.2-0.2c-1.7-0.1-2.9,1.1-2.9,2.7c0.1,1.5,1.3,2.6,2.7,2.5
	c1.6-0.1,2.7-1.5,2.4-3.1c-0.1-0.4-0.2-0.8-0.3-1.1C254.2,409.6,254,409.4,253.7,409.2z"/>
<path class="st0" d="M143.2,603c1.9-2,1.8-5.2-0.2-7.1c-2-1.9-5.2-1.9-7.1,0.2c-1.9,2-1.8,5.2,0.2,7.1
	C138.1,605.1,141.2,605,143.2,603z"/>
<path class="st0" d="M8.3,549.2c2,1.9,5.2,1.8,7.1-0.3c1.8-2,1.7-5.1-0.3-7c-2-1.9-5.2-1.8-7.1,0.2C6.1,544.2,6.2,547.3,8.3,549.2z"
	/>
<path class="st0" d="M381,369.2c1.9-2,1.9-5.2-0.2-7.1c-2-1.9-5.2-1.8-7.1,0.3c-1.8,2-1.8,5.1,0.2,7
	C375.9,371.3,379,371.2,381,369.2z"/>
<path class="st0" d="M33,397.8c1.9-2,1.8-5.1-0.2-6.9c-2-1.9-5.1-1.8-6.9,0.2c-1.9,2-1.8,5,0.2,6.9C28,399.8,31.1,399.8,33,397.8z"
	/>
<path class="st0" d="M190.4,448c1.8,1.7,4.7,1.7,6.5-0.1c1.7-1.8,1.6-4.7-0.2-6.4c-1.8-1.7-4.6-1.6-6.3,0.1
	C188.5,443.3,188.6,446.2,190.4,448z"/>
<path class="st0" d="M376.9,233.1c-1.9-1.7-4.7-1.6-6.4,0.3c-1.7,1.9-1.6,4.8,0.3,6.5c1.9,1.7,4.8,1.5,6.5-0.3
	C378.9,237.6,378.7,234.8,376.9,233.1z"/>
<path class="st0" d="M30.6,466.4c-1.8-1.7-4.8-1.6-6.5,0.3c-1.6,1.8-1.5,4.6,0.3,6.3c1.9,1.8,4.7,1.6,6.5-0.3
	C32.5,470.9,32.4,468.1,30.6,466.4z"/>
<path class="st0" d="M389.8,341.8c1.8,1.6,4.7,1.4,6.3-0.4c1.7-1.9,1.5-4.7-0.4-6.4c-1.9-1.6-4.7-1.4-6.3,0.4
	C387.7,337.2,387.9,340.1,389.8,341.8z"/>
<path class="st0" d="M69.8,559.1c1.7-1.8,1.5-4.6-0.3-6.3c-1.8-1.7-4.6-1.6-6.3,0.2c-1.7,1.8-1.6,4.8,0.3,6.4
	C65.3,561.1,68.1,561,69.8,559.1z"/>
<path class="st0" d="M134.8,355.7c-1.8-1.7-4.7-1.5-6.3,0.3c-1.6,1.8-1.5,4.5,0.2,6.2c1.8,1.7,4.6,1.6,6.3-0.2
	C136.7,360.2,136.6,357.3,134.8,355.7z"/>
<path class="st0" d="M102.1,511.1c1.8,1.6,4.5,1.5,6.1-0.3c1.6-1.8,1.5-4.5-0.2-6.2c-1.8-1.7-4.6-1.5-6.3,0.3
	C100.1,506.8,100.3,509.5,102.1,511.1z"/>
<path class="st0" d="M43.9,315.2c1.7-1.7,1.6-4.5-0.1-6.2c-1.7-1.7-4.5-1.6-6.2,0.1c-1.7,1.7-1.6,4.5,0.1,6.2
	C39.5,317,42.3,316.9,43.9,315.2z"/>
<path class="st0" d="M131.2,432.5c1.6-1.7,1.5-4.5-0.3-6.2c-1.8-1.6-4.4-1.5-6,0.3c-1.6,1.7-1.6,4.4,0.1,6
	C126.8,434.3,129.6,434.2,131.2,432.5z"/>
<path class="st0" d="M69.7,509.8c1.6-1.7,1.5-4.3-0.2-5.9c-1.7-1.7-4.4-1.6-6,0.2c-1.6,1.7-1.5,4.3,0.2,5.9
	C65.4,511.6,68.1,511.5,69.7,509.8z"/>
<path class="st0" d="M159.1,446.8c-1.7-1.5-4.2-1.3-5.7,0.3c-1.5,1.7-1.3,4.4,0.5,5.8c1.7,1.4,4.3,1.2,5.7-0.5
	C161,450.9,160.8,448.3,159.1,446.8z"/>
<path class="st0" d="M278.2,322.6c-1.7-1.6-4.3-1.4-5.8,0.3c-1.5,1.7-1.4,4.2,0.3,5.7c1.7,1.6,4.3,1.4,5.8-0.3
	C280,326.6,279.8,324.1,278.2,322.6z"/>
<path class="st0" d="M328.1,377.2c-1.5,1.6-1.5,4.1,0,5.6c1.6,1.6,4.2,1.5,5.7-0.1c1.5-1.6,1.4-4.2-0.2-5.7
	C332.1,375.5,329.6,375.6,328.1,377.2z"/>
<path class="st0" d="M80.2,462.7c1.5-1.6,1.3-4.1-0.3-5.5c-1.6-1.5-4.1-1.3-5.6,0.3c-1.4,1.6-1.3,4.1,0.3,5.6
	C76.3,464.5,78.7,464.3,80.2,462.7z"/>
<path class="st0" d="M99.9,659.3c-1.6-1.5-4.1-1.4-5.5,0.1c-1.5,1.5-1.4,4.1,0.2,5.5c1.6,1.5,4.1,1.4,5.5-0.1
	C101.5,663.3,101.4,660.8,99.9,659.3z"/>
<path class="st0" d="M125.9,451.1c1.4,1.4,3.7,1.3,5.1,0c1.4-1.4,1.4-3.8-0.1-5.2c-1.4-1.3-3.8-1.2-5.1,0.2
	C124.4,447.4,124.5,449.7,125.9,451.1z"/>
<path class="st0" d="M58.4,404.7c1.3-1.4,1.3-3.8-0.2-5.1c-1.4-1.3-3.8-1.2-5.1,0.2c-1.3,1.4-1.2,3.7,0.2,5
	C54.8,406.1,57.1,406.1,58.4,404.7z"/>
<path class="st0" d="M76.9,376.2c-1.4-1.3-3.6-1.2-5,0.1c-1.3,1.4-1.2,3.6,0.1,5c1.2,1.2,4.9,1.2,5.9,0
	C78.6,380.5,77.9,377.1,76.9,376.2z"/>
<path class="st0" d="M361.9,260.3c1.3-1.4,1.1-3.7-0.2-4.9c-1.4-1.3-3.8-1.2-5.1,0.3c-1.2,1.5-1.1,3.7,0.4,4.9
	C358.4,261.9,360.6,261.7,361.9,260.3z"/>
<path class="st0" d="M38.4,346.2c1.4,1.3,3.7,1.2,4.9-0.2c1.3-1.4,1.2-3.6-0.2-4.9c-1.4-1.3-3.5-1.2-4.8,0.1
	C37,342.6,37,344.9,38.4,346.2z"/>
<path class="st0" d="M90.9,603.6c1.3-1.4,1.2-3.5-0.2-4.8c-1.3-1.2-3.4-1.1-4.7,0.2c-1.3,1.3-1.3,3.5,0.1,4.8
	C87.5,605.1,89.7,605,90.9,603.6z"/>
<path class="st0" d="M87.9,320.8c1.2-1.3,1.1-3.3-0.1-4.5c-1.3-1.3-3.4-1.2-4.6,0.1c-1.2,1.3-1.1,3.4,0.3,4.6
	C84.7,322.2,86.7,322.1,87.9,320.8z"/>
<path class="st0" d="M200.2,548.5c-1.2-1.1-3.2-1-4.3,0.2c-1.2,1.3-1,3.3,0.3,4.4c1.3,1.1,3.2,0.9,4.3-0.3
	C201.5,551.5,201.4,549.6,200.2,548.5z"/>
<path class="st0" d="M17.7,509.7c-1.2-1.1-3.1-1-4.2,0.2c-1.1,1.2-1,3.2,0.3,4.3c1.2,1.1,3.1,0.9,4.2-0.3
	C19,512.7,18.9,510.8,17.7,509.7z"/>
<path class="st0" d="M-3,628.2c1.1-1.2,1.1-3-0.1-4.2c-1.2-1.2-3.2-1.1-4.3,0.2c-1.1,1.2-1,3.1,0.3,4.2
	C-5.9,629.4-4.1,629.4-3,628.2z"/>
<path class="st0" d="M369.1,266.4c1.2,1.1,3.1,1,4.2-0.2c1.1-1.2,1-3.1-0.2-4.2c-1.2-1.1-3.1-1-4.2,0.2
	C367.9,263.4,368,265.3,369.1,266.4z"/>
<path class="st0" d="M183.3,539.4c1.1-1.2,0.9-3.2-0.3-4.2c-1.2-1-3-0.8-4,0.3c-1.1,1.2-1,3.1,0.3,4.1
	C180.5,540.7,182.3,540.6,183.3,539.4z"/>
<path class="st0" d="M137.9,452.1c-1.1-1.1-2.9-1-4,0.1c-1.1,1.1-1,2.9,0.1,4c1.1,1.1,2.9,1,4-0.2C139.1,455,139,453.2,137.9,452.1z
	"/>
<path class="st0" d="M128.1,550.9c1.1-1.1,1-3-0.2-4c-1.1-1-2.9-1-3.9,0.1c-1.1,1.1-1.1,2.9,0.1,4C125.2,552,127.1,552,128.1,550.9z
	"/>
<path class="st0" d="M82.8,288.2c-1.2-1.1-2.9-1-4,0.2c-1,1.2-0.9,3,0.3,4c1.1,1,2.8,0.9,3.9-0.2C84,291.1,83.9,289.3,82.8,288.2z"
	/>
<path class="st0" d="M193.3,429.9c1.1,1,2.8,0.9,3.8-0.1c1-1.1,1-2.8-0.1-3.8c-1.1-1-2.8-1-3.8,0.1
	C192.2,427.1,192.2,428.9,193.3,429.9z"/>
<path class="st0" d="M62.1,364c0.9-1,0.9-2.6-0.1-3.6c-1-1-2.7-0.9-3.7,0.1c-0.9,1.1-0.8,2.8,0.3,3.7
	C59.6,365.2,61.2,365.1,62.1,364z"/>
<path class="st0" d="M69.4,621.9c0.8-1,0.7-2.6-0.3-3.4c-1-0.8-2.4-0.7-3.2,0.3c-0.8,0.9-0.7,2.4,0.1,3.3
	C66.9,622.9,68.6,622.8,69.4,621.9z"/>
<path class="st0" d="M234.2,485.9c0.9,0.8,2.4,0.8,3.3-0.1c0.9-0.9,0.9-2.5-0.1-3.4c-0.9-0.8-2.4-0.7-3.2,0.2
	C233.3,483.5,233.3,485,234.2,485.9z"/>
<path class="st0" d="M191.5,536.2c0.8-0.9,0.7-2.4-0.2-3.2c-0.9-0.9-2.4-0.8-3.2,0.1c-0.9,1-0.8,2.5,0.2,3.3
	C189.2,537.2,190.7,537.1,191.5,536.2z"/>
<path class="st0" d="M105.2,478.3c0.9,0.8,2.5,0.7,3.2-0.2c0.8-0.9,0.7-2.5-0.2-3.2c-0.9-0.8-2.4-0.7-3.2,0.2
	C104.2,476.1,104.3,477.5,105.2,478.3z"/>
<path class="st0" d="M90.2,620.4c0.8-0.9,0.7-2.3-0.2-3.1c-0.9-0.8-2.3-0.7-3.1,0.2c-0.8,0.9-0.7,2.4,0.2,3.1
	C88,621.4,89.4,621.3,90.2,620.4z"/>
<path class="st0" d="M68.6,479.3c-1.1-0.7-2.2-0.7-3.1,0.2c-0.9,0.9-0.7,2.4,0.2,3.2c1.1,0.8,2.2,0.7,3-0.3
	C69.6,481.4,69.4,480.3,68.6,479.3z"/>
<path class="st0" d="M124.2,524.5c-1-0.8-2-0.8-2.9,0.1c-0.9,0.9-0.8,2,0,2.9c0.8,0.9,2.3,0.9,3.1-0.1
	C125.2,526.5,125.1,525.5,124.2,524.5z"/>
<path class="st0" d="M34.9,485.3c0.9-0.2,2,0,2.7-0.5c1-0.7,0.9-1.9,0.1-2.7c-0.8-0.9-2-1-2.7,0c-0.5,0.7-0.4,1.8-0.6,2.7
	C34.5,484.9,34.7,485.1,34.9,485.3z"/>
<path class="st0" d="M20.5,496.4c-0.9,0.2-1.9,0.2-2.6,0.7c-0.9,0.7-0.8,1.9,0.1,2.7c0.9,0.8,2,0.8,2.7-0.2c0.4-0.7,0.3-1.8,0.4-2.6
	C20.9,496.8,20.7,496.6,20.5,496.4z"/>
<path class="st0" d="M48.8,477.1c-0.2-0.9-0.1-2.1-0.7-2.5c-0.5-0.4-1.9-0.3-2.5,0.1c-1,0.7-0.9,1.9,0.1,2.6
	c0.6,0.4,1.7,0.3,2.5,0.4C48.4,477.4,48.6,477.3,48.8,477.1z"/>
<path class="st0" d="M311.8,321.7c1.4-0.2,2.5-0.1,2.9-0.6c0.4-0.5,0.4-1.8,0.1-2.4c-0.6-1-1.8-0.9-2.5-0.1
	C311.9,319.3,312,320.3,311.8,321.7z"/>
<path class="st0" d="M271.1,443.6c-0.8,0.2-1.9,0.2-2.3,0.7c-0.4,0.5-0.3,1.9,0.1,2.2c0.6,0.4,1.8,0.4,2.4,0
	c0.5-0.4,0.3-1.5,0.4-2.3C271.5,443.9,271.3,443.8,271.1,443.6z"/>
<path class="st0" d="M94.3,287.1c1.2-0.2,2.3-0.1,2.5-0.5c0.3-0.5,0-1.5,0-2.2c-0.7,0-1.7-0.2-2.1,0.2
	C94.4,284.9,94.5,285.9,94.3,287.1z"/>
<path class="st0" d="M335.6,656.9c2.3,0,4.1-1.8,4-4.1c0-2.2-1.8-4-4-4c-2.3,0-4.1,1.8-4.1,4C331.5,655.1,333.3,656.9,335.6,656.9z"
	/>
<path class="st0" d="M294.7,655.1c0-2.3-1.8-4.1-4-4.1c-2.2,0-4.1,1.8-4,4.1c0,2.2,1.8,4,4,4C292.8,659.1,294.7,657.3,294.7,655.1z"
	/>
<path class="st0" d="M216.9,576.6c-2.1,0-3.7,1.7-3.6,3.8c0,2.1,1.7,3.7,3.8,3.7c2,0,3.7-1.7,3.6-3.8
	C220.7,578.2,219,576.5,216.9,576.6z"/>
<path class="st0" d="M303,595.4c-2,0-3.7,1.7-3.7,3.8c0,2,1.7,3.6,3.7,3.6c2.1,0,3.7-1.7,3.7-3.7C306.6,597,305,595.4,303,595.4z"/>
<path class="st0" d="M284.8,633.9c2-0.1,3.6-1.7,3.5-3.7c0-2.1-1.7-3.7-3.8-3.6c-2,0.1-3.6,1.7-3.5,3.7
	C281,632.3,282.7,634,284.8,633.9z"/>
<path class="st0" d="M377.6,628.8c0-2-1.6-3.6-3.7-3.6c-2,0-3.6,1.6-3.6,3.6c0,2,1.7,3.7,3.8,3.6C376,632.4,377.6,630.8,377.6,628.8
	z"/>
<path class="st0" d="M370.2,582.4c2,0,3.5-1.6,3.5-3.6c0-2-1.6-3.5-3.6-3.5c-2,0-3.6,1.7-3.6,3.7
	C366.6,580.9,368.2,582.4,370.2,582.4z"/>
<path class="st0" d="M350.2,599.5c0-1.9-1.5-3.4-3.4-3.4c-1.9,0-3.5,1.5-3.5,3.4c0,1.9,1.5,3.4,3.4,3.4
	C348.7,603,350.2,601.4,350.2,599.5z"/>
<path class="st0" d="M207.9,684.3c-1.9,0-3.3,1.5-3.3,3.4c0.1,1.8,1.5,3.2,3.3,3.2c1.9,0,3.3-1.5,3.3-3.4
	C211.2,685.7,209.7,684.3,207.9,684.3z"/>
<path class="st0" d="M267.8,689c0,1.8,1.4,3.2,3.1,3.3c1.8,0.1,3.3-1.4,3.4-3.2c0-1.8-1.5-3.3-3.3-3.3
	C269.2,685.8,267.8,687.3,267.8,689z"/>
<path class="st0" d="M330.4,565.8c0-1.8-1.4-3.2-3.2-3.1c-1.8,0-3.2,1.5-3.1,3.2c0,1.8,1.5,3.2,3.3,3.1
	C329,569,330.4,567.6,330.4,565.8z"/>
<path class="st0" d="M223.1,601c0-1.5-1.4-2.8-2.9-2.8c-1.6,0-2.9,1.4-2.8,3c0.1,1.6,1.4,2.8,2.9,2.7
	C221.9,603.9,223.2,602.6,223.1,601z"/>
<path class="st0" d="M319.3,628.3c-1.3,0-2.4,1.1-2.4,2.4c0,1.4,1.2,2.5,2.5,2.4c1.3-0.1,2.3-1.2,2.3-2.5
	C321.7,629.3,320.6,628.3,319.3,628.3z"/>
<path class="st0" d="M372.6,710c0-1.3-1.1-2.4-2.4-2.4c-1.4,0-2.5,1.1-2.4,2.5c0,1.3,1.1,2.3,2.5,2.3
	C371.5,712.4,372.6,711.3,372.6,710z"/>
<path class="st0" d="M230.8,600.6c1.3,0,2.4-1.2,2.4-2.4c0-1.3-1.1-2.4-2.4-2.4c-1.3,0-2.4,1.1-2.3,2.4
	C228.4,599.5,229.5,600.6,230.8,600.6z"/>
<path class="st0" d="M332.7,582.1c-1,0.2-1.7,0.8-1.7,1.8c0,1,0.9,1.9,1.9,1.7c1.1-0.1,1.7-0.8,1.6-1.8
	C334.4,582.7,333.7,582.2,332.7,582.1z"/>
<path class="st0" d="M316,604.2c0.5-0.6,1.2-1.1,1.3-1.8c0.2-0.9-0.5-1.6-1.5-1.6c-1,0-1.7,0.5-1.6,1.5c0.1,0.7,0.7,1.3,1.1,1.9
	C315.6,604.2,315.8,604.2,316,604.2z"/>
<path class="st0" d="M313.6,618.8c-0.4,0.6-1,1.2-1.1,1.8c-0.1,1,0.6,1.5,1.6,1.5c1,0,1.7-0.6,1.5-1.6c-0.1-0.7-0.8-1.2-1.2-1.8
	C314,618.8,313.8,618.8,313.6,618.8z"/>
<path class="st0" d="M319.7,591.7c-0.6-0.4-1.2-1.2-1.8-1.1c-0.5,0-1.3,0.9-1.4,1.4c-0.2,0.9,0.5,1.6,1.5,1.5
	c0.6-0.1,1.1-0.7,1.7-1.1C319.7,592.1,319.7,591.9,319.7,591.7z"/>
<path class="st0" d="M227.4,665.2c0.7-0.9,1.4-1.4,1.4-2c0-0.5-0.7-1.3-1.3-1.4c-0.9-0.2-1.6,0.5-1.5,1.3
	C226.1,663.7,226.8,664.2,227.4,665.2z"/>
<path class="st0" d="M292.7,704.4c-0.5-0.4-0.8-1-1.1-0.9c-0.4,0.1-0.7,0.5-1.1,0.8c0.3,0.3,0.6,0.8,1,0.9
	C291.7,705.3,292.1,704.8,292.7,704.4z"/>
<path class="st0" d="M345.9,572.9c-0.6-0.4-1-0.8-1.3-0.8c-0.3,0-0.9,0.6-0.8,0.8c0.1,0.4,0.5,0.8,0.9,0.9
	C344.9,573.9,345.3,573.4,345.9,572.9z"/>
<path class="st0" d="M319.3,598.8c-0.4,0.5-0.9,0.9-0.9,1.2c0,0.3,0.5,0.7,0.8,0.8c0.2,0.1,0.8-0.4,0.8-0.7
	C320.1,599.8,319.7,599.4,319.3,598.8z"/>
<path class="st0" d="M339.2,584.1c-0.5-0.4-0.8-0.7-1.1-0.7c-0.3,0-0.6,0.4-0.8,0.7c0.3,0.3,0.5,0.7,0.9,0.8
	C338.4,585,338.7,584.5,339.2,584.1z"/>
<path class="st0" d="M278.8,778.7c-1.8-1.7-4.7-1.5-6.3,0.3c-1.6,1.8-1.5,4.5,0.2,6.2c1.8,1.7,4.6,1.6,6.3-0.2
	C280.7,783.2,280.6,780.3,278.8,778.7z"/>
<path class="st0" d="M187.9,738.2c1.7-1.7,1.6-4.5-0.1-6.2c-1.7-1.7-4.5-1.6-6.2,0.1c-1.7,1.7-1.6,4.5,0.1,6.2
	C183.5,740,186.3,739.9,187.9,738.2z"/>
<path class="st0" d="M182.4,769.2c1.4,1.3,3.7,1.2,4.9-0.2c1.3-1.4,1.2-3.6-0.2-4.9c-1.4-1.3-3.5-1.2-4.8,0.1
	C181,765.6,181,767.9,182.4,769.2z"/>
<path class="st0" d="M231.9,743.8c1.2-1.3,1.1-3.3-0.1-4.5c-1.3-1.3-3.4-1.2-4.6,0.1c-1.2,1.3-1.1,3.4,0.3,4.6
	C228.7,745.2,230.7,745.1,231.9,743.8z"/>
<path class="st0" d="M226.8,711.2c-1.2-1.1-2.9-1-4,0.2c-1,1.2-0.9,3,0.3,4c1.1,1,2.8,0.9,3.9-0.2
	C228,714.1,227.9,712.3,226.8,711.2z"/>
<path class="st0" d="M206.1,787c0.9-1,0.9-2.6-0.1-3.6c-1-1-2.7-0.9-3.7,0.1c-0.9,1.1-0.8,2.8,0.3,3.7
	C203.6,788.2,205.2,788.1,206.1,787z"/>
<path class="st0" d="M238.3,710.1c1.2-0.2,2.3-0.1,2.5-0.5c0.3-0.5,0-1.5,0-2.2c-0.7,0-1.7-0.2-2.1,0.2
	C238.4,707.9,238.5,708.9,238.3,710.1z"/>
<path class="st0" d="M325.9,73.7c1.1-1.1,1-2.9-0.1-4c-1.1-1.1-2.9-1-4,0.1c-1.1,1.1-1,2.9,0.1,4C323,74.9,324.8,74.9,325.9,73.7z"
	/>
<path class="st0" d="M322.3,93.8c0.9,0.8,2.4,0.8,3.2-0.1c0.8-0.9,0.8-2.3-0.2-3.2c-0.9-0.8-2.3-0.8-3.1,0.1
	C321.4,91.4,321.4,92.9,322.3,93.8z"/>
<path class="st0" d="M354.2,77.4c0.8-0.8,0.7-2.1-0.1-2.9c-0.8-0.8-2.2-0.8-3,0.1c-0.8,0.9-0.7,2.2,0.2,3
	C352.2,78.3,353.4,78.2,354.2,77.4z"/>
<path class="st0" d="M350.9,56.4c-0.7-0.7-1.9-0.6-2.6,0.1c-0.7,0.8-0.6,1.9,0.2,2.6c0.7,0.6,1.8,0.6,2.5-0.1
	C351.7,58.2,351.7,57.1,350.9,56.4z"/>
<path class="st0" d="M358.4,55.6c0.8-0.1,1.5-0.1,1.6-0.3c0.2-0.3,0-0.9,0-1.4c-0.5,0-1.1-0.1-1.3,0.1
	C358.4,54.2,358.5,54.9,358.4,55.6z"/>
<path class="st0" d="M153.4,470.6c-0.2-1.1-0.2-2-0.6-2.3c-0.4-0.3-1.4-0.2-1.9,0.2c-0.3,0.2-0.3,1.4,0.1,1.7
	C151.5,470.5,152.3,470.4,153.4,470.6z"/>
<path class="st0" d="M94.2,618.1c-0.3-1.2-0.3-1.9-0.6-2.2c-0.3-0.3-1.3-0.2-1.6,0.1c-0.3,0.3-0.3,1.3-0.1,1.6
	C92.2,617.9,93,617.8,94.2,618.1z"/>
<path class="st0" d="M337.7,412c-0.1-0.8,0.1-1.6-0.2-1.7c-0.4-0.3-1.1-0.1-1.6-0.2c0,0.6-0.2,1.2,0.1,1.6
	C336.1,412,336.9,411.9,337.7,412z"/>
<path class="st0" d="M24.2,641.3c0-0.5,0.1-0.9,0.1-1.4c0-2-1.5-3.3-3.4-3.1c-1.7,0.2-2.9,1.7-2.7,3.4c0.2,1.8,2,3,3.8,2.5
	c0.5-0.1,0.9-0.3,1.3-0.5C23.7,641.9,23.9,641.6,24.2,641.3z"/>
<path class="st0" d="M80,787.4c2.5,2.1,6.2,1.8,8.3-0.7c2.1-2.5,1.7-6.2-0.8-8.3c-2.5-2-6.1-1.7-8.1,0.7
	C77.2,781.6,77.5,785.3,80,787.4z"/>
<path class="st0" d="M112.7,795.8c-1.8,2.3-1.3,5.6,0.9,7.4c2.4,1.9,5.6,1.5,7.5-0.9c1.8-2.3,1.4-5.6-0.9-7.4
	C117.9,793.1,114.5,793.5,112.7,795.8z"/>
<path class="st0" d="M66.9,726.2c-1.9-1.6-4.8-1.4-6.5,0.5c-1.7,1.9-1.5,5,0.5,6.7c2,1.7,5,1.4,6.7-0.6
	C69.1,730.7,68.9,727.8,66.9,726.2z"/>
<path class="st0" d="M-67,623.9c-0.9,1.1-0.8,2.9,0.3,3.8c1.2,1,3,0.9,3.9-0.4c0.9-1.2,0.7-2.9-0.5-3.8
	C-64.3,622.6-66,622.8-67,623.9z"/>
<path class="st0" d="M-14.9,664.1c-0.3-0.9-0.3-2.2-1-2.6c-0.6-0.4-2.3-0.2-2.6,0.2c-0.4,0.7-0.3,2.2,0.2,2.8
	c0.5,0.5,1.8,0.3,2.8,0.3C-15.2,664.6-15.1,664.3-14.9,664.1z"/>
<path class="st0" d="M61.8,964.3c1.2,1.6,1.1,3.7-0.4,4.9c-1.5,1.2-3.6,0.8-4.9-0.7c-1.2-1.5-1-3.8,0.4-4.9
	C58.4,962.4,60.5,962.7,61.8,964.3z"/>
<path class="st0" d="M-9,844.4c-2,0-3.7,1.7-3.7,3.8c0,2,1.7,3.6,3.7,3.6c2.1,0,3.7-1.7,3.7-3.7C-5.4,846-7,844.4-9,844.4z"/>
<path class="st0" d="M-19.9,946c-1.2-1.5-1-3.7,0.5-4.8c1.5-1.2,3.6-0.8,4.8,0.8c1.2,1.5,1,3.7-0.4,4.8
	C-16.5,947.9-18.7,947.6-19.9,946z"/>
<path class="st0" d="M65.6,877.8c0-2-1.6-3.6-3.7-3.6c-2,0-3.6,1.6-3.6,3.6c0,2,1.7,3.7,3.8,3.6C64,881.4,65.6,879.8,65.6,877.8z"/>
<path class="st0" d="M58.2,831.4c2,0,3.5-1.6,3.5-3.6c0-2-1.6-3.5-3.6-3.5c-2,0-3.6,1.7-3.6,3.7C54.6,829.9,56.2,831.4,58.2,831.4z"
	/>
<path class="st0" d="M38.2,848.5c0-1.9-1.5-3.4-3.4-3.4c-1.9,0-3.5,1.5-3.5,3.4c0,1.9,1.5,3.4,3.4,3.4
	C36.7,852,38.2,850.4,38.2,848.5z"/>
<path class="st0" d="M18.4,814.8c0-1.8-1.4-3.2-3.2-3.1c-1.8,0-3.2,1.5-3.1,3.2c0,1.8,1.5,3.2,3.3,3.1C17,818,18.4,816.6,18.4,814.8
	z"/>
<path class="st0" d="M40.8,973.6c1.1-0.8,2.8-0.6,3.7,0.6c1,1.2,0.8,3-0.4,3.8c-1.1,0.8-2.8,0.5-3.7-0.7
	C39.6,976.1,39.7,974.4,40.8,973.6z"/>
<path class="st0" d="M7.3,877.3c-1.3,0-2.4,1.1-2.4,2.4c0,1.4,1.2,2.5,2.5,2.4c1.3-0.1,2.3-1.2,2.3-2.5
	C9.7,878.3,8.6,877.3,7.3,877.3z"/>
<path class="st0" d="M36.5,967.6c-0.8-1-0.6-2.5,0.3-3.2c0.9-0.7,2.4-0.5,3.1,0.5c0.8,1,0.7,2.4-0.3,3.2
	C38.7,968.8,37.2,968.6,36.5,967.6z"/>
<path class="st0" d="M20.7,831.1c-1,0.2-1.7,0.8-1.7,1.8c0,1,0.9,1.9,1.9,1.7c1.1-0.1,1.7-0.8,1.6-1.8
	C22.4,831.7,21.7,831.2,20.7,831.1z"/>
<path class="st0" d="M4,853.2c0.5-0.6,1.2-1.1,1.3-1.8c0.2-0.9-0.5-1.6-1.5-1.6c-1,0-1.7,0.5-1.6,1.5c0.1,0.7,0.7,1.3,1.1,1.9
	C3.6,853.2,3.8,853.2,4,853.2z"/>
<path class="st0" d="M1.6,867.8c-0.4,0.6-1,1.2-1.1,1.8c-0.1,1,0.6,1.5,1.6,1.5c1,0,1.7-0.6,1.5-1.6c-0.1-0.7-0.8-1.2-1.2-1.8
	C2,867.8,1.8,867.8,1.6,867.8z"/>
<path class="st0" d="M7.7,840.7c-0.6-0.4-1.2-1.2-1.8-1.1c-0.5,0-1.3,0.9-1.4,1.4c-0.2,0.9,0.5,1.6,1.5,1.5c0.6-0.1,1.1-0.7,1.7-1.1
	C7.7,841.1,7.7,840.9,7.7,840.7z"/>
<path class="st0" d="M33.9,821.9c-0.6-0.4-1-0.8-1.3-0.8c-0.3,0-0.9,0.6-0.8,0.8c0.1,0.4,0.5,0.8,0.9,0.9
	C32.9,822.9,33.3,822.4,33.9,821.9z"/>
<path class="st0" d="M7.3,847.8c-0.4,0.5-0.9,0.9-0.9,1.2c0,0.3,0.5,0.7,0.8,0.8c0.2,0.1,0.8-0.4,0.8-0.7
	C8.1,848.8,7.7,848.4,7.3,847.8z"/>
<path class="st0" d="M27.2,833.1c-0.5-0.4-0.8-0.7-1.1-0.7c-0.3,0-0.6,0.4-0.8,0.7c0.3,0.3,0.5,0.7,0.9,0.8
	C26.4,834,26.7,833.5,27.2,833.1z"/>
<path class="st0" d="M26.8,739.8c0.9-0.1,1.8,0,2-0.4c0.3-0.5,0.1-1.3,0.1-1.9c-0.7,0-1.5-0.1-1.9,0.2
	C26.7,737.9,26.9,738.8,26.8,739.8z"/>
<path class="st0" d="M1883.5,178.4c3.6,1.4,7.5-0.4,8.9-4c1.4-3.6-0.4-7.6-4-8.9c-3.6-1.3-7.6,0.5-8.9,4
	C1878.1,173.1,1879.9,177.1,1883.5,178.4z"/>
<path class="st0" d="M1856.6,1.6c-1.3,3.6,0.5,7.5,4.2,8.8c3.5,1.2,7.4-0.5,8.7-4c1.4-3.6-0.4-7.5-4-8.9
	C1861.8-3.9,1857.9-2.1,1856.6,1.6z"/>
<path class="st0" d="M1899.9,61.9c3.2,1.1,6.7-0.5,7.8-3.8c1.1-3.2-0.5-6.7-3.7-7.9c-3.2-1.2-6.9,0.6-8,3.9
	C1895,57.3,1896.7,60.8,1899.9,61.9z"/>
<path class="st0" d="M1860.1,269.2c-1.1,3.2,0.5,6.5,3.7,7.6c3.2,1.1,6.5-0.5,7.7-3.6c1.2-3.2-0.5-6.7-3.8-7.8
	C1864.6,264.4,1861.2,266,1860.1,269.2z"/>
<path class="st0" d="M1844.5,227.4c3,1.1,6.2-0.4,7.3-3.4c1.2-3.1-0.4-6.4-3.4-7.5c-3-1.1-6.3,0.4-7.4,3.4
	C1839.8,222.9,1841.4,226.3,1844.5,227.4z"/>
<path class="st0" d="M1788.9,153.6c1-2.8-0.4-5.9-3.1-7c-2.8-1-5.9,0.4-7,3.2c-1,2.8,0.4,5.9,3.1,7
	C1784.7,157.8,1787.9,156.4,1788.9,153.6z"/>
<path class="st0" d="M1854.8,112.5c2.4,0.9,5.1-0.4,6-2.8c0.8-2.3-0.4-4.9-2.7-5.8c-2.4-0.9-5.1,0.3-6,2.7
	C1851.1,108.9,1852.4,111.6,1854.8,112.5z"/>
<path class="st0" d="M1773.4,6.5c2.1,0.8,4.4-0.3,5.2-2.4c0.8-2.2-0.3-4.6-2.5-5.3c-2.1-0.7-4.4,0.4-5.1,2.6
	C1770.2,3.4,1771.3,5.7,1773.4,6.5z"/>
<path class="st0" d="M1823.6,323.5c2,0.7,4.3-0.4,5-2.4c0.7-1.9-0.3-4.1-2.2-4.9c-2-0.8-4.3,0.2-5.1,2.2
	C1820.6,320.4,1821.6,322.7,1823.6,323.5z"/>
<path class="st0" d="M1820.1,95c1.7,0.6,3.6-0.5,4.1-2.2c0.5-1.6-0.5-3.4-2.1-4c-1.6-0.5-3.5,0.4-4.1,1.9
	C1817.5,92.3,1818.5,94.4,1820.1,95z"/>
<path class="st0" d="M1833.1,120.6c1.6,0.6,3.3-0.3,3.8-1.9c0.5-1.6-0.3-3.3-1.9-3.8c-1.5-0.5-3.4,0.4-3.9,1.9
	C1830.7,118.3,1831.6,120,1833.1,120.6z"/>
<path class="st0" d="M1854.9,304.5c0.4-1.7-0.1-3-1.7-3.7c-1.6-0.6-3,0-3.7,1.6c-0.7,1.5,0.2,3.4,1.7,3.8
	C1852.9,306.7,1854.2,306.1,1854.9,304.5z"/>
<path class="st0" d="M1838.1,124.3c1.3-1,2.3-1.4,2.5-2c0.2-0.5-0.4-1.8-0.9-2c-0.5-0.2-1.8,0.3-2,0.8
	C1837.4,121.7,1837.9,122.7,1838.1,124.3z"/>
<path class="st0" d="M1889.4,236c1-0.7,1.9-1.1,2.1-1.7c0.2-0.5-0.5-1.7-0.8-1.8c-0.7-0.1-1.6,0.4-2,0.9
	C1888.4,233.9,1889,234.8,1889.4,236z"/>
<path class="st0" d="M1764.3,118.1c0.6,1,0.9,2,1.3,2.1c0.5,0.1,1.5-0.3,1.8-0.8c0.2-0.3-0.2-1.5-0.7-1.6
	C1766.3,117.5,1765.5,117.9,1764.3,118.1z"/>
<path class="st0" d="M1875.4,218.9c0.8-0.6,1.6-0.8,1.8-1.3c0.1-0.5-0.4-1.1-0.6-1.7c-0.6,0.3-1.5,0.4-1.8,0.9
	C1874.6,217.1,1875.1,217.9,1875.4,218.9z"/>
<path class="st0" d="M1606.1,61.7c0.1-0.2,0.3-0.5,0.4-0.7c0.5-1.1,0-2.2-1.1-2.6c-1-0.3-2,0.2-2.3,1.2c-0.3,1.1,0.4,2.2,1.5,2.4
	c0.3,0,0.6,0,0.8,0.1C1605.7,61.9,1605.9,61.8,1606.1,61.7z"/>
<path class="st0" d="M1574,121.6c1.3,2.5,4.2,3.5,6.7,2.3c2.5-1.3,3.5-4.3,2.2-6.8c-1.2-2.4-4.2-3.4-6.6-2.2
	C1573.8,116.1,1572.7,119.1,1574,121.6z"/>
<path class="st0" d="M1595.7,9.9c-1.6,0.8-2.3,2.7-1.5,4.3c0.8,1.6,2.7,2.3,4.4,1.4c1.6-0.8,2.2-2.7,1.5-4.3
	C1599.3,9.8,1597.3,9.1,1595.7,9.9z"/>
<path class="st0" d="M1772.7,274.2c3.8-2,5.2-6.6,3.2-10.5c-2-3.8-6.7-5.3-10.5-3.3c-3.8,2-5.2,6.7-3.2,10.5
	C1764.2,274.8,1768.9,276.2,1772.7,274.2z"/>
<path class="st0" d="M1596.8,139.5c-2.2,1.2-3,3.9-1.8,6.1c1.2,2.3,3.9,3.1,6.2,1.8c2.2-1.2,3-3.9,1.8-6.1
	C1601.8,139.1,1599,138.2,1596.8,139.5z"/>
<path class="st0" d="M1687.8,64.7c3.5-1.8,4.7-6,2.9-9.5c-1.8-3.4-5.9-4.6-9.3-2.8c-3.5,1.8-4.8,6-2.9,9.5
	C1680.3,65.2,1684.4,66.4,1687.8,64.7z"/>
<path class="st0" d="M1584.7,69c-1-2-3.3-2.8-5.3-1.9c-2,0.9-2.9,3.4-1.9,5.4c1,2,3.5,2.8,5.5,1.8
	C1584.9,73.3,1585.7,70.9,1584.7,69z"/>
<path class="st0" d="M1738,234.4c1.5,2.8,5.2,4,8,2.5c3-1.5,4.1-5.3,2.5-8.2c-1.6-2.8-5.2-3.9-8.1-2.3
	C1737.6,228,1736.5,231.6,1738,234.4z"/>
<path class="st0" d="M1724.2,242.4c-2.4,1.3-3.4,4.4-2.1,6.8c1.3,2.4,4.4,3.3,6.8,2.1c2.4-1.2,3.3-4.3,2.1-6.8
	C1729.7,242.2,1726.6,241.2,1724.2,242.4z"/>
<path class="st0" d="M1607.1,16.3c-0.9,0.5-1.3,1.7-0.9,2.6c0.5,0.9,1.7,1.3,2.6,0.9c1-0.5,1.3-1.6,0.9-2.6
	C1609.2,16.2,1608,15.8,1607.1,16.3z"/>
<path class="st0" d="M1669.5,118.8c-0.5,2.4-1.3,4.1-0.8,5c0.5,1,2.5,1.7,3.7,1.5c1.9-0.4,2.5-2.3,1.5-3.9
	C1673.2,120.3,1671.6,119.9,1669.5,118.8z"/>
<path class="st0" d="M1548.6,65.9c0.8,0.2,1.5,0.6,1.7,0.4c0.4-0.3,0.5-1,0.7-1.5c-0.5-0.2-1.1-0.6-1.6-0.5
	C1549.1,64.4,1548.9,65.2,1548.6,65.9z"/>
<path class="st0" d="M88.1,482.2c-0.2-0.9-0.2-1.6-0.5-1.9c-0.3-0.2-1.3-0.2-1.4,0.1c-0.2,0.4-0.2,1.2,0.1,1.6
	C86.5,482.2,87.2,482.1,88.1,482.2z"/>
<path class="st0" d="M69.1,665.7c0.9-0.1,1.6,0,1.8-0.3c0.2-0.3,0.2-1.1,0-1.4c-0.1-0.2-1-0.2-1.3,0
	C69.3,664.3,69.3,664.9,69.1,665.7z"/>
<path class="st0" d="M42.4,483.2c-0.9,0.1-1.6,0-1.8,0.3c-0.2,0.3-0.2,1.1,0.1,1.4c0.1,0.2,1.1,0.2,1.3,0
	C42.3,484.7,42.3,484.1,42.4,483.2z"/>
<path class="st0" d="M72.8,486.7c-0.2-0.7-0.1-1.3-0.4-1.6c-0.3-0.2-0.9-0.1-1.3-0.1c0,0.5-0.1,1.1,0.1,1.5
	C71.3,486.7,72,486.6,72.8,486.7z"/>
<path class="st0" d="M1682.2,901.3c0.3-0.2,0.5-0.4,0.8-0.6c1-0.9,1.1-2.3,0.1-3.2c-0.9-0.8-2.2-0.7-3,0.1c-0.9,1-0.7,2.4,0.4,3.2
	c0.3,0.2,0.6,0.3,0.8,0.5C1681.7,901.3,1682,901.3,1682.2,901.3z"/>
<path class="st0" d="M1636,726.2c0,2.3,1.9,4,4.1,4c2.3,0,4.1-1.9,4-4.1c0-2.3-1.9-4-4.1-4C1637.8,722.1,1636,723.9,1636,726.2z"/>
<path class="st0" d="M1744.7,680.7c-2.3,0.1-4,1.9-3.9,4.2c0.1,2.2,1.9,3.9,4.1,3.9c2.3,0,4-1.9,4-4.1
	C1748.8,682.4,1747,680.6,1744.7,680.7z"/>
<path class="st0" d="M1785.6,681.4c0,2.3,1.9,4,4.1,4c2.2-0.1,4-1.9,3.9-4.2c-0.1-2.2-1.9-3.9-4.1-3.9
	C1787.4,677.4,1785.6,679.2,1785.6,681.4z"/>
<path class="st0" d="M1816.5,782.4c0,2.2,1.9,4,4,3.9c2.2,0,3.9-1.8,3.9-4c0-2.2-1.8-4-4-3.9
	C1818.2,778.4,1816.4,780.2,1816.5,782.4z"/>
<path class="st0" d="M1696.9,842.8c-2,0-3.7,1.7-3.7,3.8c0,2.1,1.7,3.7,3.8,3.6c2-0.1,3.6-1.7,3.6-3.7
	C1700.6,844.4,1698.9,842.8,1696.9,842.8z"/>
<path class="st0" d="M1865.4,757.9c2.1-0.1,3.6-1.8,3.5-3.9c-0.1-2.1-1.8-3.6-3.8-3.6c-2,0.1-3.6,1.8-3.5,3.9
	C1861.6,756.4,1863.3,758,1865.4,757.9z"/>
<path class="st0" d="M1778.9,741.3c2-0.1,3.7-1.8,3.6-3.9c-0.1-2-1.8-3.6-3.8-3.5c-2.1,0.1-3.7,1.8-3.6,3.8
	C1775.2,739.8,1776.9,741.3,1778.9,741.3z"/>
<path class="st0" d="M1796.1,702.3c-2,0.1-3.5,1.8-3.4,3.8c0.1,2.1,1.8,3.6,3.9,3.5c2-0.1,3.5-1.8,3.4-3.8
	C1799.9,703.8,1798.1,702.2,1796.1,702.3z"/>
<path class="st0" d="M1703.5,709.9c0.1,2,1.7,3.5,3.8,3.5c2-0.1,3.6-1.7,3.5-3.7c-0.1-2-1.8-3.7-3.8-3.5
	C1704.9,706.2,1703.4,707.9,1703.5,709.9z"/>
<path class="st0" d="M1781.5,864.6c2-0.1,3.6-1.8,3.5-3.8c-0.1-1.9-1.7-3.5-3.7-3.4c-2,0-3.6,1.7-3.5,3.7
	C1777.8,863.1,1779.5,864.7,1781.5,864.6z"/>
<path class="st0" d="M1712,756.1c-2,0.1-3.5,1.7-3.4,3.7c0.1,2,1.7,3.5,3.6,3.4c2-0.1,3.6-1.7,3.5-3.8
	C1715.6,757.5,1714,756,1712,756.1z"/>
<path class="st0" d="M1857.1,836.4c0,1.9,1.6,3.5,3.6,3.5c1.9,0,3.5-1.7,3.5-3.6c0-1.9-1.6-3.5-3.6-3.5
	C1858.7,832.8,1857.1,834.4,1857.1,836.4z"/>
<path class="st0" d="M1739.9,818.1c0,1.9,1.7,3.5,3.7,3.4c1.9-0.1,3.4-1.7,3.3-3.6c0-1.9-1.6-3.4-3.5-3.4
	C1741.4,814.6,1739.8,816.2,1739.9,818.1z"/>
<path class="st0" d="M1731.6,738.4c0.1,1.9,1.6,3.3,3.5,3.3c1.9,0,3.4-1.6,3.4-3.5c-0.1-1.9-1.6-3.3-3.5-3.3
	C1733,734.9,1731.5,736.5,1731.6,738.4z"/>
<path class="st0" d="M1715.6,825.7c1.8-0.1,3.2-1.6,3.1-3.5c-0.1-1.9-1.7-3.3-3.6-3.1c-1.8,0.1-3.2,1.7-3,3.5
	C1712.2,824.4,1713.8,825.8,1715.6,825.7z"/>
<path class="st0" d="M1871.6,650c1.9-0.1,3.3-1.6,3.2-3.5c-0.1-1.8-1.6-3.2-3.4-3.1c-1.9,0.1-3.3,1.6-3.2,3.5
	C1868.3,648.7,1869.8,650,1871.6,650z"/>
<path class="st0" d="M1811.7,646.8c0-1.8-1.4-3.2-3.2-3.2c-1.8,0-3.3,1.5-3.3,3.3c0,1.8,1.6,3.3,3.4,3.2
	C1810.3,650,1811.7,648.6,1811.7,646.8z"/>
<path class="st0" d="M1752.2,771.6c0.1,1.8,1.5,3.1,3.3,3c1.8-0.1,3.1-1.6,3.1-3.3c-0.1-1.8-1.6-3.1-3.3-3
	C1753.5,768.4,1752.2,769.8,1752.2,771.6z"/>
<path class="st0" d="M1629.1,669c1.7,0,3.2-1.5,3.1-3.2c0-1.7-1.5-3.2-3.2-3.1c-1.7,0-3.2,1.5-3.1,3.2
	C1625.9,667.6,1627.4,669,1629.1,669z"/>
<path class="st0" d="M1732.4,804.4c-1.6,0-2.9,1.3-2.9,2.9c0,1.6,1.4,3,3,2.9c1.6,0,2.9-1.4,2.8-3
	C1735.3,805.6,1734,804.3,1732.4,804.4z"/>
<path class="st0" d="M1797.8,792.9c0,1.6,1.4,2.9,3,2.9c1.6,0,2.9-1.4,2.8-3c-0.1-1.5-1.4-2.8-2.9-2.8
	C1799.1,789.9,1797.8,791.3,1797.8,792.9z"/>
<path class="st0" d="M1803.4,819.8c1.5,0,2.8-1.4,2.8-2.9c0-1.5-1.4-2.8-2.9-2.8c-1.4,0-3.5,2.1-3.4,3.4
	C1799.9,818.3,1802.3,819.8,1803.4,819.8z"/>
<path class="st0" d="M1858.5,733.6c0.1,1.5,1.4,2.8,3,2.7c1.6-0.1,2.9-1.5,2.8-3.1c-0.1-1.6-1.5-2.7-3-2.6
	C1859.7,730.7,1858.5,732.1,1858.5,733.6z"/>
<path class="st0" d="M1842.7,815.3c-1.5,0-2.8,1.4-2.8,2.9c0,1.6,1.4,2.8,2.9,2.7c1.5-0.1,2.7-1.3,2.7-2.8
	C1845.6,816.6,1844.2,815.3,1842.7,815.3z"/>
<path class="st0" d="M1665.9,696.2c0,1.5,1.3,2.7,2.8,2.7c1.4-0.1,2.6-1.3,2.6-2.7c0-1.5-1.3-2.7-2.8-2.7
	C1667.1,693.4,1665.9,694.6,1665.9,696.2z"/>
<path class="st0" d="M1828.5,858.1c0,1.4,1.2,2.5,2.6,2.5c1.5,0,2.6-1.2,2.6-2.7c0-1.5-1.3-2.6-2.8-2.5
	C1829.5,855.5,1828.4,856.7,1828.5,858.1z"/>
<path class="st0" d="M1634.1,790.2c1.3-0.1,2.4-1.3,2.4-2.6c-0.1-1.4-1.3-2.5-2.7-2.4c-1.4,0.1-2.4,1.3-2.3,2.6
	C1631.5,789.2,1632.7,790.3,1634.1,790.2z"/>
<path class="st0" d="M1761.7,708.9c1.3-0.1,2.4-1.2,2.3-2.5c0-1.4-1.2-2.4-2.6-2.3c-1.3,0.1-2.3,1.2-2.2,2.6
	C1759.3,707.9,1760.4,708.9,1761.7,708.9z"/>
<path class="st0" d="M1706.3,628.6c0,1.3,1.1,2.4,2.4,2.3c1.4,0,2.5-1.2,2.4-2.5c-0.1-1.3-1.2-2.3-2.5-2.3
	C1707.3,626.1,1706.3,627.2,1706.3,628.6z"/>
<path class="st0" d="M1850.9,734.2c-1.3,0.1-2.4,1.2-2.3,2.5c0.1,1.3,1.2,2.3,2.5,2.3c1.3,0,2.3-1.2,2.3-2.5
	C1853.3,735.2,1852.2,734.2,1850.9,734.2z"/>
<path class="st0" d="M1648.9,785.8c0.1,1.3,1.3,2.4,2.5,2.3c1.2-0.1,2.2-1.2,2.2-2.5c-0.1-1.3-1.2-2.3-2.5-2.2
	C1649.9,783.5,1648.9,784.6,1648.9,785.8z"/>
<path class="st0" d="M1724.9,810.5c1.3,0,2.3-1.1,2.2-2.4c0-1.3-1.1-2.3-2.3-2.2c-1.2,0-2.3,1.1-2.2,2.4
	C1722.6,809.6,1723.6,810.6,1724.9,810.5z"/>
<path class="st0" d="M1674.4,747.9c0,1.3,1.1,2.3,2.4,2.2c1.2,0,2.2-1.1,2.2-2.3c0-1.2-1.1-2.3-2.3-2.3
	C1675.4,745.5,1674.4,746.6,1674.4,747.9z"/>
<path class="st0" d="M1849.9,874.1c1.3,0,2.2-1.1,2.2-2.4c-0.1-1.3-1.2-2.2-2.4-2.1c-1.2,0.1-2.1,1.1-2.1,2.3
	C1847.6,873.1,1848.7,874.1,1849.9,874.1z"/>
<path class="st0" d="M1705.4,854.9c-1.2,0-2.2,1.1-2.2,2.3c0,1.2,1.1,2.2,2.3,2.2c1.2,0,2.2-1,2.1-2.2
	C1707.6,855.9,1706.6,854.9,1705.4,854.9z"/>
<path class="st0" d="M1818.8,818.5c0,1.1,1,2,2.1,2c1.2,0,2.1-1,2.1-2.2c-0.1-1.1-1.1-2.1-2.2-2
	C1819.6,816.4,1818.8,817.3,1818.8,818.5z"/>
<path class="st0" d="M1668,673.3c0.1,1,1,1.9,2.1,1.8c1-0.1,1.8-1,1.7-2c-0.1-1-1-1.8-1.9-1.8C1668.9,671.3,1667.9,672.3,1668,673.3
	z"/>
<path class="st0" d="M1649.9,845.8c-1,0-1.8,0.9-1.8,1.9c0,1.1,0.9,2,2,1.9c1-0.1,1.8-0.9,1.8-2
	C1651.8,846.6,1650.9,845.8,1649.9,845.8z"/>
<path class="st0" d="M1646.1,792.4c0.1,1,0.9,1.8,2,1.7c1,0,1.8-0.9,1.8-1.9c0-1.1-0.9-1.9-2-1.8
	C1646.8,790.5,1646,791.4,1646.1,792.4z"/>
<path class="st0" d="M1728.9,776.8c-1,0.1-1.8,1-1.8,2c0.1,1,1,1.8,2,1.7c1-0.1,1.8-1,1.7-2C1730.8,777.5,1729.9,776.7,1728.9,776.8
	z"/>
<path class="st0" d="M1656.8,686c0,1,0.9,1.7,1.9,1.7c1,0,1.7-0.9,1.7-1.9c0-0.9-1-1.8-1.9-1.7
	C1657.5,684.2,1656.8,685.1,1656.8,686z"/>
<path class="st0" d="M1749.5,755.4c1-0.2,1.7-0.8,1.7-1.9c0-1-0.9-1.8-1.9-1.7c-1.1,0.1-1.7,0.8-1.6,1.9
	C1747.8,754.8,1748.5,755.3,1749.5,755.4z"/>
<path class="st0" d="M1691.6,760.9c1-0.1,1.6-0.7,1.6-1.7c0-1-0.6-1.6-1.7-1.7c-1,0-1.8,0.8-1.7,1.8
	C1689.9,760.3,1690.6,760.8,1691.6,760.9z"/>
<path class="st0" d="M1765.6,732.8c-0.4,0.6-1.1,1.2-1.3,1.8c-0.2,0.9,0.6,1.6,1.5,1.6c1,0,1.7-0.6,1.6-1.5
	c-0.1-0.7-0.8-1.3-1.2-1.9C1766.1,732.8,1765.9,732.8,1765.6,732.8z"/>
<path class="st0" d="M1767.7,718.2c0.4-0.6,1-1.2,1.1-1.9c0.1-1-0.6-1.5-1.6-1.5c-1,0-1.7,0.7-1.5,1.6c0.1,0.6,0.8,1.2,1.3,1.8
	C1767.2,718.2,1767.5,718.2,1767.7,718.2z"/>
<path class="st0" d="M1762.3,745.4c0.6,0.4,1.2,1.1,1.8,1.1c0.5,0,1.3-0.9,1.4-1.5c0.2-0.9-0.6-1.6-1.5-1.4
	c-0.6,0.1-1.1,0.8-1.7,1.2C1762.3,745,1762.3,745.2,1762.3,745.4z"/>
<path class="st0" d="M1852.6,669.6c-0.7,0.9-1.4,1.5-1.4,2c0,0.5,0.7,1.3,1.3,1.4c0.9,0.2,1.6-0.5,1.5-1.4
	C1853.9,671,1853.3,670.5,1852.6,669.6z"/>
<path class="st0" d="M1652.6,891.2c0.3-0.6,1-1.2,0.9-1.7c0-0.5-0.9-1.3-1.3-1.2c-0.5,0.1-1.3,0.8-1.4,1.4c-0.1,0.5,0.7,1.1,1.1,1.6
	C1652.2,891.3,1652.4,891.2,1652.6,891.2z"/>
<path class="st0" d="M1843.9,881.3c-0.6,0.8-1.3,1.4-1.2,1.7c0.1,0.5,0.8,0.9,1.3,1.3c0.4-0.4,1.1-0.9,1.1-1.3
	C1845.1,882.6,1844.5,882.1,1843.9,881.3z"/>
<path class="st0" d="M1705.4,808.7c0.8,0.5,1.3,1.1,1.7,1c0.4-0.1,0.9-0.7,1-1.1c0-0.3-0.7-1-1-1
	C1706.6,807.6,1706.2,808.2,1705.4,808.7z"/>
<path class="st0" d="M1655.8,689.6c0.8,0.5,1.2,1,1.6,0.9c0.3,0,0.9-0.6,0.9-0.9c0-0.3-0.5-0.9-0.9-1
	C1657.1,688.7,1656.6,689.1,1655.8,689.6z"/>
<path class="st0" d="M1786.3,632.1c0.5,0.4,0.9,0.9,1.1,0.9c0.4-0.1,0.7-0.5,1-0.8c-0.3-0.3-0.6-0.8-1-0.9
	C1787.3,631.2,1786.9,631.7,1786.3,632.1z"/>
<path class="st0" d="M1736.6,764.9c0.6,0.4,1,0.8,1.4,0.8c0.3,0,0.8-0.6,0.8-0.8c-0.1-0.4-0.6-0.8-0.9-0.9
	C1737.5,763.9,1737.2,764.4,1736.6,764.9z"/>
<path class="st0" d="M1643.2,647.8c-0.4,0.6-0.9,0.9-0.9,1.2c0,0.3,0.5,0.7,0.8,0.8c0.2,0.1,0.7-0.5,0.8-0.7
	C1644,648.8,1643.6,648.4,1643.2,647.8z"/>
<path class="st0" d="M1762.4,738.3c0.4-0.6,0.9-0.9,0.8-1.2c0-0.3-0.5-0.7-0.9-0.8c-0.2,0-0.7,0.5-0.7,0.7
	C1761.7,737.4,1762.1,737.7,1762.4,738.3z"/>
<path class="st0" d="M1742.9,753.5c0.5,0.3,0.8,0.7,1.1,0.7c0.3,0,0.6-0.4,0.8-0.7c-0.3-0.3-0.5-0.7-0.9-0.8
	C1743.8,752.7,1743.4,753.1,1742.9,753.5z"/>
<path class="st0" d="M1678,507.1c0.4,0,0.8,0.1,1.2,0.1c1.7,0.1,2.9-1.1,2.8-2.8c-0.1-1.5-1.4-2.5-2.8-2.4c-1.6,0.1-2.6,1.6-2.3,3.2
	c0.1,0.4,0.2,0.8,0.4,1.1C1677.5,506.6,1677.7,506.9,1678,507.1z"/>
<path class="st0" d="M1919.7,360.7c-2.1-1.8-5.2-1.6-7.1,0.5c-1.8,2.1-1.6,5.1,0.4,6.9c2.1,1.9,5.2,1.7,7.1-0.4
	C1922,365.7,1921.8,362.6,1919.7,360.7z"/>
<path class="st0" d="M1551.9,550.4c-1.9,2.1-1.7,5.2,0.4,7.1c2.1,1.8,5.2,1.6,7.1-0.5c1.8-2,1.6-5.1-0.4-6.9
	C1556.9,548.1,1553.7,548.3,1551.9,550.4z"/>
<path class="st0" d="M1899,512.7c-1.8,2-1.7,5.1,0.3,6.9c2,1.8,5.1,1.7,6.9-0.4c1.9-2.1,1.7-5.1-0.3-6.9
	C1903.9,510.5,1900.8,510.7,1899,512.7z"/>
<path class="st0" d="M1740.4,466.6c-1.9-1.7-4.8-1.6-6.5,0.3c-1.7,1.9-1.5,4.8,0.4,6.4c1.8,1.6,4.7,1.5,6.3-0.3
	C1742.3,471.3,1742.2,468.3,1740.4,466.6z"/>
<path class="st0" d="M1559.5,686.3c1.9,1.7,4.8,1.4,6.4-0.5c1.7-1.9,1.4-4.8-0.5-6.4c-1.9-1.6-4.8-1.4-6.4,0.5
	C1557.4,681.8,1557.6,684.7,1559.5,686.3z"/>
<path class="st0" d="M1899.6,444.1c1.9,1.7,4.8,1.4,6.5-0.5c1.6-1.9,1.4-4.7-0.5-6.3c-1.9-1.7-4.8-1.5-6.4,0.5
	C1897.6,439.6,1897.8,442.4,1899.6,444.1z"/>
<path class="st0" d="M1543.7,578c-1.9-1.6-4.7-1.3-6.3,0.6c-1.7,2-1.4,4.8,0.6,6.4c1.9,1.6,4.7,1.3,6.3-0.5
	C1545.9,582.5,1545.7,579.6,1543.7,578z"/>
<path class="st0" d="M1798.3,557.5c1.8,1.6,4.7,1.4,6.3-0.5c1.6-1.8,1.4-4.6-0.4-6.2c-1.8-1.6-4.7-1.5-6.3,0.4
	C1796.2,553,1796.4,555.9,1798.3,557.5z"/>
<path class="st0" d="M1826.9,401.2c-1.9-1.6-4.5-1.4-6.1,0.5c-1.6,1.8-1.4,4.6,0.4,6.2c1.9,1.6,4.7,1.4,6.3-0.5
	C1829,405.5,1828.8,402.8,1826.9,401.2z"/>
<path class="st0" d="M1890.2,595.6c-1.6,1.8-1.5,4.6,0.3,6.2c1.8,1.6,4.6,1.5,6.2-0.3c1.6-1.8,1.5-4.5-0.3-6.2
	C1894.6,593.7,1891.8,593.8,1890.2,595.6z"/>
<path class="st0" d="M1799.9,480.6c-1.6,1.8-1.4,4.6,0.4,6.2c1.8,1.5,4.4,1.4,6-0.4c1.6-1.8,1.5-4.4-0.3-6
	C1804.3,478.7,1801.5,478.8,1799.9,480.6z"/>
<path class="st0" d="M1859.4,401.7c-1.5,1.7-1.4,4.3,0.3,5.9c1.8,1.6,4.4,1.5,6-0.3c1.5-1.7,1.4-4.3-0.3-5.9
	C1863.6,399.8,1860.9,399.9,1859.4,401.7z"/>
<path class="st0" d="M1771.6,467c1.7,1.4,4.3,1.2,5.7-0.5c1.5-1.7,1.2-4.4-0.6-5.8c-1.7-1.4-4.3-1.1-5.7,0.6
	C1769.6,463,1769.9,465.5,1771.6,467z"/>
<path class="st0" d="M1655.8,594.3c1.7,1.5,4.3,1.3,5.8-0.5c1.4-1.7,1.2-4.2-0.5-5.7c-1.8-1.5-4.3-1.3-5.8,0.5
	C1653.9,590.3,1654.1,592.8,1655.8,594.3z"/>
<path class="st0" d="M1604.5,541c1.5-1.6,1.4-4.1-0.2-5.6c-1.6-1.5-4.2-1.4-5.7,0.2c-1.5,1.6-1.3,4.3,0.3,5.7
	C1600.5,542.8,1603,542.6,1604.5,541z"/>
<path class="st0" d="M1850.1,449c-1.4,1.7-1.2,4.1,0.4,5.5c1.7,1.4,4.1,1.2,5.5-0.4c1.4-1.6,1.2-4.1-0.4-5.6
	C1854,447.2,1851.5,447.4,1850.1,449z"/>
<path class="st0" d="M1804.7,461.9c-1.5-1.3-3.7-1.3-5.1,0.2c-1.4,1.5-1.3,3.9,0.3,5.2c1.5,1.3,3.8,1.2,5.1-0.3
	C1806.3,465.5,1806.2,463.2,1804.7,461.9z"/>
<path class="st0" d="M1873.3,506.5c-1.3,1.5-1.2,3.8,0.3,5.1c1.5,1.3,3.8,1.1,5.1-0.4c1.2-1.4,1.1-3.7-0.3-5
	C1877,505,1874.7,505.1,1873.3,506.5z"/>
<path class="st0" d="M1855.7,535.5c1.4,1.3,3.7,1.1,4.9-0.3c1.3-1.4,1.2-3.7-0.2-5c-1.2-1.1-5-1-5.9,0.2
	C1853.9,531.2,1854.7,534.6,1855.7,535.5z"/>
<path class="st0" d="M1573.8,658.7c-1.2,1.4-1.1,3.7,0.4,4.9c1.5,1.3,3.8,1.1,5.1-0.4c1.2-1.5,1-3.7-0.5-4.9
	C1577.2,657,1575,657.2,1573.8,658.7z"/>
<path class="st0" d="M1894.9,564.5c-1.4-1.3-3.7-1.1-4.9,0.3c-1.3,1.4-1.1,3.7,0.4,4.9c1.4,1.2,3.6,1.1,4.8-0.3
	C1896.4,568,1896.3,565.7,1894.9,564.5z"/>
<path class="st0" d="M1846.1,591.1c-1.2,1.3-1.1,3.3,0.2,4.5c1.3,1.2,3.4,1.1,4.6-0.2c1.2-1.4,1-3.4-0.4-4.6
	C1849.2,589.7,1847.3,589.8,1846.1,591.1z"/>
<path class="st0" d="M1727.9,366.4c1.3,1.1,3.3,0.9,4.3-0.3c1.1-1.3,1-3.3-0.4-4.4c-1.3-1.1-3.2-0.9-4.3,0.4
	C1726.5,363.4,1726.7,365.4,1727.9,366.4z"/>
<path class="st0" d="M1911.4,400.4c1.3,1.1,3.1,0.9,4.2-0.3c1.1-1.3,0.9-3.2-0.4-4.3c-1.3-1-3.1-0.8-4.2,0.4
	C1910,397.5,1910.1,399.4,1911.4,400.4z"/>
<path class="st0" d="M1566.4,652.8c-1.2-1-3.1-0.9-4.2,0.3c-1,1.2-0.9,3.1,0.3,4.2c1.2,1,3.1,0.9,4.2-0.3
	C1567.7,655.8,1567.6,653.9,1566.4,652.8z"/>
<path class="st0" d="M1745,375c-1,1.2-0.8,3.2,0.4,4.2c1.2,1,3,0.8,4-0.4c1.1-1.2,0.9-3.1-0.4-4.1C1747.8,373.7,1746,373.8,1745,375
	z"/>
<path class="st0" d="M1792.7,461.1c1.2,1,3,0.9,4-0.2c1-1.2,0.9-3-0.2-4c-1.1-1-3-0.9-4,0.3C1791.4,458.3,1791.6,460.1,1792.7,461.1
	z"/>
<path class="st0" d="M1799.9,362.2c-1,1.2-0.9,3,0.3,4c1.1,1,2.9,0.9,3.9-0.2c1.1-1.1,1-3-0.2-4
	C1802.8,360.9,1800.9,361,1799.9,362.2z"/>
<path class="st0" d="M1852.1,623.5c1.2,1,3,0.9,4-0.3c1-1.2,0.8-3-0.4-4c-1.2-0.9-2.9-0.8-3.9,0.3
	C1850.8,620.7,1850.9,622.5,1852.1,623.5z"/>
<path class="st0" d="M1737.9,484.8c-1.1-1-2.9-0.9-3.8,0.2c-1,1.1-0.9,2.9,0.2,3.8c1.1,1,2.8,0.9,3.8-0.2
	C1739.1,487.5,1739,485.8,1737.9,484.8z"/>
<path class="st0" d="M1870.7,547.2c-0.9,1.1-0.8,2.6,0.2,3.6c1.1,1,2.8,0.9,3.7-0.2c0.9-1.1,0.8-2.8-0.3-3.7
	C1873.2,546,1871.6,546.2,1870.7,547.2z"/>
<path class="st0" d="M1695.5,429.9c-0.9-0.8-2.4-0.7-3.3,0.2c-0.9,1-0.8,2.5,0.2,3.4c1,0.8,2.4,0.7,3.2-0.3
	C1696.5,432.2,1696.5,430.7,1695.5,429.9z"/>
<path class="st0" d="M1736.9,378.5c-0.8,1-0.7,2.4,0.3,3.2c1,0.8,2.4,0.7,3.2-0.2c0.9-1,0.8-2.5-0.3-3.3
	C1739.2,377.4,1737.7,377.5,1736.9,378.5z"/>
<path class="st0" d="M1824.7,434.1c-0.9-0.8-2.5-0.6-3.2,0.3c-0.8,0.9-0.6,2.5,0.3,3.2c1,0.8,2.4,0.7,3.2-0.3
	C1825.8,436.3,1825.6,434.9,1824.7,434.1z"/>
<path class="st0" d="M1861.3,432.2c1.1,0.7,2.2,0.7,3.1-0.3c0.9-0.9,0.7-2.4-0.3-3.2c-1.1-0.8-2.2-0.7-3,0.4
	C1860.2,430.1,1860.4,431.2,1861.3,432.2z"/>
<path class="st0" d="M1804.5,388.4c1,0.7,2.1,0.8,2.9-0.2c0.8-0.9,0.8-2-0.1-2.9c-0.8-0.9-2.4-0.8-3.1,0.1
	C1803.5,386.4,1803.6,387.5,1804.5,388.4z"/>
<path class="st0" d="M1894.8,425.3c-0.9,0.2-2,0.1-2.7,0.6c-0.9,0.7-0.8,1.9,0,2.7c0.9,0.8,2,0.9,2.7-0.1c0.5-0.7,0.4-1.8,0.5-2.7
	C1895.2,425.7,1895,425.5,1894.8,425.3z"/>
<path class="st0" d="M1908.9,413.8c0.9-0.2,1.9-0.2,2.6-0.8c0.9-0.8,0.7-1.9-0.2-2.7c-0.9-0.8-2.1-0.8-2.7,0.2
	c-0.4,0.7-0.2,1.8-0.3,2.7C1908.5,413.5,1908.7,413.7,1908.9,413.8z"/>
<path class="st0" d="M1881.1,433.9c0.2,0.9,0.2,2.1,0.7,2.5c0.5,0.4,1.9,0.3,2.5-0.2c0.9-0.7,0.8-2-0.2-2.6
	c-0.7-0.4-1.7-0.3-2.5-0.3C1881.5,433.5,1881.3,433.7,1881.1,433.9z"/>
<path class="st0" d="M1622.2,596c-1.4,0.3-2.5,0.2-2.9,0.6c-0.4,0.5-0.4,1.8,0,2.4c0.6,0.9,1.8,0.9,2.5,0
	C1622.2,598.4,1622,597.4,1622.2,596z"/>
<path class="st0" d="M1659.7,473.1c0.8-0.2,1.9-0.2,2.3-0.7c0.4-0.5,0.3-1.9-0.1-2.2c-0.6-0.4-1.9-0.3-2.4,0.1
	c-0.5,0.4-0.3,1.5-0.4,2.3C1659.3,472.8,1659.5,473,1659.7,473.1z"/>
<path class="st0" d="M1840.6,625c-1.2,0.2-2.3,0.2-2.5,0.6c-0.3,0.5,0,1.5,0.1,2.2c0.7-0.1,1.7,0.1,2.1-0.3
	C1840.6,627.2,1840.4,626.2,1840.6,625z"/>
<path class="st0" d="M1614.6,844.3c-1,1.1-1,2.9,0.2,4c1.1,1,2.9,1,4-0.2c1-1.1,1-2.9-0.2-4C1617.5,843,1615.7,843.1,1614.6,844.3z"
	/>
<path class="st0" d="M1617.7,824.2c-0.9-0.8-2.4-0.7-3.2,0.2c-0.8,0.9-0.7,2.4,0.2,3.2c0.9,0.8,2.3,0.7,3.1-0.2
	C1618.6,826.5,1618.6,825,1617.7,824.2z"/>
<path class="st0" d="M1586.2,841.4c-0.7,0.8-0.7,2.1,0.1,2.9c0.9,0.8,2.2,0.7,3-0.1c0.8-0.9,0.7-2.2-0.2-3
	C1588.2,840.4,1586.9,840.5,1586.2,841.4z"/>
<path class="st0" d="M1590,862.3c0.8,0.7,1.9,0.6,2.6-0.2c0.6-0.8,0.5-1.9-0.2-2.6c-0.7-0.6-1.8-0.5-2.5,0.2
	C1589.2,860.5,1589.3,861.6,1590,862.3z"/>
<path class="st0" d="M1582.6,863.2c-0.8,0.2-1.5,0.1-1.6,0.4c-0.2,0.3,0,0.9,0,1.4c0.5,0,1.1,0.1,1.3-0.2
	C1582.6,864.6,1582.5,864,1582.6,863.2z"/>
<path class="st0" d="M1776.7,443.1c0.3,1.1,0.2,2,0.6,2.3c0.4,0.3,1.4,0.1,1.9-0.2c0.3-0.2,0.2-1.4-0.1-1.7
	C1778.7,443.2,1777.8,443.3,1776.7,443.1z"/>
<path class="st0" d="M1594,506.4c0.1,0.8,0,1.6,0.3,1.7c0.4,0.3,1.1,0.1,1.6,0.1c0-0.6,0.2-1.2-0.1-1.6
	C1595.6,506.4,1594.8,506.5,1594,506.4z"/>
<path class="st0" d="M1841.7,429.8c0.2,0.9,0.2,1.6,0.6,1.9c0.3,0.2,1.3,0.1,1.4-0.1c0.2-0.4,0.2-1.2-0.1-1.6
	C1843.3,429.7,1842.6,429.9,1841.7,429.8z"/>
<path class="st0" d="M1887.3,427.6c0.9-0.1,1.6-0.1,1.8-0.4c0.2-0.3,0.1-1.1-0.1-1.4c-0.1-0.2-1.1-0.2-1.3,0
	C1887.4,426.1,1887.5,426.7,1887.3,427.6z"/>
<path class="st0" d="M1856.9,424.9c0.2,0.7,0.1,1.3,0.4,1.5c0.3,0.2,0.9,0.1,1.3,0.1c0-0.5,0.1-1.1-0.1-1.5
	C1858.4,424.8,1857.7,424.9,1856.9,424.9z"/>
<path class="st0" d="M246.6,838.6c-2.9-2.3-7-1.9-9.4,1c-2.3,2.9-1.9,7.1,1,9.4c2.9,2.3,7.1,1.9,9.4-1
	C249.9,845.2,249.5,841,246.6,838.6z"/>
<path class="st0" d="M189.6,1022.8c2.3-2.9,1.8-7.1-1.1-9.3c-2.8-2.2-6.9-1.7-9.2,1.1c-2.3,2.9-1.9,7,1,9.4
	C183.2,1026.2,187.3,1025.7,189.6,1022.8z"/>
<path class="st0" d="M77.7,1002c-2.1,2.6-1.6,6.5,1.1,8.5c2.6,2,6.3,1.5,8.4-1.1c2.1-2.7,1.6-6.4-1.1-8.5
	C83.5,999,79.7,999.4,77.7,1002z"/>
<path class="st0" d="M196.2,940.3c-2.6-2-6.3-1.5-8.3,1.1c-2,2.6-1.6,6.3,1,8.3c2.6,2.1,6.5,1.6,8.5-1.1
	C199.4,946,198.8,942.3,196.2,940.3z"/>
<path class="st0" d="M129.3,902.6c2-2.6,1.5-6.1-1.1-8.1c-2.6-2-6.1-1.5-8.1,1c-2,2.6-1.5,6.3,1.1,8.3
	C123.8,905.7,127.3,905.2,129.3,902.6z"/>
<path class="st0" d="M131,945.7c-2.4-1.9-5.8-1.5-7.8,0.9c-2,2.5-1.6,6,0.9,7.9c2.4,1.9,5.9,1.5,7.8-0.9
	C133.8,951.2,133.4,947.6,131,945.7z"/>
<path class="st0" d="M325.7,890c-1.8,2.2-1.4,5.5,0.8,7.3c2.2,1.8,5.5,1.4,7.3-0.8c1.8-2.2,1.4-5.5-0.8-7.3
	C330.8,887.4,327.5,887.8,325.7,890z"/>
<path class="st0" d="M252.9,907.7c-2-1.5-4.8-1.2-6.3,0.8c-1.4,1.9-1.1,4.6,0.7,6.1c1.9,1.6,4.8,1.3,6.3-0.6
	C255.2,912.1,254.8,909.2,252.9,907.7z"/>
<path class="st0" d="M136.4,1014.5c-1.3,1.7-1,4.2,0.7,5.5c1.8,1.4,4.3,1,5.7-0.8c1.3-1.8,0.9-4.2-0.9-5.5
	C140.1,1012.4,137.7,1012.8,136.4,1014.5z"/>
<path class="st0" d="M295.3,1029.4c-1.7-1.3-4.1-1.1-5.5,0.6c-1.4,1.8-1.1,4.3,0.7,5.7c1.7,1.3,4.2,0.9,5.5-0.8
	C297.3,1033.2,297,1030.7,295.3,1029.4z"/>
<path class="st0" d="M179.2,864c-1.6-1.3-4-1-5.3,0.7c-1.2,1.6-1,3.9,0.5,5.2c1.6,1.3,4,1.1,5.3-0.5
	C181,867.7,180.8,865.3,179.2,864z"/>
<path class="st0" d="M279.4,934.2c-1.4-1-3.5-0.7-4.4,0.8c-0.9,1.4-0.6,3.3,0.7,4.3c1.3,1,3.3,0.7,4.3-0.5
	C281,937.4,280.7,935.2,279.4,934.2z"/>
<path class="st0" d="M85.6,902c1-1.3,0.7-3.3-0.6-4.3c-1.3-1-3.3-0.6-4.3,0.6c-1,1.3-0.7,3.3,0.6,4.2
	C82.7,903.6,84.6,903.3,85.6,902z"/>
<path class="st0" d="M275.2,906.9c-1.3-1-3.1-0.7-4,0.6c-1,1.3-0.7,3.1,0.5,4.1c1.2,0.9,3.2,0.6,4.1-0.6
	C276.7,909.7,276.4,907.8,275.2,906.9z"/>
<path class="st0" d="M90.8,950.4c-0.8,1.5-0.7,2.9,0.6,4.1c1.2,1.1,3.3,0.7,4.2-0.7c1-1.5,0.7-3-0.7-4
	C93.4,948.8,92,949.1,90.8,950.4z"/>
<path class="st0" d="M144.8,871.9c-0.9,1.4-0.9,2.8,0.4,3.9c1.3,1.1,2.7,0.9,3.9-0.4c1.1-1.2,0.9-3.2-0.4-4
	C147.3,870.5,145.9,870.7,144.8,871.9z"/>
<path class="st0" d="M102.2,994.3c-0.3-1.2-0.3-2.7-1-3.5c-1-1.2-2.6-1-3.6,0.2c-1.1,1.2-1.1,2.8,0.3,3.6c1,0.6,2.4,0.4,3.6,0.5
	C101.7,994.9,102,994.6,102.2,994.3z"/>
<path class="st0" d="M118.4,1012.2c0.4,1.1,0.5,2.6,1.2,3.3c1.1,1.2,2.6,0.8,3.5-0.4c1-1.3,0.9-2.8-0.5-3.5c-1-0.5-2.3-0.2-3.5-0.3
	C118.9,1011.7,118.6,1011.9,118.4,1012.2z"/>
<path class="st0" d="M89.9,976.8c-1.1,0.3-2.7,0.4-3.3,1.1c-0.5,0.7-0.2,2.5,0.4,3.3c1,1.2,2.7,1,3.4-0.4c0.5-0.9,0.2-2.2,0.3-3.4
	C90.4,977.3,90.2,977,89.9,976.8z"/>
<path class="st0" d="M271.7,901.9c-1.5,0.5-2.5,0.5-2.9,1.1c-0.3,0.4-0.2,1.7,0.2,2.1c0.4,0.4,1.7,0.3,2.1-0.1
	C271.6,904.5,271.5,903.4,271.7,901.9z"/>
<path class="st0" d="M92.5,924.2c-1.1,0.4-2.1,0.4-2.4,0.9c-0.3,0.4-0.1,1.7,0.2,1.9c0.6,0.2,1.6,0.1,2.1-0.3
	C92.7,926.4,92.4,925.4,92.5,924.2z"/>
<path class="st0" d="M337.4,930c-0.2-1.1-0.2-2.1-0.6-2.4c-0.4-0.3-1.4-0.1-1.9,0.2c-0.3,0.2-0.2,1.4,0.1,1.7
	C335.4,929.9,336.3,929.8,337.4,930z"/>
<path class="st0" d="M98.7,984.5c0.3,1.1,0.2,2.1,0.6,2.3c0.5,0.3,1.4,0.1,1.9-0.2c0.3-0.2,0.2-1.4-0.1-1.7
	C100.6,984.6,99.8,984.7,98.7,984.5z"/>
<path class="st0" d="M100.1,944.1c-1,0.3-1.8,0.3-2,0.7c-0.3,0.4,0,1.2,0,1.8c0.7-0.1,1.5,0.1,1.9-0.3
	C100.3,946,100.1,945.1,100.1,944.1z"/>
<path class="st0" d="M1870.6,1012.4c2.3-2.8,1.8-6.8-1-9.1c-2.8-2.3-6.8-1.9-9.1,0.9c-2.2,2.8-1.8,6.9,1,9.1
	C1864.3,1015.6,1868.4,1015.1,1870.6,1012.4z"/>
<path class="st0" d="M1691.8,957.2c2.8,2.2,6.8,1.7,9-1.1c2.1-2.8,1.7-6.7-1-8.9c-2.8-2.3-6.8-1.8-9.1,1
	C1688.5,950.9,1689,954.9,1691.8,957.2z"/>
<path class="st0" d="M1771.9,963.6c2-2.5,1.5-6.1-1.1-8.1c-2.5-2-6.1-1.5-8.1,0.9c-2,2.5-1.5,6.3,1.1,8.2
	C1766.3,966.6,1769.9,966.1,1771.9,963.6z"/>
<path class="st0" d="M1820.8,1089.2c-2.1-1.7-5.4-1.4-7.1,0.8c-1.7,2.1-1.4,5.4,0.8,7.1c2.1,1.7,5.4,1.4,7.1-0.8
	C1823.3,1094.1,1823,1090.9,1820.8,1089.2z"/>
<path class="st0" d="M1803.6,1018.5c1.5-1.9,1.2-4.7-0.7-6.1c-1.8-1.4-4.5-1.1-6,0.7c-1.5,1.9-1.3,4.6,0.6,6.1
	C1799.3,1020.7,1802.1,1020.4,1803.6,1018.5z"/>
<path class="st0" d="M1938.2,936.4c-1.7-1.3-4.3-0.9-5.6,0.7c-1.4,1.8-1,4.4,0.9,5.7c1.8,1.3,4.2,0.9,5.5-0.9
	C1940.3,940.2,1939.9,937.7,1938.2,936.4z"/>
<path class="st0" d="M1845.9,946.9c1.2-1.6,0.9-3.9-0.7-5.1c-1.5-1.2-3.8-0.9-5,0.5c-1.3,1.5-1.1,3.9,0.5,5.2
	C1842.3,948.7,1844.7,948.5,1845.9,946.9z"/>
<path class="st0" d="M1777.8,1044.2c1-1.3,0.6-3.4-0.7-4.3c-1.3-0.9-3.2-0.6-4.1,0.7c-0.9,1.3-0.7,3.2,0.5,4.2
	C1774.7,1045.8,1776.9,1045.5,1777.8,1044.2z"/>
<path class="st0" d="M1804.4,1040.2c1-1.3,0.7-3-0.5-3.9c-1.2-0.9-3-0.7-4,0.5c-0.9,1.2-0.6,3.1,0.5,4
	C1801.7,1041.6,1803.5,1041.4,1804.4,1040.2z"/>
<path class="st0" d="M1057.7,963.9c-1.4-2.6-4.6-3.5-7.1-2.1c-2.5,1.4-3.4,4.5-2.1,7c1.4,2.6,4.5,3.6,7.1,2.2
	C1058.2,969.6,1059.1,966.4,1057.7,963.9z"/>
<path class="st0" d="M1080.7,1011.3c-2.6,1.4-3.6,4.5-2.2,7.1c1.4,2.6,4.5,3.5,7.1,2.1c2.5-1.4,3.4-4.4,2.1-6.9
	C1086.4,1011,1083.3,1010,1080.7,1011.3z"/>
<path class="st0" d="M1962.7,970.8c-2.7,0.3-4.5,2.5-4.3,5.2c0.3,2.6,2.6,4.6,5.2,4.3c2.6-0.2,4.5-2.6,4.3-5.2
	C1967.6,972.5,1965.3,970.5,1962.7,970.8z"/>
<path class="st0" d="M1008,1038.4c1.3,2.3,4.2,3.2,6.5,1.9c2.2-1.3,3.1-4.1,1.8-6.4c-1.3-2.4-4.1-3.2-6.5-1.9
	C1007.6,1033.3,1006.8,1036.2,1008,1038.4z"/>
<path class="st0" d="M1062.8,1035.5c-1.3-2.2-4.1-3-6.4-1.7c-2.3,1.3-3.1,4.2-1.7,6.5c1.3,2.2,4.1,3,6.4,1.7
	C1063.3,1040.8,1064.1,1037.8,1062.8,1035.5z"/>
<path class="st0" d="M1000.1,933.5c-2.3,1.3-3.1,4.1-1.8,6.3c1.3,2.3,4.1,3.1,6.3,1.9c2.3-1.3,3.2-4.2,1.8-6.5
	C1005.2,933,1002.4,932.2,1000.1,933.5z"/>
<path class="st0" d="M952,970.3c-1.3-2.2-4-3-6.2-1.7c-2.2,1.2-3,4-1.8,6.2c1.2,2.3,4.1,3.1,6.3,1.8
	C952.6,975.2,953.3,972.5,952,970.3z"/>
<path class="st0" d="M983.7,982.4c-2.1,1.2-2.9,3.7-1.8,5.9c1.2,2.2,3.8,3,6,1.8c2.1-1.2,2.9-3.8,1.8-5.9
	C988.6,982,985.9,981.2,983.7,982.4z"/>
<path class="st0" d="M448,859.8c1.2,2.1,3.8,2.8,5.9,1.6c2-1.2,2.7-3.7,1.6-5.8c-1.2-2.1-3.8-2.8-5.9-1.6
	C447.5,855.3,446.8,857.8,448,859.8z"/>
<path class="st0" d="M1135.7,1021.1c2-1.1,2.8-3.5,1.8-5.5c-1-2.1-3.6-2.9-5.7-1.8c-2,1.1-2.8,3.7-1.7,5.7
	C1131.2,1021.4,1133.7,1022.1,1135.7,1021.1z"/>
<path class="st0" d="M957.6,1025.5c-2,1.1-2.7,3.6-1.6,5.6c1.1,2,3.6,2.7,5.6,1.6c2-1.1,2.7-3.6,1.6-5.6
	C962.1,1025.1,959.6,1024.4,957.6,1025.5z"/>
<path class="st0" d="M1973.1,1001.5c-0.2-2-2-3.5-4-3.3c-2,0.2-3.6,2.1-3.3,4.1c0.3,2,2.1,3.4,4.1,3.2
	C1971.9,1005.3,1973.3,1003.5,1973.1,1001.5z"/>
<path class="st0" d="M1035.3,999.8c0.9,1.5,2.7,2,4.2,1.2c1.5-0.9,2.1-2.8,1.2-4.3c-0.9-1.5-2.7-1.9-4.2-1.1
	C1034.9,996.5,1034.4,998.4,1035.3,999.8z"/>
<path class="st0" d="M1095.3,889.4c-1.5,0.8-2.1,2.7-1.3,4.2c0.8,1.6,2.8,2.1,4.3,1.3c1.5-0.9,2-2.7,1.1-4.2
	C1098.6,889.1,1096.8,888.6,1095.3,889.4z"/>
<path class="st0" d="M1982.9,1000.2c1.7-0.2,2.9-1.7,2.8-3.4c-0.2-1.6-1.7-2.9-3.4-2.8c-1.6,0.1-2.9,1.7-2.8,3.4
	C1979.7,999.1,1981.3,1000.4,1982.9,1000.2z"/>
<path class="st0" d="M974.7,1013c0.8,1.1,1.9,1.4,3.1,0.8c1.2-0.6,1.6-2.1,0.8-3.2c-0.8-1.2-1.9-1.4-3.1-0.7
	C974.3,1010.6,974.1,1011.7,974.7,1013z"/>
<path class="st0" d="M1010,1018.3c-1-0.2-2-0.6-2.8-0.4c-1.2,0.3-1.5,1.6-1,2.7c0.5,1.1,1.7,1.6,2.7,0.9c0.7-0.5,1-1.6,1.5-2.4
	C1010.3,1018.8,1010.1,1018.6,1010,1018.3z"/>
<path class="st0" d="M1028,1012.1c0.9,0.1,2,0.5,2.8,0.2c1.2-0.4,1.4-1.6,0.8-2.7c-0.6-1.1-1.8-1.5-2.7-0.7
	c-0.7,0.5-0.9,1.6-1.3,2.5C1027.7,1011.6,1027.9,1011.9,1028,1012.1z"/>
<path class="st0" d="M993.5,1021.8c-0.1,0.9-0.6,2.1-0.2,2.7c0.3,0.6,1.8,0.9,2.5,0.7c1.2-0.3,1.5-1.6,0.8-2.6
	c-0.5-0.6-1.5-0.8-2.3-1.2C994,1021.6,993.8,1021.7,993.5,1021.8z"/>
<path class="st0" d="M414.4,849.5c-1.5-0.2-2.5-0.8-3.1-0.4c-0.6,0.3-1,1.6-0.9,2.3c0.3,1.1,1.5,1.5,2.4,0.9
	C413.4,851.8,413.7,850.8,414.4,849.5z"/>
<path class="st0" d="M1137.9,983.4c-0.2,0.8-0.6,1.5-0.4,1.8c0.3,0.4,1,0.5,1.6,0.7c0.2-0.6,0.6-1.2,0.5-1.7
	C1139.4,983.9,1138.6,983.8,1137.9,983.4z"/>
<path class="st0" d="M956.3,1003.6c-0.1,0.9-0.3,1.6-0.1,2c0.2,0.3,1.2,0.6,1.4,0.4c0.4-0.3,0.6-1.1,0.5-1.6
	C957.9,1004.1,957.1,1004,956.3,1003.6z"/>
<path class="st0" d="M1001.9,1017.8c0.9,0.2,1.6,0.5,1.9,0.3c0.3-0.2,0.5-1,0.4-1.5c-0.1-0.3-1-0.6-1.3-0.4
	C1002.5,1016.4,1002.3,1017.1,1001.9,1017.8z"/>
<path class="st0" d="M973,1004.3c-0.1,0.8-0.3,1.4-0.2,1.7c0.2,0.3,0.8,0.4,1.3,0.5c0.2-0.5,0.5-1,0.4-1.5
	C974.5,1004.7,973.7,1004.6,973,1004.3z"/>
<path class="st0" d="M1230.5,953.7c-0.8,3.1,1.1,6.2,4.2,6.9c3,0.7,6.1-1.1,6.9-4.1c0.8-3-1-6.2-4.1-7
	C1234.5,948.7,1231.3,950.6,1230.5,953.7z"/>
<path class="st0" d="M521.3,849.5c-3-0.8-6.1,0.9-6.9,3.9c-0.8,3,1,6.1,3.9,6.9c3,0.8,6.1-0.9,6.9-3.9
	C526,853.5,524.3,850.3,521.3,849.5z"/>
<path class="st0" d="M1278.8,1068.8c0.6-2.4-0.8-4.9-3.2-5.5c-2.4-0.6-4.9,0.9-5.4,3.3c-0.6,2.3,0.8,4.7,3.1,5.4
	C1275.6,1072.6,1278.2,1071.2,1278.8,1068.8z"/>
<path class="st0" d="M1219.7,1028.2c-2.2-0.6-4.4,0.7-5,2.9c-0.6,2.2,0.7,4.6,2.9,5.2c2.2,0.6,4.5-0.8,5.1-3.1
	C1223.2,1031,1221.9,1028.8,1219.7,1028.2z"/>
<path class="st0" d="M1186,1054c-0.5,2,0.7,3.9,2.7,4.4c2,0.5,3.9-0.8,4.3-2.7c0.4-1.9-0.7-3.8-2.6-4.2
	C1188.4,1050.8,1186.4,1052,1186,1054z"/>
<path class="st0" d="M1284.5,1031c-1.7-0.4-3.5,0.6-4,2.3c-0.5,1.8,0.6,3.7,2.4,4.1c1.8,0.4,3.7-0.8,4-2.6
	C1287.4,1033.1,1286.3,1031.4,1284.5,1031z"/>
<path class="st0" d="M1177.6,1041.6c-1-1.2-1.5-2.5-2.1-2.6c-0.8-0.1-1.7,0.9-2.5,1.4c0.5,0.8,0.8,2,1.5,2.2
	C1175.1,1042.9,1176.1,1042.1,1177.6,1041.6z"/>
<path class="st0" d="M1809.2,1036.8c-0.5-1.5-0.5-2.4-1-2.8c-0.4-0.3-1.7-0.2-2,0.2c-0.3,0.4-0.3,1.7,0.1,2
	C1806.7,1036.7,1807.7,1036.6,1809.2,1036.8z"/>
<path class="st0" d="M1721.8,1073.8c0-0.6,0-1.2,0-1.8c-0.2-2.5-2.2-4.1-4.6-3.7c-2.2,0.4-3.6,2.5-3.1,4.6c0.5,2.3,2.9,3.7,5.2,2.9
	c0.6-0.2,1.1-0.5,1.6-0.7C1721.2,1074.7,1721.5,1074.3,1721.8,1073.8z"/>
<path class="st0" d="M643.2,941.7c0.9-4.1-1.7-8.1-5.9-8.9c-4.1-0.8-8.1,1.9-8.9,6c-0.8,4,1.8,7.9,5.8,8.8
	C638.4,948.4,642.3,945.8,643.2,941.7z"/>
<path class="st0" d="M632.7,899.5c3.7,0.6,7.1-1.9,7.8-5.6c0.7-3.8-1.8-7.3-5.6-7.9c-3.7-0.6-7.1,1.9-7.8,5.5
	C626.4,895.3,629,898.9,632.7,899.5z"/>
<path class="st0" d="M581.7,994.1c-0.7,3.2,1.3,6.4,4.5,7.1c3.3,0.8,6.6-1.4,7.3-4.6c0.7-3.3-1.5-6.6-4.8-7.2
	C585.5,988.8,582.4,990.8,581.7,994.1z"/>
<path class="st0" d="M854.9,854.1c1-2.4,3.6-3.5,5.8-2.5c2.2,1,3.2,3.6,2.1,6c-1,2.3-3.6,3.5-5.8,2.5
	C854.8,859.1,853.8,856.5,854.9,854.1z"/>
<path class="st0" d="M754.4,902.8c-2.3,1.3-3.1,4.1-1.8,6.3c1.3,2.3,4.1,3.1,6.3,1.9c2.3-1.3,3.2-4.2,1.8-6.5
	C759.5,902.3,756.7,901.5,754.4,902.8z"/>
<path class="st0" d="M706.4,939.5c-1.3-2.2-4-3-6.2-1.7c-2.2,1.2-3,4-1.8,6.2c1.2,2.3,4.1,3.1,6.3,1.8
	C706.9,944.5,707.6,941.8,706.4,939.5z"/>
<path class="st0" d="M738.1,951.7c-2.1,1.2-2.9,3.7-1.8,5.9c1.2,2.2,3.8,3,6,1.8c2.1-1.2,2.9-3.8,1.8-5.9
	C743,951.3,740.2,950.5,738.1,951.7z"/>
<path class="st0" d="M712,994.8c-2,1.1-2.7,3.6-1.6,5.6c1.1,2,3.6,2.7,5.6,1.6c2-1.1,2.7-3.6,1.6-5.6
	C716.4,994.4,713.9,993.7,712,994.8z"/>
<path class="st0" d="M878.2,872.1c-1.6-0.7-2.4-2.8-1.6-4.6c0.8-1.8,2.9-2.7,4.6-1.9c1.6,0.8,2.3,2.8,1.5,4.6
	C881.9,872,879.8,872.9,878.2,872.1z"/>
<path class="st0" d="M874.1,880.8c-0.6,1.5-2.4,2.2-3.7,1.6c-1.4-0.6-2-2.4-1.4-3.9c0.6-1.5,2.3-2.2,3.7-1.6
	C874.1,877.5,874.7,879.3,874.1,880.8z"/>
<path class="st0" d="M729,982.3c0.8,1.1,1.9,1.4,3.1,0.8c1.2-0.6,1.6-2.1,0.8-3.2c-0.8-1.2-1.9-1.4-3.1-0.7
	C728.7,979.9,728.5,981,729,982.3z"/>
<path class="st0" d="M710.6,972.9c-0.1,0.9-0.3,1.6-0.1,2c0.2,0.3,1.2,0.6,1.4,0.4c0.4-0.3,0.6-1.1,0.5-1.6
	C712.3,973.4,711.5,973.3,710.6,972.9z"/>
<path class="st0" d="M727.3,973.5c-0.1,0.8-0.3,1.4-0.2,1.7c0.2,0.3,0.8,0.4,1.3,0.5c0.2-0.5,0.5-1,0.4-1.5
	C728.8,974,728.1,973.9,727.3,973.5z"/>
<path class="st0" d="M621.7,1031.2c-0.7-1-1.2-2-1.7-2.1c-0.7,0-1.5,0.7-2.2,1.1c0.5,0.7,0.8,1.7,1.4,2.1
	C619.7,1032.4,620.6,1031.7,621.7,1031.2z"/>
<path class="st0" d="M1782,1100.6c1.1-0.2,2-0.2,2.3-0.6c0.3-0.4,0.1-1.4-0.2-1.9c-0.2-0.3-1.4-0.2-1.7,0.1
	C1782.1,1098.7,1782.2,1099.5,1782,1100.6z"/>
<path class="st0" d="M1318.3,953.5c-0.9,4.7,2.2,9.1,6.9,10c4.7,0.9,9.2-2.1,10-6.8c0.9-4.7-2.2-9.2-6.9-10
	C1323.6,945.7,1319.1,948.8,1318.3,953.5z"/>
<path class="st0" d="M1561.9,905.3c-4.7-0.8-9.1,2.3-9.9,7c-0.8,4.6,2.3,8.9,6.8,9.8c4.7,0.9,9.1-2.2,10-6.9
	C1569.7,910.5,1566.6,906.2,1561.9,905.3z"/>
<path class="st0" d="M1606.9,1044.9c4.2,0.7,8.4-2.2,9-6.5c0.7-4.2-2.1-8.1-6.3-8.8c-4.3-0.8-8.3,2.1-9,6.4
	C1599.9,1040.3,1602.7,1044.2,1606.9,1044.9z"/>
<path class="st0" d="M1464.4,948.3c-0.7,4.2,2.1,8,6.3,8.7c4.2,0.7,8.1-2,8.9-6.2c0.7-4.2-2.2-8.3-6.5-9
	C1468.9,941.3,1465.1,944.1,1464.4,948.3z"/>
<path class="st0" d="M1462.6,1047.3c-4.1-0.7-7.9,2-8.5,6.2c-0.7,4.1,2,7.9,6.1,8.6c4.2,0.7,8.1-2.1,8.7-6.3
	C1469.5,1051.7,1466.7,1047.9,1462.6,1047.3z"/>
<path class="st0" d="M1510.4,1019c-0.7,3.9,1.8,7.5,5.7,8.3c4,0.8,7.8-1.8,8.4-5.8c0.7-3.9-1.9-7.6-5.7-8.3
	C1514.9,1012.4,1511.1,1015.1,1510.4,1019z"/>
<path class="st0" d="M1328.1,832.4c3.6,0.7,7.2-1.8,7.8-5.4c0.7-3.6-1.8-7.1-5.4-7.8c-3.6-0.7-7.2,1.8-7.8,5.4
	C1322,828.2,1324.5,831.7,1328.1,832.4z"/>
<path class="st0" d="M1392.7,904.1c-0.6,3.2,1.6,6.2,4.7,6.7c3,0.5,5.9-1.6,6.5-4.6c0.6-3.1-1.4-6.2-4.6-6.8
	C1396.3,898.8,1393.3,900.9,1392.7,904.1z"/>
<path class="st0" d="M1585.2,970.7c2.8,0.4,5.3-1.4,5.8-4.2c0.5-2.9-1.5-5.5-4.4-5.9c-2.8-0.4-5.3,1.6-5.7,4.3
	C1580.5,967.8,1582.4,970.3,1585.2,970.7z"/>
<path class="st0" d="M1504.7,781.5c-0.5,2.8,1.3,5.4,4.1,5.9c2.9,0.5,5.6-1.4,6-4.2c0.4-2.8-1.5-5.3-4.2-5.7
	C1507.8,776.9,1505.2,778.7,1504.7,781.5z"/>
<path class="st0" d="M1388.3,1014.4c-0.5,2.6,1.4,5.2,4,5.6c2.5,0.4,5-1.3,5.5-3.8c0.5-2.6-1.2-5.2-3.8-5.7
	C1391.4,1010,1388.8,1011.8,1388.3,1014.4z"/>
<path class="st0" d="M1406.6,857.8c-0.3,2.2,1.4,4.3,3.6,4.6c2.1,0.2,4.1-1.3,4.4-3.4c0.3-2.1-1.2-4.2-3.2-4.6
	C1409.2,854,1406.9,855.7,1406.6,857.8z"/>
<path class="st0" d="M769.6,865.2c-2.1-0.3-4.2,1.3-4.5,3.3c-0.3,2,1.3,4.2,3.4,4.4c2.1,0.3,4.1-1.2,4.4-3.3
	C773.2,867.5,771.7,865.5,769.6,865.2z"/>
<path class="st0" d="M1378.1,879.3c-0.3,2.1,1,3.9,3.1,4.2c2,0.3,4-1.1,4.3-3.1c0.3-1.9-1.2-4-3.1-4.3
	C1380.4,875.8,1378.4,877.3,1378.1,879.3z"/>
<path class="st0" d="M1540.4,1061.8c2.2,0,3.8-0.9,4.3-3.2c0.5-2.1-1.2-4.2-3.3-4.3c-2.3-0.2-3.8,1-4.1,3.2
	C1536.9,1059.8,1538.2,1061.1,1540.4,1061.8z"/>
<path class="st0" d="M1418.4,1048.6c2.1,0.2,3.7-0.7,4.1-2.9c0.4-2.1-0.6-3.6-2.8-4.2c-2-0.5-4.2,0.9-4.3,2.9
	C1415.2,1046.6,1416.2,1048,1418.4,1048.6z"/>
<path class="st0" d="M1583.2,1021.9c-1.2,1.1-2.9,1.9-3.4,3.3c-0.8,1.9,0.5,3.5,2.5,4c2,0.5,3.8-0.5,3.9-2.5c0.1-1.4-1-2.9-1.6-4.4
	C1584.1,1022.1,1583.6,1022,1583.2,1021.9z"/>
<path class="st0" d="M1593.6,992.5c1.1-1.1,2.6-2.1,3.1-3.4c0.7-1.9-0.7-3.4-2.7-3.7c-2-0.3-3.7,0.7-3.7,2.7c0,1.4,1.2,2.8,1.9,4.2
	C1592.6,992.4,1593.1,992.4,1593.6,992.5z"/>
<path class="st0" d="M1570.9,1046.6c1.1,1.1,2.1,2.9,3.3,3c1.1,0.1,3-1.3,3.5-2.5c0.8-1.9-0.5-3.6-2.5-3.6c-1.3,0-2.7,1.1-4,1.7
	C1571,1045.7,1571,1046.1,1570.9,1046.6z"/>
<path class="st0" d="M1374.6,886.2c1.5,1.4,2.2,2.5,3,2.7c0.7,0.1,2.1-0.9,2.2-1.5c0.1-0.7-0.7-2.2-1.4-2.3
	C1377.6,884.8,1376.5,885.6,1374.6,886.2z"/>
<path class="st0" d="M790.6,843.8c1.1,1.1,1.7,2.1,2.5,2.2c0.6,0.1,2-1,2-1.4c-0.1-0.8-0.8-1.9-1.6-2.2
	C793,842.2,792,843.1,790.6,843.8z"/>
<path class="st0" d="M1366.2,794.6c-1.1,1-2.3,1.5-2.3,2.1c-0.1,0.7,0.7,1.7,1.4,2.1c0.4,0.2,1.7-0.6,1.9-1.2
	C1367.3,796.9,1366.7,796,1366.2,794.6z"/>
<path class="st0" d="M1574.3,1031.8c1.1-1,2.2-1.5,2.3-2.1c0-0.7-0.8-1.7-1.4-2c-0.4-0.2-1.7,0.7-1.9,1.2
	C1573,1029.6,1573.7,1030.5,1574.3,1031.8z"/>
<path class="st0" d="M1527.5,1055c0.9,0.9,1.4,1.8,2,1.9c0.6,0.1,1.3-0.7,2-1.1c-0.5-0.7-0.8-1.7-1.5-2
	C1529.6,1053.6,1528.7,1054.4,1527.5,1055z"/>
</svg>
