<?xml version="1.0" encoding="utf-8"?>
<!-- Generator: Adobe Illustrator 21.0.2, SVG Export Plug-In . SVG Version: 6.00 Build 0)  -->
<svg version="1.1" id="Layer_1" xmlns="http://www.w3.org/2000/svg" xmlns:xlink="http://www.w3.org/1999/xlink" x="0px" y="0px"
	 viewBox="0 0 641 393" style="enable-background:new 0 0 641 393;" xml:space="preserve">
<style type="text/css">
	.st0{fill:url(#SVGID_1_);}
</style>
<g>
	<g>
		
			<linearGradient id="SVGID_1_" gradientUnits="userSpaceOnUse" x1="113.6845" y1="103.1996" x2="537.1021" y2="240.7764" gradientTransform="matrix(1 0 0 -1 0 394)">
			<stop  offset="0" style="stop-color:#FFFFFF;stop-opacity:0"/>
			<stop  offset="1" style="stop-color:#FFFFFF"/>
		</linearGradient>
		<path class="st0" d="M587.8,343.5c0-3.5-0.3-7.2-0.6-10.8c-0.3-3.6-0.8-7.2-1.3-10.8c-1.1-7.2-2.5-14.3-4.2-21.4
			c-3.4-14.1-7.9-28-13.2-41.5s-11.5-26.7-18.6-39.4s-15-24.9-23.7-36.6l-6.6-8.6l-7-8.3c-2.3-2.8-4.8-5.4-7.3-8.1
			c-2.5-2.7-4.9-5.4-7.5-7.9l-7.8-7.6c-2.7-2.5-5.4-4.8-8.1-7.3l-4.1-3.6l-4.3-3.4l-8.5-6.8c-23.3-17.5-48.7-32-75.5-43.4
			c-1.6-0.8-3.3-1.4-5-2.1l-5.1-2c-3.4-1.3-6.8-2.7-10.2-3.9l-10.4-3.4c-3.5-1.1-6.9-2.3-10.4-3.2l-10.5-2.9l-2.6-0.7
			c-0.9-0.2-1.8-0.4-2.7-0.6l-5.3-1.2l-5.3-1.2c-1.8-0.4-3.5-0.8-5.3-1.1l-10.8-1.8c-3.6-0.7-7.2-1-10.8-1.4l-5.4-0.6
			c-1.8-0.2-3.6-0.4-5.4-0.5L273,50.6l-2.7-0.2h-2.7l-5.5-0.1c-7.3-0.2-14.6,0.3-21.8,0.5l-10.9,0.9l-2.7,0.2
			c-0.9,0.1-1.8,0.2-2.7,0.3l-5.4,0.7c-14.4,2-28.7,4.9-42.7,9c-14,4-27.7,9-41,14.9s-26.2,12.7-38.6,20.4
			c-6.2,3.8-12.2,7.9-18.1,12.2c-5.9,4.3-11.6,8.8-17,13.7c5.4-4.9,11.1-9.4,17-13.7c5.9-4.3,11.9-8.4,18.1-12.2
			c12.3-7.7,25.3-14.5,38.6-20.5c13.3-5.9,27-11,41-15c14-4.1,28.3-7,42.7-9L224,52c0.9-0.1,1.8-0.3,2.7-0.4l2.7-0.2l10.9-1
			c7.3-0.3,14.6-0.8,21.8-0.5h5.5h2.7l2.7,0.2l10.9,0.6c1.8,0.1,3.6,0.3,5.4,0.5l5.4,0.6c3.6,0.4,7.3,0.7,10.8,1.4l10.8,1.8
			c1.8,0.3,3.6,0.7,5.4,1.1l5.3,1.2l5.3,1.2c0.9,0.2,1.8,0.4,2.7,0.6l2.6,0.7l10.5,2.9c3.5,0.9,7,2.1,10.4,3.2l10.4,3.4
			c3.4,1.3,6.8,2.6,10.2,3.9l5.1,2c1.7,0.7,3.4,1.3,5.1,2.1c26.8,11.4,52.4,25.9,75.7,43.4l8.5,6.8l4.3,3.4l4.1,3.6
			c2.7,2.4,5.5,4.8,8.2,7.3l7.8,7.6c2.7,2.5,5.1,5.2,7.6,7.9s5,5.3,7.3,8.1l7.1,8.4l6.7,8.7c8.7,11.7,16.7,23.9,23.9,36.6
			c7.1,12.7,13.3,26,18.7,39.5c5.4,13.6,9.9,27.5,13.5,41.6l1.4,5.3l1.2,5.3c0.4,1.8,0.8,3.6,1.2,5.3c0.4,1.8,0.8,3.6,1.1,5.4
			c1.4,7.2,2.7,14.3,3.6,21.7c0.1,1-0.6,1.9-1.6,2s-1.9-0.6-2-1.6C587.8,343.7,587.8,343.7,587.8,343.5L587.8,343.5z"/>
	</g>
</g>
</svg>
