<?xml version="1.0" encoding="utf-8"?>
<!-- Generator: Adobe Illustrator 21.0.2, SVG Export Plug-In . SVG Version: 6.00 Build 0)  -->
<svg version="1.1" id="Layer_1" xmlns="http://www.w3.org/2000/svg" xmlns:xlink="http://www.w3.org/1999/xlink" x="0px" y="0px"
	 viewBox="0 0 300 200" style="enable-background:new 0 0 300 200;" xml:space="preserve">
<style type="text/css">
	.st0{fill:#1A68E5;}
</style>
<g>
	<path class="st0" d="M131.1,15l-22.9,70H90.8L75.4,37.6L59.5,85H42.2l-23-70H36l15.8,49.2L68.3,15h15l16,49.6L115.6,15H131.1
		 M131.1,13h-15.5c-0.9,0-1.6,0.6-1.9,1.4L99.3,58.1L85.2,14.4c-0.3-0.8-1-1.4-1.9-1.4h-15c-0.9,0-1.6,0.5-1.9,1.4L51.8,57.8
		L37.9,14.4c-0.3-0.8-1-1.4-1.9-1.4H19.2c-0.6,0-1.2,0.3-1.6,0.8s-0.5,1.2-0.3,1.8l23,70c0.3,0.8,1,1.4,1.9,1.4h17.3
		c0.9,0,1.6-0.5,1.9-1.4l14-41.7l13.5,41.6c0.3,0.8,1,1.4,1.9,1.4h17.4c0.9,0,1.6-0.6,1.9-1.4l22.9-70c0.2-0.6,0.1-1.3-0.3-1.8
		C132.3,13.3,131.7,13,131.1,13L131.1,13z"/>
</g>
<g>
	<path class="st0" d="M200.3,15v70h-16.2V56.3h-31.8V85h-16.2V15h16.2v27.6h31.8V15H200.3 M200.3,13h-16.2c-1.1,0-2,0.9-2,2v25.6
		h-27.8V15c0-1.1-0.9-2-2-2h-16.2c-1.1,0-2,0.9-2,2v70c0,1.1,0.9,2,2,2h16.2c1.1,0,2-0.9,2-2V58.3h27.8V85c0,1.1,0.9,2,2,2h16.2
		c1.1,0,2-0.9,2-2V15C202.3,13.9,201.4,13,200.3,13L200.3,13z"/>
</g>
<g>
	<path class="st0" d="M246.8,13.8c7.3,0,13.8,1.6,19.6,4.7s10.4,7.5,13.7,13c3.3,5.5,5,11.7,5,18.5c0,6.9-1.7,13-5,18.5
		s-7.9,9.8-13.7,13c-5.8,3.1-12.3,4.7-19.6,4.7s-13.8-1.6-19.7-4.7c-5.8-3.1-10.4-7.5-13.7-13s-4.9-11.7-4.9-18.5
		c0-6.9,1.6-13,4.9-18.5c3.3-5.5,7.9-9.8,13.7-13C233,15.4,239.5,13.8,246.8,13.8 M246.8,72.4c4.1,0,7.9-0.9,11.2-2.9
		c3.3-1.9,5.9-4.5,7.8-7.9s2.8-7.3,2.8-11.6s-0.9-8.2-2.8-11.6c-1.9-3.4-4.5-6-7.8-7.9c-3.3-1.9-7.1-2.9-11.2-2.9
		c-4.1,0-7.9,0.9-11.2,2.9c-3.3,1.9-6,4.5-7.8,7.9c-1.9,3.4-2.9,7.3-2.9,11.6s1,8.2,2.9,11.6c1.9,3.4,4.5,6,7.8,7.9
		C238.9,71.5,242.7,72.4,246.8,72.4 M246.8,11.8c-7.6,0-14.5,1.7-20.6,4.9c-6.1,3.3-11,7.9-14.5,13.7s-5.2,12.4-5.2,19.6
		s1.8,13.8,5.2,19.6c3.5,5.8,8.3,10.4,14.5,13.7c6.1,3.3,13,4.9,20.6,4.9s14.5-1.7,20.6-4.9c6.1-3.3,11-7.9,14.5-13.7
		s5.3-12.4,5.3-19.6s-1.8-13.8-5.3-19.6s-8.4-10.4-14.5-13.7C261.3,13.5,254.4,11.8,246.8,11.8L246.8,11.8z M246.8,70.4
		c-3.8,0-7.2-0.9-10.2-2.6s-5.4-4.1-7.1-7.2c-1.7-3.1-2.6-6.7-2.6-10.6s0.9-7.5,2.6-10.6c1.7-3.1,4.1-5.5,7.1-7.2s6.4-2.6,10.2-2.6
		s7.2,0.9,10.2,2.6s5.4,4.1,7.1,7.2c1.7,3.1,2.6,6.7,2.6,10.6s-0.9,7.5-2.6,10.6s-4.1,5.5-7.1,7.2C254,69.5,250.6,70.4,246.8,70.4
		L246.8,70.4z"/>
</g>
<g>
	<path class="st0" d="M73.3,115l31.3,70h-17l-6.2-15H48.9l-6.2,15H26.1l31.2-70H73.3 M54.1,157.7h22.2l-11.1-26.8L54.1,157.7
		 M73.3,113h-16c-0.8,0-1.5,0.5-1.8,1.2l-31.2,70c-0.3,0.6-0.2,1.3,0.1,1.9c0.4,0.6,1,0.9,1.7,0.9h16.6c0.8,0,1.5-0.5,1.8-1.2
		l5.7-13.8H80l5.7,13.8c0.3,0.7,1,1.2,1.8,1.2h17c0.7,0,1.3-0.3,1.7-0.9c0.4-0.6,0.4-1.3,0.1-1.9l-31.3-70
		C74.8,113.5,74.1,113,73.3,113L73.3,113z M57.1,155.7l8.1-19.6l8.1,19.6H57.1L57.1,155.7z"/>
</g>
<g>
	<path class="st0" d="M138.2,115c6.2,0,11.6,1,16.2,3.1c4.6,2.1,8.1,5,10.5,8.8c2.5,3.8,3.7,8.3,3.7,13.5s-1.3,9.7-3.8,13.4
		c-2.5,3.8-6,6.7-10.7,8.7l15.7,22.5h-17.4L139,165.5h-0.8h-14.1V185h-16.2v-70H138.2 M124.1,152.6h13.2c4.9,0,8.6-1.1,11.1-3.2
		c2.5-2.1,3.8-5.1,3.8-9s-1.3-7-3.8-9.1s-6.2-3.1-11.1-3.1h-13.2V152.6 M138.2,113h-30.3c-1.1,0-2,0.9-2,2v70c0,1.1,0.9,2,2,2h16.2
		c1.1,0,2-0.9,2-2v-17.5H138l12.9,18.6c0.4,0.5,1,0.9,1.6,0.9h17.4c0.7,0,1.4-0.4,1.8-1.1c0.3-0.7,0.3-1.5-0.1-2.1l-14.4-20.6
		c3.9-2.1,7-4.9,9.3-8.3c2.7-4.1,4.1-9,4.1-14.6s-1.4-10.5-4-14.6c-2.7-4.1-6.5-7.3-11.4-9.5C150.4,114.1,144.7,113,138.2,113
		L138.2,113z M126.1,130.2h11.2c4.4,0,7.7,0.9,9.8,2.7c2.1,1.7,3.1,4.2,3.1,7.5s-1,5.7-3.1,7.5c-2.2,1.8-5.5,2.7-9.8,2.7h-11.2
		L126.1,130.2L126.1,130.2z"/>
</g>
<path class="st0" d="M260.8,165.8c-3.3,0-6.1,1-8.3,3.1s-3.3,4.7-3.3,7.8s1.1,5.7,3.4,7.9c2.2,2.1,5,3.2,8.2,3.2
	c3.3,0,6-1.1,8.2-3.2c2.2-2.2,3.4-4.8,3.4-7.9c0-3.1-1.1-5.7-3.3-7.8C266.9,166.8,264.1,165.8,260.8,165.8z M267.6,183.2
	c-1.8,1.8-4.1,2.6-6.9,2.6c-2.7,0-5-0.9-6.8-2.6c-1.8-1.8-2.8-3.9-2.8-6.5c0-2.5,0.9-4.7,2.7-6.4s4.1-2.5,6.9-2.5s5.1,0.9,6.9,2.5
	c1.8,1.7,2.7,3.8,2.7,6.4C270.4,179.2,269.5,181.4,267.6,183.2z"/>
<path class="st0" d="M279.3,117.1c-5-3.5-11.6-5.3-19.6-5.3c-6.8,0-12.8,1.2-17.8,3.7c-3.7,1.8-6.9,4.3-9.6,7.2V115c0-1.1-0.9-2-2-2
	h-52.9c-1.1,0-2,0.9-2,2v70c0,1.1,0.9,2,2,2h54.2c1.1,0,2-0.9,2-2v-13c0-1.1-0.9-2-2-2h-36.1v-12.2H226c1.1,0,2-0.9,2-2v-12.6
	c0-1.1-0.9-2-2-2h-30.5V130h34.8c0.5,0,0.9-0.2,1.2-0.4l11,6.4c0.3,0.2,0.7,0.3,1,0.3c0.6,0,1.2-0.3,1.6-0.8
	c1.5-2.1,3.3-3.7,5.5-4.8c2.1-1.1,4.6-1.7,7.4-1.7s5.1,0.6,6.7,1.8c1.5,1.1,2.1,2.4,2.1,4.2c0,1.3-0.4,2.4-1.1,3.4
	c-1,1.3-2.5,2.9-4.6,4.8c-3.1,2.8-5.5,5.5-7.2,7.8c-1.8,2.6-2.7,5.9-2.7,9.7c0,1.1,0.9,2,2,2h15.1c1.1,0,2-0.9,2-2
	c0-1.7,0.4-3.1,1.3-4.2c1-1.4,2.8-3.2,5.1-5.3c2.1-1.9,3.9-3.6,5.2-5.1c1.4-1.6,2.7-3.5,3.7-5.8s1.5-5,1.5-8
	C287.1,125.8,284.5,120.7,279.3,117.1z M230.3,125.3v2.7h-0.7h-36.1v15.2H226v12.6h-32.5V172h38.1v13h-54.2v-70h52.9L230.3,125.3
	L230.3,125.3z M283.7,139.5c-0.9,2.1-2,3.8-3.3,5.3c-1.3,1.4-3,3.1-5,5c-2.5,2.2-4.3,4-5.4,5.5s-1.7,3.3-1.7,5.5h-15.1
	c0-3.5,0.8-6.3,2.3-8.6c1.6-2.3,3.9-4.8,6.9-7.5c2.2-2,3.8-3.7,4.8-5c1-1.4,1.5-2.9,1.5-4.6c0-2.5-1-4.4-3-5.9
	c-2-1.4-4.6-2.1-7.8-2.1c-3.1,0-5.9,0.6-8.3,1.9c-2.4,1.3-4.5,3.1-6.2,5.5l-11.2-6.6l0,0l-0.9-0.5c0.6-0.8,1.2-1.6,1.8-2.4
	c0.1-0.1,0.1-0.2,0.2-0.3c0.3-0.3,0.6-0.7,0.9-1c0.1-0.1,0.2-0.2,0.3-0.4c0.3-0.3,0.6-0.6,0.8-0.8c0.1-0.1,0.3-0.3,0.5-0.4
	c0.3-0.2,0.5-0.5,0.8-0.7c0.2-0.2,0.4-0.3,0.6-0.5c0.3-0.2,0.5-0.4,0.8-0.6c0.2-0.2,0.5-0.3,0.7-0.5s0.5-0.3,0.7-0.5
	c0.3-0.2,0.6-0.4,1-0.6c0.2-0.1,0.4-0.2,0.6-0.4c0.5-0.3,1.1-0.6,1.7-0.9c4.8-2.3,10.4-3.5,17-3.5c7.7,0,13.8,1.6,18.5,4.9
	c4.6,3.3,6.9,7.8,6.9,13.6C285.1,135,284.6,137.4,283.7,139.5z"/>
</svg>
