<?xml version="1.0" encoding="utf-8"?>
<!-- Generator: Adobe Illustrator 21.0.2, SVG Export Plug-In . SVG Version: 6.00 Build 0)  -->
<svg version="1.1" id="Layer_1" xmlns="http://www.w3.org/2000/svg" xmlns:xlink="http://www.w3.org/1999/xlink" x="0px" y="0px"
	 viewBox="0 0 418 200" style="enable-background:new 0 0 418 200;" xml:space="preserve">
<style type="text/css">
	.st0{fill:#1A68E5;}
</style>
<g>
	<g>
		<path class="st0" d="M56.2,14.3c7.6,0,14.3,1.5,20.1,4.4s10.4,7,13.6,12.3s4.9,11.4,4.9,18.4S93.2,62.5,90,67.7
			C86.8,73,82.2,77.1,76.4,80c-5.8,2.9-12.5,4.4-20.1,4.4H24.4v-70h31.8 M40.6,71h14.8c7,0,12.6-2,16.7-5.9
			c4.2-3.9,6.3-9.2,6.3-15.9s-2.1-12-6.3-15.9c-4.2-3.9-9.7-5.9-16.7-5.9H40.6V71 M56.2,12.3H24.4c-1.1,0-2,0.9-2,2v70
			c0,1.1,0.9,2,2,2h31.8c7.9,0,15-1.5,21-4.6c6.1-3.1,11-7.4,14.4-13s5.1-12.1,5.1-19.4S95,35.4,91.6,29.9c-3.4-5.6-8.3-9.9-14.4-13
			C71.2,13.9,64.1,12.3,56.2,12.3L56.2,12.3z M42.6,29.6h12.8c6.4,0,11.6,1.8,15.4,5.3c3.8,3.5,5.6,8.2,5.6,14.4s-1.8,10.9-5.6,14.4
			C67,67.2,61.9,69,55.4,69H42.6V29.6L42.6,29.6z"/>
	</g>
	<g>
		<path class="st0" d="M155.9,14.3v13h-36.8v15.2h32.5v12.6h-32.5v16.2h38.1v13H103v-70L155.9,14.3 M155.9,12.3H103
			c-1.1,0-2,0.9-2,2v70c0,1.1,0.9,2,2,2h54.2c1.1,0,2-0.9,2-2v-13c0-1.1-0.9-2-2-2h-36.1V57.1h30.5c1.1,0,2-0.9,2-2V42.5
			c0-1.1-0.9-2-2-2h-30.5V29.3h34.8c1.1,0,2-0.9,2-2v-13C157.9,13.2,157,12.3,155.9,12.3L155.9,12.3z"/>
	</g>
	<g>
		<path class="st0" d="M191.5,13.1c4.5,0,8.8,0.5,13.1,1.6s8,2.6,11.2,4.6l-5,12.3c-6.5-3.7-12.9-5.5-19.4-5.5
			c-4.5,0-7.9,0.7-10.1,2.2c-2.2,1.5-3.3,3.4-3.3,5.8s1.3,4.2,3.8,5.4s6.3,2.3,11.5,3.5c5.3,1.3,9.7,2.5,13.1,3.8
			c3.4,1.3,6.3,3.3,8.7,6s3.7,6.4,3.7,11.1c0,4-1.1,7.6-3.3,11c-2.2,3.3-5.6,5.9-10.1,7.8s-9.9,2.9-16.3,2.9c-5.5,0-10.9-0.8-16-2.3
			c-5.2-1.5-9.3-3.5-12.5-5.9l5.5-12.2c3,2.2,6.6,4,10.7,5.3c4.1,1.3,8.3,2,12.4,2c4.6,0,8-0.7,10.2-2.1s3.3-3.2,3.3-5.4
			c0-1.7-0.6-3.1-1.9-4.2c-1.3-1.1-3-2-5-2.6c-2-0.7-4.8-1.4-8.3-2.2c-5.3-1.3-9.7-2.5-13.1-3.8c-3.4-1.3-6.3-3.3-8.8-6.1
			c-2.4-2.8-3.6-6.5-3.6-11.2c0-4.1,1.1-7.8,3.3-11.1s5.5-5.9,10-7.8C179.7,14.1,185.1,13.1,191.5,13.1 M191.5,11.1
			c-6.6,0-12.4,1-17,3.1c-4.8,2.1-8.4,5-10.8,8.6c-2.4,3.6-3.6,7.7-3.6,12.2c0,5.1,1.4,9.4,4.1,12.5c2.6,3,5.9,5.3,9.6,6.7
			c3.5,1.3,8,2.6,13.3,3.9c3.4,0.8,6.1,1.5,8.1,2.2c1.8,0.6,3.2,1.3,4.3,2.3c0.8,0.7,1.2,1.6,1.2,2.6s-0.2,2.4-2.4,3.8
			c-1.9,1.2-4.9,1.7-9.1,1.7c-3.9,0-7.9-0.6-11.8-1.9c-3.9-1.3-7.3-2.9-10.1-5c-0.3-0.3-0.8-0.4-1.2-0.4c-0.2,0-0.3,0-0.5,0.1
			c-0.6,0.2-1.1,0.6-1.3,1.1l-5.5,12.2c-0.4,0.8-0.1,1.8,0.6,2.4c3.3,2.5,7.7,4.6,13.1,6.2c5.3,1.5,10.9,2.3,16.6,2.3
			c6.6,0,12.4-1,17.1-3.1c4.8-2.1,8.5-5,10.9-8.6c2.5-3.6,3.7-7.7,3.7-12.1c0-5.1-1.4-9.3-4.2-12.4c-2.6-3-5.9-5.2-9.5-6.5
			c-3.5-1.3-8-2.6-13.3-3.9c-5-1.1-8.7-2.2-11.1-3.3c-2.3-1.1-2.6-2.5-2.6-3.5c0-1.7,0.8-3,2.4-4.1c1.8-1.2,4.8-1.9,8.9-1.9
			c6.1,0,12.3,1.8,18.4,5.2c0.3,0.2,0.6,0.3,1,0.3c0.2,0,0.4,0,0.7-0.1c0.5-0.2,1-0.6,1.2-1.1l5-12.3c0.4-0.9,0-1.9-0.8-2.4
			c-3.4-2.1-7.3-3.7-11.8-4.8C200.7,11.7,196.1,11.1,191.5,11.1L191.5,11.1z"/>
	</g>
	<g>
		<path class="st0" d="M242.1,14.3v70h-16.2v-70L242.1,14.3 M242.1,12.3h-16.2c-1.1,0-2,0.9-2,2v70c0,1.1,0.9,2,2,2h16.2
			c1.1,0,2-0.9,2-2v-70C244.1,13.2,243.2,12.3,242.1,12.3L242.1,12.3z"/>
	</g>
	<g>
		<path class="st0" d="M288.8,13.1c6.1,0,11.7,1,16.7,3.1s9.2,5.1,12.6,9l-10.4,9.6c-5-5.3-11-7.9-18.1-7.9c-4.5,0-8.4,0.9-11.9,2.8
			s-6.2,4.5-8.1,7.9c-1.9,3.4-2.9,7.3-2.9,11.7c0,4.3,1,8.2,2.9,11.6c1.9,3.4,4.6,6,8,7.9s7.3,2.9,11.8,2.9c4.7,0,8.9-1,12.6-3V48.2
			h14.8v28.4c-3.8,2.9-8.2,5.1-13.2,6.6s-10,2.3-15.1,2.3c-7.3,0-13.8-1.6-19.6-4.7c-5.8-3.1-10.3-7.4-13.7-12.9
			c-3.3-5.5-4.9-11.7-4.9-18.6s1.6-13.1,4.9-18.6c3.3-5.5,7.9-9.8,13.8-12.9C274.9,14.7,281.5,13.1,288.8,13.1 M288.8,11.1
			c-7.6,0-14.6,1.6-20.7,4.9c-6.2,3.3-11.1,7.8-14.5,13.6c-3.5,5.8-5.2,12.4-5.2,19.7s1.8,13.9,5.2,19.7c3.5,5.8,8.3,10.4,14.4,13.6
			s13,4.9,20.5,4.9c5.2,0,10.5-0.8,15.7-2.4s9.8-3.9,13.8-6.9c0.5-0.4,0.8-1,0.8-1.6V48.2c0-1.1-0.9-2-2-2H302c-1.1,0-2,0.9-2,2
			v19.3c-3.2,1.5-6.7,2.2-10.6,2.2c-4,0-7.7-0.9-10.8-2.6c-3.1-1.7-5.5-4.1-7.3-7.2c-1.8-3.1-2.6-6.6-2.6-10.6s0.9-7.6,2.6-10.7
			c1.7-3.1,4.2-5.5,7.3-7.1c3.2-1.7,6.8-2.6,11-2.6c6.6,0,12,2.4,16.6,7.3c0.4,0.4,0.9,0.6,1.5,0.6c0.5,0,1-0.2,1.4-0.5l10.4-9.6
			c0.8-0.7,0.9-2,0.2-2.8c-3.6-4.2-8.1-7.4-13.3-9.5C301.1,12.2,295.2,11.1,288.8,11.1L288.8,11.1z"/>
	</g>
	<g>
		<path class="st0" d="M392,14.3v70h-13.3l-34.9-42.5v42.5h-16v-70h13.4L376,56.8V14.3H392 M392,12.3h-16c-1.1,0-2,0.9-2,2v36.9
			L342.7,13c-0.4-0.5-0.9-0.7-1.5-0.7h-13.4c-1.1,0-2,0.9-2,2v70c0,1.1,0.9,2,2,2h16c1.1,0,2-0.9,2-2V47.4l31.4,38.2
			c0.4,0.5,0.9,0.7,1.5,0.7H392c1.1,0,2-0.9,2-2v-70C394,13.2,393.1,12.3,392,12.3L392,12.3z"/>
	</g>
	<g>
		<path class="st0" d="M180.5,114.3l-22.9,70h-17.4l-15.4-47.4l-15.9,47.4H91.6l-23-70h16.8l15.8,49.2l16.5-49.2h15l16,49.6
			l16.3-49.6L180.5,114.3 M180.5,112.3H165c-0.9,0-1.6,0.6-1.9,1.4l-14.4,43.8l-14.1-43.8c-0.3-0.8-1-1.4-1.9-1.4h-15
			c-0.9,0-1.6,0.5-1.9,1.4l-14.6,43.4l-13.9-43.4c-0.3-0.8-1-1.4-1.9-1.4H68.6c-0.6,0-1.2,0.3-1.6,0.8s-0.5,1.2-0.3,1.8l23,70
			c0.3,0.8,1,1.4,1.9,1.4h17.3c0.9,0,1.6-0.5,1.9-1.4l14-41.7l13.5,41.6c0.3,0.8,1,1.4,1.9,1.4h17.4c0.9,0,1.6-0.6,1.9-1.4l22.9-70
			c0.2-0.6,0.1-1.3-0.3-1.8C181.8,112.6,181.2,112.3,180.5,112.3L180.5,112.3z M180.5,116.3L180.5,116.3L180.5,116.3L180.5,116.3z"
			/>
	</g>
	<g>
		<path class="st0" d="M218.6,113.1c7.3,0,13.8,1.6,19.6,4.7s10.4,7.5,13.7,13c3.3,5.5,5,11.7,5,18.5c0,6.9-1.7,13-5,18.5
			s-7.9,9.8-13.7,13c-5.8,3.1-12.3,4.7-19.6,4.7s-13.8-1.6-19.7-4.7c-5.8-3.1-10.4-7.5-13.7-13s-5-11.7-5-18.5c0-6.9,1.6-13,5-18.5
			c3.3-5.5,7.9-9.8,13.7-13C204.8,114.7,211.4,113.1,218.6,113.1 M218.6,171.7c4.1,0,7.9-1,11.2-2.9s6-4.5,7.8-8
			c1.9-3.4,2.9-7.3,2.9-11.6s-1-8.2-2.9-11.6c-1.9-3.4-4.5-6.1-7.8-8c-3.3-1.9-7.1-2.9-11.2-2.9c-4.1,0-7.9,1-11.2,2.9
			c-3.3,1.9-6,4.5-7.9,8c-1.9,3.4-2.9,7.3-2.9,11.6s1,8.2,2.9,11.6c1.9,3.4,4.5,6.1,7.9,8C210.8,170.8,214.5,171.7,218.6,171.7
			 M218.6,111.1c-7.6,0-14.5,1.7-20.6,4.9c-6.1,3.3-11,7.9-14.5,13.7c-3.5,5.8-5.2,12.4-5.2,19.6s1.8,13.8,5.2,19.6
			c3.5,5.8,8.3,10.4,14.5,13.7c6.1,3.3,13,4.9,20.6,4.9s14.5-1.7,20.6-4.9c6.1-3.3,11-7.9,14.5-13.7s5.3-12.4,5.3-19.6
			s-1.8-13.8-5.3-19.6c-3.5-5.8-8.4-10.4-14.5-13.7C233.1,112.8,226.2,111.1,218.6,111.1L218.6,111.1z M218.6,169.7
			c-3.8,0-7.2-0.9-10.2-2.6c-3-1.7-5.4-4.1-7.1-7.2c-1.7-3.1-2.6-6.7-2.6-10.6s0.9-7.5,2.6-10.6c1.7-3.1,4.1-5.5,7.1-7.2
			s6.4-2.6,10.2-2.6s7.2,0.9,10.2,2.6c3,1.7,5.4,4.1,7.1,7.2c1.7,3.1,2.6,6.7,2.6,10.6s-0.9,7.5-2.6,10.6c-1.7,3.1-4.1,5.5-7.1,7.2
			C225.8,168.9,222.4,169.7,218.6,169.7L218.6,169.7z"/>
	</g>
	<g>
		<path class="st0" d="M295.4,114.3c6.2,0,11.6,1,16.2,3.1s8.1,5,10.5,8.8c2.5,3.8,3.7,8.3,3.7,13.5c0,5.2-1.3,9.7-3.8,13.4
			c-2.5,3.8-6.1,6.7-10.7,8.7l15.7,22.5h-17.4l-13.5-19.5h-0.8h-14.1v19.5H265v-70H295.4 M281.3,151.9h13.2c4.9,0,8.6-1.1,11.1-3.2
			c2.5-2.1,3.8-5.1,3.8-9s-1.3-7-3.8-9.1s-6.2-3.1-11.1-3.1h-13.2V151.9 M295.4,112.3h-30.3c-1.1,0-2,0.9-2,2v70c0,1.1,0.9,2,2,2
			h16.2c1.1,0,2-0.9,2-2v-17.5h11.9l12.9,18.6c0.4,0.5,1,0.9,1.6,0.9h17.4c0.7,0,1.4-0.4,1.8-1.1c0.3-0.7,0.3-1.5-0.1-2.1
			l-14.4-20.6c3.9-2.1,7-4.9,9.3-8.3c2.7-4.1,4.1-9,4.1-14.6s-1.4-10.5-4-14.6c-2.7-4.1-6.5-7.3-11.4-9.5
			C307.6,113.4,301.9,112.3,295.4,112.3L295.4,112.3z M283.3,129.5h11.2c4.4,0,7.7,0.9,9.8,2.7c2.1,1.7,3.1,4.2,3.1,7.5
			s-1,5.7-3.1,7.5c-2.2,1.8-5.5,2.7-9.8,2.7h-11.2V129.5L283.3,129.5z"/>
	</g>
	<g>
		<path class="st0" d="M399.7,114.3L399.7,114.3 M399.7,114.3l-29,31.2l30.7,38.8h-18.9l-22.4-27.5l-9.4,9.8v17.7h-16.1v-70h16.1
			V147l31-32.7H399.7 M399.7,112.3L399.7,112.3h-18c-0.5,0-1.1,0.2-1.5,0.6L352.7,142v-27.7c0-1.1-0.9-2-2-2h-16.1c-1.1,0-2,0.9-2,2
			v70c0,1.1,0.9,2,2,2h16.1c1.1,0,2-0.9,2-2v-16.9l7.3-7.6l21,25.7c0.4,0.5,0.9,0.7,1.6,0.7h18.9c0.8,0,1.5-0.4,1.8-1.1
			c0.3-0.7,0.2-1.5-0.2-2.1l-29.6-37.5l27.8-29.9c0.4-0.4,0.6-0.9,0.6-1.4C401.7,113.2,400.8,112.3,399.7,112.3L399.7,112.3z
			 M399.7,116.3L399.7,116.3L399.7,116.3L399.7,116.3z"/>
	</g>
</g>
</svg>
