<?xml version="1.0" encoding="utf-8"?>
<!-- Generator: Adobe Illustrator 21.0.2, SVG Export Plug-In . SVG Version: 6.00 Build 0)  -->
<svg version="1.1" id="Layer_1" xmlns="http://www.w3.org/2000/svg" xmlns:xlink="http://www.w3.org/1999/xlink" x="0px" y="0px"
	 viewBox="0 0 702.3 98" style="enable-background:new 0 0 702.3 98;" xml:space="preserve">
<style type="text/css">
	.st0{fill:#FFFFFF;}
</style>
<g>
	<path class="st0" d="M69.6,13.8c6.1,0,11.5,1.1,16.4,3.2s9,5.2,12.4,9.2L88,35.8c-4.7-5.5-10.6-8.2-17.6-8.2
		c-4.3,0-8.2,0.9-11.6,2.9c-3.4,1.9-6,4.5-7.9,7.9S48,45.7,48,50s1,8.2,2.9,11.6c1.9,3.4,4.5,6.1,7.9,8s7.3,2.9,11.6,2.9
		c7,0,12.9-2.8,17.6-8.3l10.4,9.6c-3.3,4.1-7.5,7.2-12.4,9.3c-4.9,2.1-10.4,3.2-16.5,3.2c-7.1,0-13.6-1.5-19.3-4.7
		c-5.8-3.1-10.3-7.4-13.6-12.9C33.3,63.2,31.7,57,31.7,50c0-6.9,1.6-13.1,4.9-18.6c3.3-5.5,7.8-9.8,13.6-12.9
		C55.9,15.4,62.4,13.8,69.6,13.8 M69.6,11.8c-7.5,0-14.4,1.6-20.4,4.9c-6.1,3.3-10.9,7.8-14.4,13.6S29.6,42.7,29.6,50
		s1.8,13.9,5.2,19.7c3.5,5.8,8.3,10.4,14.4,13.6c6,3.2,12.9,4.9,20.3,4.9c6.3,0,12.1-1.1,17.3-3.4c5.2-2.3,9.6-5.6,13.2-9.9
		c0.7-0.8,0.6-2-0.2-2.7l-10.4-9.6c-0.4-0.3-0.9-0.5-1.4-0.5h-0.1c-0.5,0-1,0.3-1.4,0.7c-4.4,5.1-9.6,7.6-16.1,7.6
		c-4,0-7.5-0.9-10.6-2.6s-5.5-4.1-7.2-7.2C50.9,57.5,50,53.9,50,50c0-4,0.9-7.5,2.6-10.6c1.7-3.1,4.1-5.5,7.2-7.2
		c3.1-1.7,6.7-2.6,10.6-2.6c6.4,0,11.7,2.5,16.1,7.5c0.4,0.4,0.9,0.7,1.4,0.7H88c0.5,0,1-0.2,1.4-0.5l10.4-9.6
		c0.8-0.7,0.9-1.9,0.2-2.8c-3.5-4.2-7.9-7.5-13.1-9.8C81.7,12.9,75.9,11.8,69.6,11.8L69.6,11.8z"/>
</g>
<g>
	<path class="st0" d="M169.5,15v70h-16.2V56.3h-31.8V85h-16.2V15h16.2v27.6h31.8V15H169.5 M169.5,13h-16.2c-1.1,0-2,0.9-2,2v25.6
		h-27.8V15c0-1.1-0.9-2-2-2h-16.2c-1.1,0-2,0.9-2,2v70c0,1.1,0.9,2,2,2h16.2c1.1,0,2-0.9,2-2V58.3h27.8V85c0,1.1,0.9,2,2,2h16.2
		c1.1,0,2-0.9,2-2V15C171.5,13.9,170.6,13,169.5,13L169.5,13z"/>
</g>
<g>
	<path class="st0" d="M220.1,15l31.3,70h-17l-6.2-15h-32.5l-6.2,15h-16.6l31.2-70H220.1 M200.9,57.7h22.2L212,30.9L200.9,57.7
		 M220.1,13h-16c-0.8,0-1.5,0.5-1.8,1.2l-31.2,70c-0.3,0.6-0.2,1.3,0.1,1.9c0.4,0.6,1,0.9,1.7,0.9h16.6c0.8,0,1.5-0.5,1.8-1.2
		L197,72h29.8l5.7,13.8c0.3,0.7,1,1.2,1.8,1.2h17c0.7,0,1.3-0.3,1.7-0.9c0.4-0.6,0.4-1.3,0.1-1.9l-31.3-70
		C221.6,13.5,220.9,13,220.1,13L220.1,13z M203.9,55.7l8.1-19.6l8.1,19.6L203.9,55.7L203.9,55.7z"/>
</g>
<g>
	<path class="st0" d="M333.4,15l0.2,70h-15.2l-0.1-42l-20.6,34.6h-7.3l-20.5-33.7V85h-15.2V15h13.4l26.2,43.5L320.1,15H333.4
		 M333.4,13h-13.3c-0.7,0-1.4,0.4-1.7,1l-24.1,40.6L269.8,14c-0.4-0.6-1-1-1.7-1h-13.4c-1.1,0-2,0.9-2,2v70c0,1.1,0.9,2,2,2h15.2
		c1.1,0,2-0.9,2-2V51l16.8,27.6c0.4,0.6,1,1,1.7,1h7.3c0.7,0,1.4-0.4,1.7-1l16.9-28.4l0.1,34.8c0,1.1,0.9,2,2,2h15.2
		c0.5,0,1-0.2,1.4-0.6s0.6-0.9,0.6-1.4l-0.2-70C335.4,13.9,334.5,13,333.4,13L333.4,13z"/>
</g>
<g>
	<path class="st0" d="M399.1,15v13h-36.8v15.2h32.5v12.6h-32.5V72h38.1v13h-54.2V15H399.1 M399.1,13h-52.9c-1.1,0-2,0.9-2,2v70
		c0,1.1,0.9,2,2,2h54.2c1.1,0,2-0.9,2-2V72c0-1.1-0.9-2-2-2h-36.1V57.8h30.5c1.1,0,2-0.9,2-2V43.2c0-1.1-0.9-2-2-2h-30.5V30h34.8
		c1.1,0,2-0.9,2-2V15C401.1,13.9,400.2,13,399.1,13L399.1,13z"/>
</g>
<g>
	<path class="st0" d="M425.5,15v56.8h35.1V85h-51.3V15H425.5 M425.5,13h-16.2c-1.1,0-2,0.9-2,2v70c0,1.1,0.9,2,2,2h51.3
		c1.1,0,2-0.9,2-2V71.8c0-1.1-0.9-2-2-2h-33.1V15C427.5,13.9,426.6,13,425.5,13L425.5,13z"/>
</g>
<g>
	<path class="st0" d="M518.6,15v13h-36.8v15.2h32.5v12.6h-32.5V72h38.1v13h-54.2V15H518.6 M518.6,13h-52.9c-1.1,0-2,0.9-2,2v70
		c0,1.1,0.9,2,2,2h54.2c1.1,0,2-0.9,2-2V72c0-1.1-0.9-2-2-2h-36.1V57.8h30.5c1.1,0,2-0.9,2-2V43.2c0-1.1-0.9-2-2-2h-30.5V30h34.8
		c1.1,0,2-0.9,2-2V15C520.6,13.9,519.7,13,518.6,13L518.6,13z"/>
</g>
<g>
	<path class="st0" d="M562.5,13.8c7.3,0,13.8,1.6,19.6,4.7s10.4,7.5,13.7,13s5,11.7,5,18.5c0,6.9-1.7,13-5,18.5s-7.9,9.8-13.7,13
		c-5.8,3.1-12.3,4.7-19.6,4.7s-13.8-1.6-19.7-4.7c-5.8-3.1-10.4-7.5-13.7-13s-4.9-11.7-4.9-18.5c0-6.9,1.6-13,4.9-18.5
		c3.3-5.5,7.9-9.8,13.7-13C548.7,15.4,555.2,13.8,562.5,13.8 M562.5,72.4c4.1,0,7.9-1,11.2-2.9s5.9-4.5,7.8-8
		c1.9-3.4,2.8-7.3,2.8-11.6s-0.9-8.2-2.8-11.6c-1.9-3.4-4.5-6-7.8-7.9s-7.1-2.9-11.2-2.9c-4.1,0-7.9,0.9-11.2,2.9
		c-3.3,1.9-6,4.5-7.8,7.9c-1.9,3.4-2.9,7.3-2.9,11.6s1,8.2,2.9,11.6c1.9,3.4,4.5,6.1,7.8,8C554.6,71.5,558.4,72.4,562.5,72.4
		 M562.5,11.8c-7.6,0-14.5,1.7-20.6,4.9c-6.1,3.3-11,7.9-14.5,13.7s-5.2,12.4-5.2,19.6s1.8,13.8,5.2,19.6
		c3.5,5.8,8.3,10.4,14.5,13.7c6.1,3.3,13,4.9,20.6,4.9s14.5-1.7,20.6-4.9c6.1-3.3,11-7.9,14.5-13.7s5.3-12.4,5.3-19.6
		s-1.8-13.8-5.3-19.6s-8.4-10.4-14.5-13.7C577,13.5,570.1,11.8,562.5,11.8L562.5,11.8z M562.5,70.4c-3.8,0-7.2-0.9-10.2-2.6
		s-5.4-4.1-7.1-7.2c-1.7-3.1-2.6-6.7-2.6-10.6c0-4,0.9-7.5,2.6-10.6c1.7-3.1,4.1-5.5,7.1-7.2s6.4-2.6,10.2-2.6s7.2,0.9,10.2,2.6
		s5.4,4.1,7.1,7.2c1.7,3.1,2.6,6.7,2.6,10.6c0,4-0.9,7.5-2.6,10.6c-1.7,3.1-4.1,5.5-7.1,7.2C569.7,69.5,566.3,70.4,562.5,70.4
		L562.5,70.4z"/>
</g>
<g>
	<path class="st0" d="M673.2,15v70h-13.3L625,42.5V85h-16V15h13.4l34.8,42.5V15H673.2 M673.2,13h-16c-1.1,0-2,0.9-2,2v36.9
		l-31.3-38.2c-0.4-0.5-0.9-0.7-1.5-0.7H609c-1.1,0-2,0.9-2,2v70c0,1.1,0.9,2,2,2h16c1.1,0,2-0.9,2-2V48.1l31.3,38.2
		c0.4,0.5,0.9,0.7,1.5,0.7h13.3c1.1,0,2-0.9,2-2V15C675.2,13.9,674.3,13,673.2,13L673.2,13z"/>
</g>
</svg>
