<?xml version="1.0" encoding="utf-8"?>
<!-- Generator: Adobe Illustrator 21.0.2, SVG Export Plug-In . SVG Version: 6.00 Build 0)  -->
<svg version="1.1" id="Layer_1" xmlns="http://www.w3.org/2000/svg" xmlns:xlink="http://www.w3.org/1999/xlink" x="0px" y="0px"
	 viewBox="0 0 762 98" style="enable-background:new 0 0 762 98;" xml:space="preserve">
<style type="text/css">
	.st0{fill:#FFFFFF;}
</style>
<g>
	<g>
		<path class="st0" d="M72.9,13.8c6.1,0,11.5,1.1,16.4,3.2c4.9,2.1,9,5.2,12.4,9.2l-10.4,9.6c-4.7-5.5-10.6-8.2-17.6-8.2
			c-4.3,0-8.2,0.9-11.6,2.9c-3.4,1.9-6,4.5-7.9,7.9c-1.9,3.4-2.9,7.3-2.9,11.6c0,4.3,1,8.2,2.9,11.6c1.9,3.4,4.5,6.1,7.9,8
			c3.4,1.9,7.3,2.9,11.6,2.9c7,0,12.9-2.8,17.6-8.3l10.4,9.6c-3.3,4.1-7.5,7.2-12.4,9.3c-4.9,2.1-10.4,3.2-16.5,3.2
			c-7.1,0-13.6-1.5-19.3-4.7c-5.8-3.1-10.3-7.4-13.6-12.9c-3.3-5.5-4.9-11.7-4.9-18.7c0-6.9,1.6-13.1,4.9-18.6
			c3.3-5.5,7.8-9.8,13.6-12.9C59.2,15.4,65.7,13.8,72.9,13.8 M72.9,11.8c-7.5,0-14.4,1.6-20.4,4.9c-6.1,3.3-10.9,7.8-14.4,13.6
			c-3.5,5.8-5.2,12.4-5.2,19.7c0,7.3,1.8,13.9,5.2,19.7c3.5,5.8,8.3,10.4,14.4,13.6c6,3.2,12.9,4.9,20.3,4.9
			c6.3,0,12.1-1.1,17.3-3.4c5.2-2.3,9.6-5.6,13.2-9.9c0.7-0.8,0.6-2-0.2-2.7l-10.4-9.6c-0.4-0.3-0.9-0.5-1.4-0.5c0,0-0.1,0-0.1,0
			c-0.5,0-1,0.3-1.4,0.7c-4.4,5.1-9.6,7.6-16.1,7.6c-4,0-7.5-0.9-10.6-2.6c-3.1-1.7-5.5-4.1-7.2-7.2c-1.7-3.1-2.6-6.7-2.6-10.6
			c0-4,0.9-7.5,2.6-10.6c1.7-3.1,4.1-5.5,7.2-7.2c3.1-1.7,6.7-2.6,10.6-2.6c6.4,0,11.7,2.5,16.1,7.5c0.4,0.4,0.9,0.7,1.4,0.7
			c0,0,0.1,0,0.1,0c0.5,0,1-0.2,1.4-0.5l10.4-9.6c0.8-0.7,0.9-1.9,0.2-2.8c-3.5-4.2-7.9-7.5-13.1-9.8C85,12.9,79.2,11.8,72.9,11.8
			L72.9,11.8z"/>
	</g>
	<g>
		<path class="st0" d="M172.8,15v70h-16.2V56.3h-31.8V85h-16.2V15h16.2v27.6h31.8V15H172.8 M172.8,13h-16.2c-1.1,0-2,0.9-2,2v25.6
			h-27.8V15c0-1.1-0.9-2-2-2h-16.2c-1.1,0-2,0.9-2,2v70c0,1.1,0.9,2,2,2h16.2c1.1,0,2-0.9,2-2V58.3h27.8V85c0,1.1,0.9,2,2,2h16.2
			c1.1,0,2-0.9,2-2V15C174.8,13.9,173.9,13,172.8,13L172.8,13z"/>
	</g>
	<g>
		<path class="st0" d="M223.4,15l31.3,70h-17l-6.2-15H199l-6.2,15h-16.6l31.2-70H223.4 M204.2,57.7h22.2l-11.1-26.8L204.2,57.7
			 M223.4,13h-16c-0.8,0-1.5,0.5-1.8,1.2l-31.2,70c-0.3,0.6-0.2,1.3,0.1,1.9c0.4,0.6,1,0.9,1.7,0.9h16.6c0.8,0,1.5-0.5,1.8-1.2
			l5.7-13.8h29.8l5.7,13.8c0.3,0.7,1,1.2,1.8,1.2h17c0.7,0,1.3-0.3,1.7-0.9c0.4-0.6,0.4-1.3,0.1-1.9l-31.3-70
			C224.9,13.5,224.2,13,223.4,13L223.4,13z M207.2,55.7l8.1-19.6l8.1,19.6H207.2L207.2,55.7z"/>
	</g>
	<g>
		<path class="st0" d="M336.7,15l0.2,70h-15.2l-0.1-42L301,77.6h-7.3l-20.5-33.7V85H258V15h13.4l26.2,43.5L323.4,15H336.7 M336.7,13
			h-13.3c-0.7,0-1.4,0.4-1.7,1l-24.1,40.6L273.1,14c-0.4-0.6-1-1-1.7-1H258c-1.1,0-2,0.9-2,2v70c0,1.1,0.9,2,2,2h15.2
			c1.1,0,2-0.9,2-2V51L292,78.6c0.4,0.6,1,1,1.7,1h7.3c0.7,0,1.4-0.4,1.7-1l16.9-28.4l0.1,34.8c0,1.1,0.9,2,2,2h15.2
			c0.5,0,1-0.2,1.4-0.6c0.4-0.4,0.6-0.9,0.6-1.4l-0.2-70C338.7,13.9,337.8,13,336.7,13L336.7,13z"/>
	</g>
	<g>
		<path class="st0" d="M402.4,15v13h-36.8v15.2h32.5v12.6h-32.5V72h38.1v13h-54.2V15H402.4 M402.4,13h-52.9c-1.1,0-2,0.9-2,2v70
			c0,1.1,0.9,2,2,2h54.2c1.1,0,2-0.9,2-2V72c0-1.1-0.9-2-2-2h-36.1V57.8h30.5c1.1,0,2-0.9,2-2V43.2c0-1.1-0.9-2-2-2h-30.5V30h34.8
			c1.1,0,2-0.9,2-2V15C404.4,13.9,403.5,13,402.4,13L402.4,13z"/>
	</g>
	<g>
		<path class="st0" d="M428.8,15v56.8h35.1V85h-51.3V15H428.8 M428.8,13h-16.2c-1.1,0-2,0.9-2,2v70c0,1.1,0.9,2,2,2h51.3
			c1.1,0,2-0.9,2-2V71.8c0-1.1-0.9-2-2-2h-33.1V15C430.8,13.9,429.9,13,428.8,13L428.8,13z"/>
	</g>
	<g>
		<path class="st0" d="M485.2,15v56.8h35.1V85H469V15H485.2 M485.2,13H469c-1.1,0-2,0.9-2,2v70c0,1.1,0.9,2,2,2h51.3
			c1.1,0,2-0.9,2-2V71.8c0-1.1-0.9-2-2-2h-33.1V15C487.2,13.9,486.3,13,485.2,13L485.2,13z"/>
	</g>
	<g>
		<path class="st0" d="M578.3,15v13h-36.8v15.2H574v12.6h-32.5V72h38.1v13h-54.2V15H578.3 M578.3,13h-52.9c-1.1,0-2,0.9-2,2v70
			c0,1.1,0.9,2,2,2h54.2c1.1,0,2-0.9,2-2V72c0-1.1-0.9-2-2-2h-36.1V57.8H574c1.1,0,2-0.9,2-2V43.2c0-1.1-0.9-2-2-2h-30.5V30h34.8
			c1.1,0,2-0.9,2-2V15C580.3,13.9,579.4,13,578.3,13L578.3,13z"/>
	</g>
	<g>
		<path class="st0" d="M622.2,13.8c7.3,0,13.8,1.6,19.6,4.7c5.8,3.1,10.4,7.5,13.7,13c3.3,5.5,5,11.7,5,18.5c0,6.9-1.7,13-5,18.5
			c-3.3,5.5-7.9,9.8-13.7,13c-5.8,3.1-12.3,4.7-19.6,4.7c-7.3,0-13.8-1.6-19.7-4.7c-5.8-3.1-10.4-7.5-13.7-13
			c-3.3-5.5-4.9-11.7-4.9-18.5c0-6.9,1.6-13,4.9-18.5c3.3-5.5,7.9-9.8,13.7-13C608.4,15.4,614.9,13.8,622.2,13.8 M622.2,72.4
			c4.1,0,7.9-1,11.2-2.9c3.3-1.9,5.9-4.5,7.8-8c1.9-3.4,2.8-7.3,2.8-11.6c0-4.3-0.9-8.2-2.8-11.6c-1.9-3.4-4.5-6-7.8-7.9
			c-3.3-1.9-7.1-2.9-11.2-2.9c-4.1,0-7.9,0.9-11.2,2.9c-3.3,1.9-6,4.5-7.8,7.9c-1.9,3.4-2.9,7.3-2.9,11.6c0,4.3,1,8.2,2.9,11.6
			c1.9,3.4,4.5,6.1,7.8,8C614.3,71.5,618.1,72.4,622.2,72.4 M622.2,11.8c-7.6,0-14.5,1.7-20.6,4.9c-6.1,3.3-11,7.9-14.5,13.7
			c-3.5,5.8-5.2,12.4-5.2,19.6s1.8,13.8,5.2,19.6c3.5,5.8,8.3,10.4,14.5,13.7c6.1,3.3,13,4.9,20.6,4.9c7.6,0,14.5-1.7,20.6-4.9
			c6.1-3.3,11-7.9,14.5-13.7c3.5-5.8,5.3-12.4,5.3-19.6s-1.8-13.8-5.3-19.6c-3.5-5.8-8.4-10.4-14.5-13.7
			C636.7,13.5,629.8,11.8,622.2,11.8L622.2,11.8z M622.2,70.4c-3.8,0-7.2-0.9-10.2-2.6c-3-1.7-5.4-4.1-7.1-7.2
			c-1.7-3.1-2.6-6.7-2.6-10.6c0-4,0.9-7.5,2.6-10.6c1.7-3.1,4.1-5.5,7.1-7.2c3-1.7,6.4-2.6,10.2-2.6c3.8,0,7.2,0.9,10.2,2.6
			c3,1.7,5.4,4.1,7.1,7.2c1.7,3.1,2.6,6.7,2.6,10.6c0,4-0.9,7.5-2.6,10.6c-1.7,3.1-4.1,5.5-7.1,7.2C629.4,69.5,626,70.4,622.2,70.4
			L622.2,70.4z"/>
	</g>
	<g>
		<path class="st0" d="M732.9,15v70h-13.3l-34.9-42.5V85h-16V15h13.4l34.8,42.5V15H732.9 M732.9,13h-16c-1.1,0-2,0.9-2,2v36.9
			l-31.3-38.2c-0.4-0.5-0.9-0.7-1.5-0.7h-13.4c-1.1,0-2,0.9-2,2v70c0,1.1,0.9,2,2,2h16c1.1,0,2-0.9,2-2V48.1L718,86.3
			c0.4,0.5,0.9,0.7,1.5,0.7h13.3c1.1,0,2-0.9,2-2V15C734.9,13.9,734,13,732.9,13L732.9,13z"/>
	</g>
</g>
</svg>
