<?xml version="1.0" encoding="utf-8"?>
<!-- Generator: Adobe Illustrator 21.0.2, SVG Export Plug-In . SVG Version: 6.00 Build 0)  -->
<svg version="1.1" id="Layer_1" xmlns="http://www.w3.org/2000/svg" xmlns:xlink="http://www.w3.org/1999/xlink" x="0px" y="0px"
	 viewBox="0 0 577 98" style="enable-background:new 0 0 577 98;" xml:space="preserve">
<style type="text/css">
	.st0{fill:#FFFFFF;}
</style>
<path class="st0" d="M228.7,13.5c7.3,0,13.8,1.6,19.6,4.7c5.8,3.1,10.4,7.5,13.7,13c3.3,5.5,5,11.7,5,18.5c0,6.9-1.7,13.1-5,18.6
	c-3.3,5.5-7.9,9.8-13.7,12.9c-5.8,3.1-12.3,4.7-19.6,4.7c-7.3,0-13.8-1.6-19.7-4.7c-5.8-3.1-10.4-7.4-13.7-12.9
	c-3.3-5.5-4.9-11.7-4.9-18.6c0-6.9,1.6-13,4.9-18.5c3.3-5.5,7.9-9.8,13.7-13C214.9,15,221.4,13.5,228.7,13.5 M228.7,72.1
	c4.1,0,7.9-0.9,11.2-2.8c3.3-1.9,5.9-4.6,7.8-8c1.9-3.4,2.8-7.3,2.8-11.6c0-4.3-0.9-8.2-2.8-11.6s-4.5-6-7.8-7.9
	c-3.3-1.9-7.1-2.9-11.2-2.9c-4.1,0-7.9,0.9-11.2,2.9c-3.3,1.9-6,4.5-7.8,7.9c-1.9,3.4-2.9,7.3-2.9,11.6c0,4.3,1,8.2,2.9,11.6
	c1.9,3.4,4.5,6,7.8,8C220.8,71.1,224.6,72.1,228.7,72.1 M228.7,11.5c-7.6,0-14.5,1.7-20.6,4.9c-6.1,3.3-11,7.9-14.5,13.7
	c-3.5,5.8-5.2,12.4-5.2,19.6c0,7.2,1.8,13.8,5.2,19.6c3.5,5.8,8.3,10.4,14.5,13.7c6.1,3.3,13,4.9,20.6,4.9c7.6,0,14.5-1.7,20.6-4.9
	c6.1-3.3,11-7.9,14.5-13.7c3.5-5.8,5.3-12.4,5.3-19.6c0-7.2-1.8-13.8-5.3-19.6c-3.5-5.8-8.4-10.4-14.5-13.7
	C243.2,13.1,236.3,11.5,228.7,11.5L228.7,11.5z M228.7,70.1c-3.8,0-7.2-0.9-10.2-2.6c-3-1.7-5.4-4.1-7.1-7.2
	c-1.7-3.1-2.6-6.7-2.6-10.6c0-4,0.9-7.5,2.6-10.6c1.7-3.1,4.1-5.5,7.1-7.2c3-1.7,6.4-2.6,10.2-2.6c3.8,0,7.2,0.9,10.2,2.6
	c3,1.7,5.4,4.1,7.1,7.2c1.7,3.1,2.6,6.7,2.6,10.6c0,4-0.9,7.5-2.6,10.6c-1.7,3.1-4.1,5.5-7.1,7.2C235.9,69.2,232.5,70.1,228.7,70.1
	L228.7,70.1z"/>
<path class="st0" d="M300.6,13.5c4.5,0,8.8,0.5,13.1,1.6c4.3,1.1,8,2.6,11.2,4.6l-5,12.3c-6.5-3.7-12.9-5.5-19.4-5.5
	c-4.5,0-7.9,0.7-10,2.2c-2.2,1.5-3.3,3.4-3.3,5.8c0,2.4,1.3,4.2,3.8,5.4c2.5,1.2,6.3,2.3,11.5,3.5c5.3,1.3,9.7,2.5,13.1,3.8
	c3.4,1.3,6.3,3.3,8.8,6c2.4,2.7,3.7,6.4,3.7,11.1c0,4-1.1,7.7-3.3,11c-2.2,3.3-5.6,5.9-10.1,7.8c-4.5,1.9-9.9,2.9-16.3,2.9
	c-5.5,0-10.9-0.8-16-2.3c-5.2-1.5-9.3-3.5-12.5-5.9l5.5-12.2c3,2.2,6.6,4,10.7,5.3c4.1,1.3,8.3,2,12.4,2c4.6,0,8-0.7,10.2-2.1
	c2.2-1.4,3.3-3.2,3.3-5.4c0-1.7-0.7-3.1-2-4.2c-1.3-1.1-3-2-5-2.7c-2-0.7-4.8-1.4-8.3-2.2c-5.3-1.3-9.7-2.5-13.1-3.8
	c-3.4-1.3-6.3-3.3-8.8-6.1c-2.4-2.8-3.6-6.5-3.6-11.2c0-4.1,1.1-7.8,3.3-11.1c2.2-3.3,5.5-5.9,10-7.8
	C288.8,14.4,294.2,13.5,300.6,13.5 M300.6,11.5c-6.6,0-12.4,1-17,3.1c-4.8,2.1-8.4,5-10.8,8.6c-2.4,3.6-3.6,7.7-3.6,12.2
	c0,5.1,1.4,9.4,4.1,12.5c2.6,3,5.9,5.3,9.6,6.7c3.5,1.3,8,2.6,13.3,3.9c3.4,0.8,6.1,1.5,8.1,2.2c1.8,0.6,3.2,1.4,4.3,2.3
	c0.8,0.7,1.2,1.6,1.2,2.6c0,1-0.2,2.4-2.4,3.7c-1.9,1.2-4.9,1.8-9.1,1.8c-3.9,0-7.9-0.6-11.8-1.9c-3.9-1.3-7.3-2.9-10.1-5
	c-0.3-0.3-0.8-0.4-1.2-0.4c-0.2,0-0.3,0-0.5,0.1c-0.6,0.2-1.1,0.6-1.3,1.1l-5.5,12.2c-0.4,0.8-0.1,1.8,0.6,2.4
	c3.3,2.5,7.7,4.6,13.1,6.2c5.3,1.5,10.9,2.3,16.6,2.3c6.6,0,12.4-1,17.1-3.1c4.8-2.1,8.5-5,10.9-8.6c2.5-3.6,3.7-7.7,3.7-12.1
	c0-5.1-1.4-9.3-4.2-12.4c-2.6-3-5.9-5.2-9.5-6.5c-3.5-1.3-7.9-2.6-13.3-3.9c-5-1.1-8.7-2.2-11.1-3.3c-2.3-1.1-2.6-2.5-2.6-3.5
	c0-1.7,0.8-3,2.4-4.1c1.8-1.2,4.8-1.9,8.9-1.9c6.1,0,12.3,1.8,18.4,5.2c0.3,0.2,0.6,0.3,1,0.3c0.2,0,0.4,0,0.7-0.1
	c0.5-0.2,1-0.6,1.2-1.1l5-12.3c0.4-0.9,0-1.9-0.8-2.4c-3.4-2.1-7.3-3.7-11.8-4.8C309.8,12,305.2,11.5,300.6,11.5L300.6,11.5z"/>
<path class="st0" d="M368.9,13.5c7.3,0,13.8,1.6,19.6,4.7c5.8,3.1,10.4,7.5,13.7,13c3.3,5.5,5,11.7,5,18.5c0,6.9-1.7,13.1-5,18.6
	c-3.3,5.5-7.9,9.8-13.7,12.9c-5.8,3.1-12.3,4.7-19.6,4.7c-7.3,0-13.8-1.6-19.7-4.7c-5.8-3.1-10.4-7.4-13.7-12.9
	c-3.3-5.5-4.9-11.7-4.9-18.6c0-6.9,1.6-13,4.9-18.5c3.3-5.5,7.9-9.8,13.7-13C355.1,15,361.6,13.5,368.9,13.5 M368.9,72.1
	c4.1,0,7.9-0.9,11.2-2.8c3.3-1.9,5.9-4.6,7.8-8c1.9-3.4,2.8-7.3,2.8-11.6c0-4.3-0.9-8.2-2.8-11.6s-4.5-6-7.8-7.9
	c-3.3-1.9-7.1-2.9-11.2-2.9c-4.1,0-7.9,0.9-11.2,2.9c-3.3,1.9-6,4.5-7.8,7.9c-1.9,3.4-2.9,7.3-2.9,11.6c0,4.3,1,8.2,2.9,11.6
	c1.9,3.4,4.5,6,7.8,8C361,71.1,364.8,72.1,368.9,72.1 M368.9,11.5c-7.6,0-14.5,1.7-20.6,4.9c-6.1,3.3-11,7.9-14.5,13.7
	c-3.5,5.8-5.2,12.4-5.2,19.6c0,7.2,1.8,13.8,5.2,19.6c3.5,5.8,8.3,10.4,14.5,13.7c6.1,3.3,13,4.9,20.6,4.9c7.6,0,14.5-1.7,20.6-4.9
	c6.1-3.3,11-7.9,14.5-13.7c3.5-5.8,5.3-12.4,5.3-19.6c0-7.2-1.8-13.8-5.3-19.6c-3.5-5.8-8.4-10.4-14.5-13.7
	C383.4,13.1,376.5,11.5,368.9,11.5L368.9,11.5z M368.9,70.1c-3.8,0-7.2-0.9-10.2-2.6c-3-1.7-5.4-4.1-7.1-7.2
	c-1.7-3.1-2.6-6.7-2.6-10.6c0-4,0.9-7.5,2.6-10.6c1.7-3.1,4.1-5.5,7.1-7.2c3-1.7,6.4-2.6,10.2-2.6c3.8,0,7.2,0.9,10.2,2.6
	c3,1.7,5.4,4.1,7.1,7.2c1.7,3.1,2.6,6.7,2.6,10.6c0,4-0.9,7.5-2.6,10.6c-1.7,3.1-4.1,5.5-7.1,7.2C376.1,69.2,372.7,70.1,368.9,70.1
	L368.9,70.1z"/>
<path class="st0" d="M494.1,14.7l0.2,70h-15.2l-0.1-42l-20.6,34.6h-7.3l-20.5-33.7v41.1h-15.2v-70h13.4L455,58.2l25.8-43.5H494.1
	 M494.1,12.7h-13.3c-0.7,0-1.4,0.4-1.7,1L455,54.3l-24.5-40.6c-0.4-0.6-1-1-1.7-1h-13.4c-1.1,0-2,0.9-2,2v70c0,1.1,0.9,2,2,2h15.2
	c1.1,0,2-0.9,2-2v-34l16.8,27.6c0.4,0.6,1,1,1.7,1h7.3c0.7,0,1.4-0.4,1.7-1L477,49.9l0.1,34.8c0,1.1,0.9,2,2,2h15.2
	c0.5,0,1-0.2,1.4-0.6c0.4-0.4,0.6-0.9,0.6-1.4l-0.2-70C496.1,13.6,495.2,12.7,494.1,12.7L494.1,12.7z"/>
<path class="st0" d="M559.8,14.7v13H523v15.2h32.5v12.6H523v16.2h38.1v13h-54.2v-70H559.8 M559.8,12.7h-52.9c-1.1,0-2,0.9-2,2v70
	c0,1.1,0.9,2,2,2h54.2c1.1,0,2-0.9,2-2v-13c0-1.1-0.9-2-2-2H525V57.5h30.5c1.1,0,2-0.9,2-2V42.9c0-1.1-0.9-2-2-2H525V29.7h34.8
	c1.1,0,2-0.9,2-2v-13C561.8,13.6,560.9,12.7,559.8,12.7L559.8,12.7z"/>
<path class="st0" d="M192.2,13.5c-0.4-0.5-1-0.8-1.6-0.8h-15.5c-0.9,0-1.6,0.6-1.9,1.4l-14.4,43.8l-14.1-43.8
	c-0.3-0.8-1-1.4-1.9-1.4h-15c-0.9,0-1.6,0.5-1.9,1.4l-14.6,43.4L97.4,14.1c-0.3-0.8-1-1.4-1.9-1.4H81.4h-2.7H20.4c-1.1,0-2,0.9-2,2
	v13.2c0,1.1,0.9,2,2,2h20.4v54.8c0,1.1,0.9,2,2,2H59c1.1,0,2-0.9,2-2V29.9h20.4c0.1,0,0.1,0,0.2,0l18.2,55.4c0.3,0.8,1,1.4,1.9,1.4
	H119c0.9,0,1.6-0.5,1.9-1.4l14-41.7l13.5,41.6c0.3,0.8,1,1.4,1.9,1.4h17.4c0.9,0,1.6-0.6,1.9-1.4l22.9-70
	C192.7,14.7,192.6,14,192.2,13.5z M167.7,84.7h-17.4l-15.4-47.4L119,84.7h-17.3L81.4,22.9v5H59v56.8H42.8V27.9H20.4V14.7h58.3h2.7
	h14.1l15.8,49.2l16.5-49.2h15l16,49.6l16.3-49.6h15.5L167.7,84.7z"/>
</svg>
