<?xml version="1.0" encoding="utf-8"?>
<!-- Generator: Adobe Illustrator 21.0.2, SVG Export Plug-In . SVG Version: 6.00 Build 0)  -->
<svg version="1.1" id="Layer_1" xmlns="http://www.w3.org/2000/svg" xmlns:xlink="http://www.w3.org/1999/xlink" x="0px" y="0px"
	 viewBox="0 0 400 400" style="enable-background:new 0 0 400 400;" xml:space="preserve">
<style type="text/css">
	.st0{fill:#EF6600;}
	.st1{fill:#E8A64D;}
	.st2{fill:url(#SVGID_1_);}
</style>
<g>
	<g>
		<path class="st0" d="M26.9,221.2c-1.9,0.6-4,0.9-6.2,0.9c-3.2,0-6.1-0.7-9-2s-5.2-3.5-7-6.3C2.9,211,2,207.3,2,202.9
			c0-4,0.7-7.7,2.1-11.2c1.4-3.5,3.7-6.3,6.8-8.6c3.1-2.2,6.9-3.3,11.5-3.3c2.5,0,4.9,0.4,7,1.2s4,1.8,5.5,3l-3.3,6
			c-1.2-1-2.5-1.9-4.2-2.8c-1.6-0.7-3.4-1.1-5.2-1.1c-2.9,0-5.4,0.7-7.4,2.1s-3.7,3.4-4.8,5.8s-1.6,5.2-1.6,8.2
			c0,2.7,0.5,4.9,1.5,6.9c1,2,2.5,3.6,4.4,4.7c1.9,1.1,4.1,1.6,6.5,1.6c1.8,0,3.4-0.2,4.6-0.7s2.5-1.1,4-1.9l1.9,6.1
			C30.4,219.8,28.9,220.5,26.9,221.2z"/>
		<path class="st0" d="M71.4,221.5H65l2.1-17.5H48l-2,17.5h-6.4l4.8-41.3h6.4l-2,17.3h19l2-17.3h6.4L71.4,221.5z"/>
		<path class="st0" d="M103.4,211.7H89.1l-4.9,9.7h-6.1l22.3-42.9h0.4l12.3,43h-7.2L103.4,211.7z M102,206.1l-3.4-12.8l-6.5,12.8
			H102z"/>
	</g>
</g>
<g>
	<path class="st1" d="M254.4,180.2l-4.1,35h19.4l-0.7,6.3h-25.6l4.8-41.3H254.4z"/>
	<path class="st1" d="M307.6,180.2l-0.7,6.1h-19.6l-1.3,11.3h17.3l-0.7,6.2h-17.4l-1.2,11.3h20.3l-0.7,6.3h-26.8l4.8-41.3H307.6z"/>
	<path class="st1" d="M322,219.6c-2.9-1.4-5.2-3.7-6.9-6.6s-2.7-6.5-2.7-10.8c0-3.5,0.8-7,2.4-10.5c1.6-3.5,4.1-6.3,7.3-8.6
		s7.1-3.4,11.6-3.4c3.3,0,6.3,0.7,9.2,2.2c2.9,1.4,5.2,3.7,6.9,6.6c1.7,3,2.7,6.5,2.7,10.8c0,3.5-0.8,7-2.4,10.5
		c-1.6,3.5-4.1,6.3-7.3,8.6s-7.1,3.4-11.6,3.4C327.9,221.8,324.8,221.1,322,219.6z M339.5,213.1c2.2-1.6,3.9-3.6,4.9-6
		c1.1-2.4,1.6-4.9,1.6-7.3s-0.5-4.7-1.6-6.7c-1.1-2-2.7-3.8-4.5-5c-1.9-1.2-4.1-1.8-6.4-1.8c-3.3,0-6,0.8-8.2,2.3
		c-2.2,1.6-3.8,3.6-4.9,6c-1,2.4-1.5,4.9-1.5,7.3s0.5,4.7,1.6,6.7c1,2.1,2.5,3.8,4.5,5c1.9,1.2,4.1,1.8,6.4,1.8
		C334.5,215.4,337.3,214.6,339.5,213.1z"/>
	<path class="st1" d="M397.9,180.2l-5,42.8h-0.2l-24.9-29l-3.1,27.4h-6.3l5-42.7h0.3l24.7,29.3l3.2-27.9h6.3V180.2z"/>
</g>
<linearGradient id="SVGID_1_" gradientUnits="userSpaceOnUse" x1="119.7106" y1="201.55" x2="239.9182" y2="201.55" gradientTransform="matrix(1 0 0 -1 0 401.7)">
	<stop  offset="0" style="stop-color:#EF6600"/>
	<stop  offset="1" style="stop-color:#E8A64D"/>
</linearGradient>
<path class="st2" d="M128.4,165.3l-8.7,69.7h111.5l8.7-69.7C239.9,165.3,128.4,165.3,128.4,165.3z M179.7,221.5h-7.9l2.3-19.9
	L159,220.9h-0.1l-10.3-18.1l-2.1,18.8h-7.5l5.1-43.4h0.1l16.4,29.9l24.1-30.1h0.1L179.7,221.5z M221,187.3h-19l-1.1,9.3h16.7
	l-0.9,7.9H200l-1.1,9.1h19.7l-0.9,7.9h-27.8l4.9-41.7h27L221,187.3z"/>
</svg>
