<?xml version="1.0" encoding="utf-8"?>
<!-- Generator: Adobe Illustrator 21.0.2, SVG Export Plug-In . SVG Version: 6.00 Build 0)  -->
<svg version="1.1" id="Layer_1" xmlns="http://www.w3.org/2000/svg" xmlns:xlink="http://www.w3.org/1999/xlink" x="0px" y="0px"
	 viewBox="0 0 2048 2048" style="enable-background:new 0 0 2048 2048;" xml:space="preserve">
<style type="text/css">
	.st0{fill:#FFFFFF;}
	.st1{fill:none;}
</style>
<g id="Layer_x0020_1">
	<path class="st0" d="M1642.3,1691.7l133.8-1498.3l1.8-19.7h-19.7H289.9h-19.7l1.8,19.7L405.6,1692l1.1,12.5l12,3.3l599.6,166.5h9.6
		l601.2-166.7l12-3.3L1642.3,1691.7L1642.3,1691.7z M1025.2,505.3h438.1l-13.2,153.3l-432.2,192.1l7.3,34.6h405.6l-46.7,535
		l-360.4,99.9l-360.3-99.8l-22.9-256.2h148.4l11.9,129.9l1.2,12.6l12.2,3.2l206.4,54.8l9.4-0.1l204.1-56.7l12.2-3.4l1.1-12.5
		l20.4-239.9l1.7-19.6h-19.7h-224.5H628.4l-13.5-154L1032.3,700l29.6-12.7l-7.1-34.7h-29.6H595.9l-13.1-147.3h440.6L1025.2,505.3
		L1025.2,505.3z"/>
</g>
<rect class="st1" width="2048" height="2048"/>
</svg>
