<?xml version="1.0" encoding="utf-8"?>
<!-- Generator: Adobe Illustrator 21.0.2, SVG Export Plug-In . SVG Version: 6.00 Build 0)  -->
<svg version="1.1" id="Layer_1" xmlns="http://www.w3.org/2000/svg" xmlns:xlink="http://www.w3.org/1999/xlink" x="0px" y="0px"
	 viewBox="0 0 1024 1024" style="enable-background:new 0 0 1024 1024;" xml:space="preserve">
<style type="text/css">
	.st0{fill:#FFFFFF;}
</style>
<g>
	<g>
		<path class="st0" d="M998.8,732.7c-13.8,22.9-26.3,46.8-41.7,68.6c-76.8,108.9-181.9,172.5-313.4,192.4
			c-66.2,10-132.5,7.9-198.1-4.6c-69.7-13.2-133-43.2-191.3-82.8c-119.5-81.1-202-189.7-238.6-330.5C-8.7,482-6.4,389,35,299.6
			c10.8-23.3,25.3-45.1,40.2-66.2c17.2-24.3,36.7-47.1,56.6-69.7c-3.4,7.9-6.9,15.7-10.1,23.7c-37.2,93.9-37.6,189.3-9,284.9
			c38.9,130.2,119.2,230,230.6,305.6c100,67.8,210.8,100.2,331.7,96.8c91.8-2.6,178-24.7,252.8-80.4c24.9-18.6,46.8-41.3,70-62.1
			C998.1,732.5,998.4,732.6,998.8,732.7z"/>
		<path class="st0" d="M1024,474.5c-7.5,14.8-14,29.9-22.4,43.8c-53.7,89.8-133.2,141-236.2,157.2c-52.9,8.3-105.7,6.8-157.8-3.4
			c-37.7-7.4-72.9-23.7-106-43.5c-95.8-57.3-164-137-192.5-246.3c-24.3-93.2-11.3-180.8,47-259.7c11.4-15.4,22.2-31.3,33.3-46.9
			c0.4-0.5,1-0.9,2.3-2.1c-0.4,2-0.4,3.4-0.9,4.5c-42.3,91.8-38.9,184,4.7,273C463.7,490.4,577,570.8,731.2,590.3
			c86.5,10.9,167-8.2,236.8-62.5C988,512.2,1004.9,492.8,1024,474.5z"/>
		<path class="st0" d="M605.3,24c-4.3,17.4-10.1,34.3-12.4,51.7c-7.5,56.2,9.3,106.6,40.7,152.4c47.2,68.7,113.3,106.4,195.8,116
			c26.3,3.1,52.4,2.9,78.3-3.3c29.3-7,41-14,82.2-48.9c-2.5,4.8-3.8,7.7-5.5,10.4C945.6,366.2,889,398,814.3,401
			c-127.8,5.2-233.3-91.4-257-190.9c-14-58.8-4.7-113.5,31.1-162.9C594,39.4,599.7,31.7,605.3,24z"/>
	</g>
</g>
</svg>
