<?xml version="1.0" encoding="utf-8"?>
<!-- Generator: Adobe Illustrator 21.0.2, SVG Export Plug-In . SVG Version: 6.00 Build 0)  -->
<svg version="1.1" id="Layer_1" xmlns="http://www.w3.org/2000/svg" xmlns:xlink="http://www.w3.org/1999/xlink" x="0px" y="0px"
	 viewBox="0 0 512 512" style="enable-background:new 0 0 512 512;" xml:space="preserve">
<style type="text/css">
	.st0{fill:#FFFFFF;}
</style>
<g id="comp_x5F_288-sass">
	<g>
		<path class="st0" d="M422,281.8c-16.1,0.1-30,4-41.7,9.7c-4.2-8.6-8.6-16-9.3-21.6c-0.9-6.5-1.8-10.4-0.8-18.2
			c1-7.8,5.5-18.8,5.5-19.5c-0.1-0.8-1-4.7-10.3-4.8c-9.3-0.1-17.2,1.8-18.2,4.2c-0.9,2.4-2.7,8-3.8,13.7
			c-1.7,8.4-18.5,38.4-28.1,54.1c-3.2-6.1-5.8-11.5-6.4-15.8c-0.9-6.5-1.8-10.4-0.8-18.2c1-7.8,5.5-18.8,5.5-19.5
			c-0.1-0.8-1-4.7-10.3-4.8c-9.3-0.1-17.2,1.8-18.2,4.2c-0.9,2.4-1.9,8.2-3.8,13.7c-1.9,5.5-24.4,55.5-30.3,68.5
			c-3,6.6-5.6,11.9-7.5,15.5c-0.3,0.6-0.5,0.9-0.6,1.2c0.2-0.4,0.4-0.7,0.4-0.6c-1.6,3.1-2.5,4.8-2.5,4.8v0.1
			c-1.2,2.3-2.6,4.4-3.2,4.4c-0.4,0-1.4-6,0.2-14.3c3.4-17.4,11.4-44.4,11.3-45.3c-0.1-0.5,1.5-5.2-5.2-7.7
			c-6.5-2.4-8.9,1.6-9.5,1.6s-1,1.4-1,1.4s7.3-30.5-13.9-30.5c-13.2,0-31.6,14.5-40.7,27.7c-5.7,3.1-18,9.8-30.9,16.9
			c-5,2.7-10.1,5.5-14.9,8.2c-0.4-0.4-0.6-0.7-1-1.1c-25.7-27.4-73.2-46.8-71.2-83.7c0.7-13.4,5.4-48.7,91.3-91.5
			c70.4-35.1,126.8-25.4,136.5-4c13.9,30.5-30.1,87.4-103.3,95.6c-27.9,3.1-42.5-7.7-46.2-11.7c-3.8-4.2-4.4-4.5-5.8-3.7
			c-2.4,1.3-0.9,5,0,7.3c2.2,5.7,11.1,15.7,26.4,20.8c13.4,4.4,46.1,6.8,85.6-8.5c44.4-17.1,79-64.7,68.8-104.6
			C303.8,85.2,236.6,71.9,173,94.5c-37.9,13.4-78.8,34.6-108.3,62.1c-35,32.8-40.6,61.3-38.3,73.2c8.2,42.3,66.5,69.9,89.9,90.3
			c-1.2,0.6-2.2,1.2-3.2,1.8c-11.7,5.8-56.2,29.1-67.3,53.7c-12.6,27.9,2.1,47.9,11.7,50.6c30,8.3,60.8-6.7,77.3-31.3
			c16.5-24.6,14.5-56.8,6.9-71.5c-0.1-0.2-0.2-0.4-0.3-0.6c3-1.8,6.1-3.6,9.2-5.4c6-3.5,11.8-6.8,16.9-9.6c-2.9,7.8-5,17.1-6,30.6
			c-1.3,15.8,5.2,36.3,13.7,44.3c3.7,3.5,8.3,3.6,11.1,3.6c9.9,0,14.4-8.2,19.3-18c6.1-11.9,11.5-25.8,11.5-25.8
			s-6.8,37.5,11.7,37.5c6.8,0,13.5-8.7,16.5-13.1v0.1c0,0,0.1-0.3,0.5-0.9c0.7-1.1,1.1-1.7,1.1-1.7v-0.2c2.7-4.7,8.7-15.4,17.7-33.1
			c11.6-22.9,22.8-51.4,22.8-51.4s1,7,4.5,18.5c2,6.8,6.3,14.3,9.6,21.6c-2.7,3.7-4.4,5.9-4.4,5.9s0,0.1,0.1,0.1
			c-2.2,2.9-4.6,6-7.1,9c-9.2,10.9-20.1,23.4-21.6,27c-1.7,4.2-1.3,7.4,2,9.8c2.4,1.9,6.8,2.2,11.3,1.8c8.3-0.6,14.1-2.6,16.9-3.9
			c4.5-1.6,9.6-4.1,14.5-7.6c9-6.6,14.4-16.1,13.9-28.6c-0.3-6.9-2.5-13.8-5.2-20.3c0.8-1.2,1.7-2.4,2.4-3.6
			c14.2-20.8,25.2-43.5,25.2-43.5s1,7,4.5,18.5c1.7,5.8,5.1,12.2,8.2,18.5c-13.4,10.9-21.6,23.4-24.5,31.7
			c-5.3,15.3-1.1,22.2,6.7,23.8c3.5,0.7,8.6-0.9,12.3-2.5c4.7-1.6,10.3-4.1,15.5-8c9-6.6,17.7-15.9,17.1-28.5
			c-0.2-5.7-1.8-11.4-3.9-16.8c11.3-4.7,25.9-7.3,44.6-5.2c40,4.7,47.9,29.7,46.3,40.1c-1.5,10.5-9.9,16.2-12.7,18
			c-2.8,1.7-3.7,2.4-3.4,3.7c0.4,1.9,1.7,1.8,4,1.4c3.3-0.6,21-8.5,21.8-27.8C487.1,308.5,463.6,281.6,422,281.8L422,281.8z
			 M113.5,385.8c-13.2,14.4-31.8,19.9-39.7,15.3c-8.6-5-5.2-26.2,11.1-41.6c9.9-9.3,22.7-18,31.2-23.3c1.9-1.1,4.7-2.9,8.2-5
			c0.6-0.4,0.9-0.5,0.9-0.5c0.6-0.4,1.4-0.8,2.1-1.2C133.2,351.3,127.5,370.6,113.5,385.8L113.5,385.8z M210.1,320.1
			c-4.6,11.3-14.3,40-20.2,38.5c-5-1.3-8.1-23.2-1-44.8c3.6-10.9,11.2-23.8,15.7-28.8c7.3-8.1,15.2-10.7,17.1-7.5
			C224.3,281.8,213,313,210.1,320.1L210.1,320.1z M289.9,358.2c-1.9,1-3.7,1.7-4.6,1.1c-0.6-0.4,0.8-1.7,0.8-1.7s10-10.7,13.9-15.6
			c2.3-2.9,5-6.3,7.8-10c0,0.4,0.1,0.7,0.1,1.1C307.8,346,295.5,354.7,289.9,358.2z M351.4,344.2c-1.4-1-1.2-4.4,3.6-14.9
			c1.9-4.1,6.2-11,13.7-17.6c0.9,2.7,1.4,5.3,1.4,7.8C369.9,335.6,358.3,341.6,351.4,344.2L351.4,344.2z"/>
	</g>
</g>
<g id="Layer_1_1_">
</g>
</svg>
