<?xml version="1.0" encoding="utf-8"?>
<!-- Generator: Adobe Illustrator 21.0.2, SVG Export Plug-In . SVG Version: 6.00 Build 0)  -->
<svg version="1.1" id="Layer_1" xmlns="http://www.w3.org/2000/svg" xmlns:xlink="http://www.w3.org/1999/xlink" x="0px" y="0px"
	 viewBox="0 0 90 209" style="enable-background:new 0 0 90 209;" xml:space="preserve">
<style type="text/css">
	.st0{fill:#FFFFFF;}
	.st1{fill:none;stroke:#FFFFFF;stroke-width:7;stroke-linecap:round;stroke-linejoin:round;stroke-miterlimit:10;}
	.st2{fill:none;stroke:url(#SVGID_1_);stroke-width:3;stroke-miterlimit:10;}
</style>
<g>
	<path class="st0" d="M46.5,29.5c12.1,0,22,9.9,22,22v25c0,12.1-9.9,22-22,22h-4c-12.1,0-22-9.9-22-22v-25c0-12.1,9.9-22,22-22H46.5
		 M46.5,26.5h-4c-13.8,0-25,11.2-25,25v25c0,13.8,11.2,25,25,25h4c13.8,0,25-11.2,25-25v-25C71.5,37.7,60.3,26.5,46.5,26.5
		L46.5,26.5z"/>
</g>
<g>
	<line class="st1" x1="44.5" y1="49.5" x2="44.5" y2="56.5"/>
</g>
<g>
	
		<linearGradient id="SVGID_1_" gradientUnits="userSpaceOnUse" x1="44.5" y1="22.5" x2="44.5" y2="110" gradientTransform="matrix(1 0 0 -1 0 210)">
		<stop  offset="0" style="stop-color:#FFFFFF;stop-opacity:0"/>
		<stop  offset="1" style="stop-color:#FFFFFF"/>
	</linearGradient>
	<line class="st2" x1="44.5" y1="100" x2="44.5" y2="187.5"/>
</g>
</svg>
